<?xml version="1.0" encoding="UTF-8"?>
<svg enable-background="new 0 0 405.062 307.521" space="preserve" version="1.1" viewBox="0 0 405.062 307.521" xmlns="http://www.w3.org/2000/svg">
 <path d="m244.04 187.1c8.17 8.04 16.06 2.31 18.89-6.11 2.39-7.1 10.18-18.29 18.16-8.52 4.63 5.68 4.8411 18.646 2.3811 24.296-2.53 5.78-5.8811 3.2744-10.911 4.9744-3.71 1.26-10.64 0.58-14.63 0.55-5.65-0.04-16.93 0.22-18.15-7.04-0.83-4.9 6.06-8.43 4.26-8.15" fill="#307c3b"/>
 <path d="m253.86 117.45c4.3-3.35 7.1-0.42 11.48 0.56 6.31 1.41 12.3 0.83 18.62 1.67 9.99 1.33 20.62 12.69 14.54 23.71-3.59 6.49-10.6 5.81-12.88 14.17-2.92 10.72-3.42 11.93-13.24 14.72-9.06 2.58-8.56 6.55-15.01 13.71-7.3 8.12-12.79 6.36-13.42-5-0.76-13.47 5.49-24.84 4.35-37.97-0.6-6.86-1.72-19.24 3.24-25.19 0.85-1.02 1.84-1.7 3.06-2.23 0.12 0.99-0.59 1.28-0.74 1.85" fill="#7747a3"/>
 <path d="m260.52 71.146c4.72-6.97 19.84-21.118 29.83-15.745 6.53 3.519 4.98 16.169 5.92 22.228-5.22-0.368-35.38-5.443-35.75-6.483" fill="#ffffba"/>
 <path d="m288.68 56.885c0.39 4.975 0.63 11.523-1.67 16.115-2.45 4.911 6.53 6.426 9.08 3.241 3.81-4.762-0.33-20.891-7.41-19.356" fill="#bfb3b3"/>
 <path d="m136.79 60.032c0.93-13.744 1.85-27.488 2.78-41.231 0.37-5.45 10.92-4.644 15.19-3.223 12.15 4.046 5.02 40.138 4.44 48.717-7.46-1.432-14.93-2.937-22.41-4.263" fill="#bfffff"/>
 <path d="m153.46 17.429c-0.84 6.087 1.45 12.865 1.02 19.357-0.32 4.797-4.12 16.52-1.39 21.209 7.17 12.293 7.32-14.811 7.5-18.246 0.27-5.156 2.11-25.466-7.13-22.32" fill="#99b3c4"/>
 <path d="m222.74 222.3c0 4.86-1.88 9.58 2.88 11.57 5.06 2.11 9.98 3.99 15.19 5.66 3.07 0.98 13.89 6.46 16.77 4.86 5.36-2.98 10.73-5.96 16.1-8.94-7.69-10.99-11.51-10.01-25.01-12.01-8.61-1.27-17.63-0.32-25.93-1.14" fill="#307c3b"/>
 <path d="m164.39 201c6.99 5.96 15.66 17.08 24.08 20.56 7.76 3.2 21.46 0.92 30.16 0.92 11.96 0 20.98 0.52 32.49 3.39 6.47 1.62 12.94 3.24 19.4 4.85 1.83 0.46 9.56-11.37 11.02-13.2 1.53-1.91-4.08-11.41-5.02-13.63-2.74-6.51-5.61-4.56-12.68-4.56-9.7 0-19.3-1.71-28.98-1.91-13.51-0.28-27.01-0.56-40.52-0.84-9.84-0.21-20.48 3.68-29.95 4.42" fill="#3dba4f"/>
 <path d="m359.25 136.9c-12.9-16.13-23.06-13.57-40.84-7.96-12.78 4.03-18.32 7.27-23.43 19.45-3.21 7.65-11.29 10.48-12.23 18.89-0.78 7.02 1.08 14.07-0.55 21.03-1.54 6.53-7.48 11.92-10.19 18.06-7.34 16.57 0.5 47.23 10 62.42 3.38 5.4 8.42 7.37 13.52 10.74 6.4 4.23 9.19 10.33 15.01 14.88 11.59 9.07 33.42 6.36 46.49 2.17 35.96-11.54 38.59-62.96 37.99-94.03-0.23-11.9 1.08-36.27-8.63-44.9-8.69-7.72-16.85-15.19-27.14-20.75" fill="#46516a"/>
 <path d="m351.48 182.47c22.36-7.09 29.92 58.11 15.74 69.09-16.7 12.95-28.26-9.93-29.49-23.1-1.51-16.08 9.09-31.25 13.75-45.99" fill="#e6ffff"/>
 <path d="m56.029 212.11c-17.843-7.81-34.179-5.35-44.827 11.95-8.126 13.19-11.264 40.02 5.742 48.53 22.254 11.13 46.388 9.97 58.279-14.73 8.68-18.03-1.371-43.99-19.194-45.75" fill="#46516a"/>
 <path d="m197.17 0.018c5.84-0.372 10.26 5.02 7.05 7.594 0.4-0.327-13.46 1.238-13.16 1.389-3.74-1.87-11.41 1.619-15.19 1.019-2.55-0.406-7.85-3.411-9.72-3.24 0.43-0.039-20.92 13.021-16.02 3.241 1.64-3.28 10.5-9.651 14.26-8.243 3.04 1.139 10.82-0.813 13.99-1.389 6.23-1.136 13.27 1.841 18.79-0.371" fill="#808080"/>
 <path d="m161.61 18.171c0.19 5.682 1.42 11.244 2.22 16.856 0.75 5.244-1.76 9.682-1.2 14.725 1.06 9.552-2.49 15.728 8.24 17.875 4.49 0.899 9.14 4.402 13.52 6.113 6.29 2.458 13.05 2.855 19.12 5.488 17.66 7.65 37.87 13.016 48.31 30.632-2.39-6.97-4.9-14.505-2.6-21.857-11.19-1.17-9.77-13.99-1.66-17.413 5.69-2.403 9.92-1.712 14.63-4.815 7.71-5.078 20.45-19.052 31.3-10.93 7.34 5.492 4.76 28.403-0.37 15.931-2.12-5.157 2.29-13.196-6.11-13.523-4.85-0.189-14.5 9.369-18.71 11.671 12.46 2.424 46.33 6.519 43.62 22.783-1.02 6.159-11.65 6.715-14.9 12.043-3.75 6.12-1.97 12.53-10.01 16.3 1.59 1.24 9.24 5.3 7.04 7.96-1.01 1.23-4.32-4.03-5.56-4.44-8.85-2.96-21.25 11.17-28.15 0.93 3.79 0.24 7.68-0.01 11.11-1.67-5.37-1.91-10.3-3.87-14.26-8.15 3.3 12.49-5.19 24.31-6.67 36.49 8.18-3.99 12.3-0.81 20.01-1.67-5.16-1.81-14.78-4.79-15.57-10.37 13.88 2.3 17.66 3.81 31.5-2.23 2.12 7.16-10.47 11.93-15.94 12.6 18.04 11.04-5.7 4.8-11.66 8.15-2.08 1.17-10.15 10.13-9.27 12.13 2.46 5.53 6.48 11.96 1.86 17.51 6.79 3.07 8.51-6.99 9.72-11.86 1.39-5.54 8.36-13.87 9.17-4.07 0.23 2.79-5.9 14.4-7.41 16.67-4.51 6.76-6.48 4.94-12.97 6.48-2.3 0.55-3.15-3.01-5 0-2.32 3.79 4.04 3.12 5.74 3.52 4.64 1.08 17.21 1.97 18.53-3.33 2.02-8.13 6.62-8.82 9.63-0.37 1.51 4.22 0.86 9.48 1.48 13.89 0.97 6.77 7.02 11.97 11.12 17.23 1.87-6.85 4.38-14.45 10.65-18.43 7.73-4.93 5.73 9.93 4.16 13.33-2.55 5.53-9.31 17.39-14.26 14.54-1.24-0.71 0.56-5.63-0.56-6.85-1.62-1.78-7.81-1.93-10.55-3.89-5.91-4.21-6.59-13-11.12-17.04-4.84-4.32-20.34-6.31-27.04-6.3-11.4 0.01-21.56 3.19-33.34 2.04-11.43-1.12-21.89-2.63-33.16 0.74 7.67 8.38 9.45 13.19 21.12 13.71 8.69 0.38 16.18 4.44 24.91 3.52 6.42-0.68 43.85-2.82 41.03 10.37-12.6-2.5-26.2-5.5-39.08-3.89 0.65 2.2 1.67 4.18 3.51 5.74 0.36-10.11 6.98 0.08 9.08 2.04 4.32 4.03 8.69 6.38 14.91 6.94 4.9 0.45 16.53-0.22 15.56-7.03-0.52-3.69-0.13-7.31 1.02-10.84 11.12 2.98 11.74 21.09 18.34 29.08 0.79 0.97 5.88 3.75 5.37 5.37-1.35 4.27-9.59-0.8-11.85-2.4-2.94-2.08-5.59-8.38-8.16-9.64-3.33-1.63-5.54 1.56-10.74 2.6-11.06 2.21-21.11-5.54-29.45-11.67-0.52 6.07 3.63 14.9 3.06 22.59-0.3 4.12-1.69 23.13-6.21 24.64-3.64 1.22-6.71 10.94-11.3 13.62-6.89 4.02-13.82 9.54-21.86 9.16-22.08-1.02-42.99-15.28-41.76-38.43 0.35-6.8-1.08-3.17-3.25-7.5-1.94-3.89-2.77-6.68-4.26-11.12-3.69-11.03-13.08-18.86-7.78-31.3-11.53-3.49-26.14-4.2-38.15-4.45-3.702-0.07-12.837-0.67-16.121 1.48-8.555 5.61-7.687 41.19-22.228 31.12 1.715 12.1-22.154 3.31-14.263-1.48-6.009-3.52 1.01-6.89 4.582-9.59 2.03-1.53 0.235-17.76 0.883-21.44 1.204-6.82 10.382-34.43 21.764-25.28 3.588-9.68-0.322-17.1-0.926-26.67-0.763-12.11-1.979-23.9-3.147-36.12-1.603-16.78-0.792-55.182 16.114-63.167 9.967-4.708 21.892-6.522 32.782-6.854 6.76-0.206 13.59 0.305 20.3 1.119 4.62 0.561 16.35 5.129 17.31 0.363 1.42-7.098-0.58-15.139-0.19-22.413 0.75-14.055 0.85-19.396-15.19-16.671 3.51 13.232-1.43 27.198-2.13 40.474-0.09 1.677-1.84 4.377-3.15 1.759-2.67-5.337-1.98-12.742-1.66-18.522 0.36-6.613-0.75-28.902 5.74-31.398 6.22-2.393 17.77 1.487 20.84 6.761"/>
 <path d="m143.83 66.146c-0.71 10.173 2.02 19.34 0.78 29.527-2.01 16.457-2.37 32.907-1.99 49.477 0.22 9.1 3.82 45.15-2.13 47.88-2.92 1.34-8.26-2.06-10.93-2.97-6.67-2.26-12.89-4.26-20.09-4.26-8.57 0-17.091 0.93-25.658 0.93-5.676 0-1.127-9.29-0.37-12.59 1.032-4.51 3.562-8.96 4.26-13.16 0.896-5.39-1.136-10.87 0.093-16.2 1.768-7.67 2.561-20.97 0.566-28.95-2.705-10.83-0.791-40.694 9.344-44.869 8.855-3.648 21.115-2.73 30.565-4.445 4.69-0.852 11.37-1.912 15.56-0.37" fill="#4ddf62"/>
 <path d="m180.32 77.629c13.08 3.661 21.41 8.908 33.43 14.634 16.89 8.037 27.11 14.627 26.54 34.647-0.25 8.6-1.78 17.07-2.04 25.66-0.24 7.97 3.25 16.54 2.45 23.97-0.43 4.12-3.32 8.55-4.44 12.6-1.89 6.85 0.18 7.41-8.06 7.41-12.84 0-24.99-1.39-37.88-1.48-7.58-0.06-36.23 5.97-39.82-2.13-3.74-8.41-2.38-24.83-2.23-33.81 0.21-12.44 4.99-25.81 3.61-38.06-1.08-9.68 0.1-20.18 0.1-30.104 0-6.146 2.47-17.844-1.12-23.339 9.74 3.469 20.46 5.765 29.46 10.002" fill="#3dba4f"/>
 <path d="m294.05 81.705c-4.14 2.068-2.8 5.256-2.03 9.077 1.26 6.308-1.42 9.538-5.19 14.818-7.97 11.15-20.34 13.72-29.92 2.78-6.6-7.55-1.82-16.584-5.46-24.823-0.16-0.357-3.58-2.825-5-3.889 4.95-12.747 39.89-2.587 47.6 2.037" fill="#bf8c74"/>
 <path d="m126.42 79.853c1.37 9.618-14.26 6.923-12.78-1.297 1.36-7.585 12.47-4.566 12.78 1.297"/>
 <path d="m307.39 85.225c-1.04 4.476-6.51 5.53-10.56 6.854 0.45-3.277 2.43-6.168 1.67-9.262 2.83 0.827 6.4 1.92 8.89 2.408" fill="#a97a64"/>
 <path d="m103.82 98.191c-2.95 17.669-3.65 34.769-2.78 52.609 0.22 4.56 1.65 23.4-2.408 25.19-4.245 1.87-4.928-3.54-5.743-6.11-3.693-11.66 1.148-28.8 2.183-40.54 0.826-9.37 0.756-20.91 3.745-29.852 1.883-5.632 3.443-8.057 5.003-1.297"/>
 <path d="m217.55 111.53c9.47 7.55 14.82 7.68 14.82 21.66 0 15.29-4.81 30.56-11.3 44.28-0.78 1.64 1.64 2.9-0.74 5-2.83 2.49-7.05 1.75-10.47 2.13-6.84 0.77-9.79-1.92-16.2-3.24-8.9-1.83-22.25 0.35-29.36-5.74-9.39-8.04-6.3-15.24-4.73-26.3 1.9-13.35-3.68-25.11-1.39-38.9 0.64-3.8 0.95-10.11 3.8-5.56 2.4 3.83-0.44 16.9 0.19 21.86 1.08 8.56 5.37 16.07 5.37 24.63 0 3.88-3.46 15.17-2.04 18.16 3.09 6.47 14.29 3.07 19.54 3.42 4.53 0.3 7.59 1.7 12.33 1.45 1.84-0.1 5.22-11.69 4.62-13.76-3.25-11.29-20.73-2.71-27.6-6.49-6.42-3.53-0.65-6.73 4.26-7.41 5.94-0.81 16.72 2.07 20.75 6.3 4.64-5.71-3.13-21.9-8.52-26.67-4.4-3.9-22.64-0.83-19.08-10.75 10.92 4.18 29.03-2.84 33.62 13.99 3.7 13.6 6.68 24.59 3.8 37.6-1.32 5.92 1.22 9.03 5.55 3.98 3.75-4.36 2.47-17.98 2.41-22.59-0.1-7.39-1-14.71-1.67-22.05-0.76-8.44-6-10.75-13.33-14.26-6.49-3.11-13.27-5.21-19.45-8.98-5.6-3.422-17.23-3.01-19.82-9.357 20.08 0.161 36.05 13.857 54.64 17.597"/>
 <path d="m132.71 100.42c2.68 8.19 3.07 80.61-7.96 77.05-4.91-1.58-2.58-44.99-2.22-50.94 0.3-5.01 5.06-39.667 10.18-26.11"/>
 <path d="m116.6 158.58c2.96 7.57-7.97 13.13-7.97 5.49 0-11.01 0.21-21.92 0.84-32.92 0.42-7.34-0.97-27.37 4.54-32.033 9.53 18.303-0.61 40.663 2.59 59.463"/>
 <path d="m278.12 106.16c-4.9 1.28-12.55 1.05-14.82-4.26 4.15 0.62 14.9 0.25 14.82 4.26"/>
 <path d="m366.48 140.8c22.24 4.2 31.68 28.44 32.78 47.97 0.29 5.01 3.17 7.65 3.71 11.85 0.55 4.3-3.52 7.35-3.52 11.49 0 3.68 3.4 10.27 4.44 14.45 2.17 8.63 1.44 9.75-3.15 16.67-2.88 4.35-12.4 13.97-12.4 18.24 0 8.33-1.42 15.03-6.86 21.4-4.49 5.25-10 14.44-15.56 18.15-10.64 7.11-19.98 2.2-31.49 1.3-11.24-0.89-25.55 3.58-29.63-11.49 3.39-0.32 4.39 1.96 7.4 2.59 7.07 1.49 14.89 0.04 21.86 1.86 0.88 0.23 2.28 3.03 4.82 3.52 2.6 0.5 4.52-0.65 7.22 0.37 0.92-3.73 12.2-8.58 15.75-10 7.22-2.9 11.39-9.34 15-15.93 8.19-15 14.99-37.21 14.08-52.61-0.36-6.09-2.46-12.69 0.37-17.87 2.12-3.9 5.8-8.03 0.65-11.12-5.77-3.46 0.2-7.02-0.47-11.2-0.27-1.72-1.57-2.16-1.85-3.15 0.29 1.05-2.66-3.39-2.96-3.89-1.71-2.88-2.86-7.3-4.26-10.47-2.47-5.56-7.45-13.41-13.71-14.73-6.6-1.38-13.29 4.84-19.27-0.64-6.58-6.04-15.78-8.54-24.26-10.65 10.73-11.37 24.34 9.18 32.41 3.7-4-5.25-9.67-10.01-16.11-11.85-5.08-1.46-10.89 0.57-15.37-2.41 15.33-8.69 29.94 5.3 40.38 14.45"/>
 <path d="m312.76 132.83c2.47 6.75-4.35 9.2-6.67 14.45-1.91 4.33-2.75 12.98-2.77 17.78 6.48-6.75 15.32-12.83 24.54-15 11.23-2.65 3.93 4.67-1.95 7.31-4.78 2.15-9.82 3.72-14.35 6.39-2.4 1.41-8.76 11.14-9.17 10.93-2.23-1.13-0.69-5.8 0.18-7.41-12.53 5.19-9.94-18.27-7.22-23.71 1.91-3.82 13.61-18.75 17.41-10.74"/>
 <path d="m194.95 144.31c-0.96 1.69-18.73-0.29-22.6-2.22-8.29-4.14 3.82-4.94 7.23-4.72 5.95 0.37 11.87 2.65 15.37 6.94"/>
 <path d="m290.9 156.72c-1.65 7.23-2.1 15.25-2.4 22.42-0.19 4.45 2.95 13.14-1.49 13.7-11.16 1.42-9.35-20.15-8.52-25.56 1.35-8.79 7.44-27.25 12.41-10.56"/>
 <path d="m316.65 174.14c4.43 9.61-5.97 12.64-11.11 18.33-2.59 2.86-4.99 11.26-9.08 11.77-15.14 1.88 13.91-46.84 20.19-30.1"/>
 <path d="m353.14 178.58c0.67 5.35-2.34 9.09-3.89 13.89-2.51 7.79-3.55 16.72-4.45 24.83-1.04 9.4-1.35 19.15 3.27 27.73 2.6 4.83 7.48 4.1 9.52 7.27 3.07 4.8-1.36 3.95-5.37 2.78-7.8-2.25-12.68-12.27-14.82-19.45-5.85-19.57 2.98-42.33 15.74-57.05"/>
 <path d="m381.67 225.26c0.37 8.64-6.47 14.09-9.36 21.58-1.01 2.62-3.73 2.41-6.02 1.39-5.07-2.27-2.9-9.94-2.04-14.26 2.49-12.4 6.95-22.39 1.86-34.83-2.74-6.67-8.53-11.95-10.19-19.08 16.72 6.27 24.72 29.62 25.75 45.2"/>
 <path d="m120.67 197.29c8.43 7.06 29.56 14.71 38.16 5 2.19 4.61 5.39 3.55 9.26 5.19 6.87 2.9 7.47 3.85 11.67 11.3-16.04 7.97-24.06 24.71-26.12 41.86-2.03-6.02-3.48-17.33-1.29-23.9 2-6.02-6.27-4.04-7.6 1.67-6.01-10.18 3.93-9.98 2.23-17.78 6.13 0.31 9.92 6.79 15.56 7.23 7.25 0.56 4.84-3.78 0.37-7.51-14.94-12.43-39.52-15.84-58.06-11.91-8.079 1.71-8.766 1.12-16.037 0.34-4.468-0.48-7.714-0.09-11.762 2.22-7.438 4.24-18.884 28.9-15.466 36.3-0.583 0-3.176-0.33-4.076-0.55 3.076-2.64 4.405-13.67 5.002-17.23 0.852-5.07-0.587-6.54 2.221-11.67 1.325-2.42 3.566-8.54 4.817-10.19 12.452-16.36 33.161-8.77 51.121-10.37" fill="#4ddf62"/>
 <path d="m359.44 209.33c2.53 6.28 6.92 30.55-7.04 26.86-10.39-2.74 0.2-9.63 0.93-13.61 1.59-8.76-1.61-13.26-4.08-20.66 4.14 1.26 8.46 4 10.19 7.41"/>
 <path d="m47.322 209.33c0.165 7.01-21.021 3.34-26.673 8.15-7.638 6.5-10.205 21.64-10.929 30.93-1.209 15.52 8.603 19.88 21.116 26.86 6.953 3.88 15.614 4.85 23.525-0.55-14.725-3.92-26.287-1.01-30.934-20.38-3.116-12.98 2.328-23.59 13.152-30.75 4.044 10.44-10.06 19.02-7.502 30.94 1.056 4.92 3.726 9.6 7.688 12.78 2.985 2.39 17.977 6.88 19.45 6.3 7.335-2.93 10.647-11.23 14.077-17.6 3.629-6.73 9.077-11.33 9.077-0.09 0 33.14-48.61 30.16-66.958 16.22-21.423-16.28-13.133-54.25 9.813-66.61 6.649-3.58 21.557-3.72 25.098 3.8"/>
 <path d="m214.96 227.85c14.54 15.96 16.04 59.06-6.3 67.24-12.46 4.57-29.51 5.41-35.57-6.48-6.17-12.14 4.64-33.4-2.59-42.23-8.8 10.79-10.21 35.24 0.37 45.75-9.13-1.91-10.65-9.81-11.11-18.15-0.78-14.25 1.69-22.97 11.3-33.35 11.27-12.17 29.04-21.32 43.9-12.78" fill="#46516a"/>
 <path d="m25.094 230.08c-1.75 4.66-5.71 8.54-5.279 13.7 0.239 2.87 4.457 18.76-0.462 18.71-5.251-0.05-6.184-21.37-6.021-24.63 0.466-9.34 13.643-17.16 11.762-7.78"/>
 <path d="m201.06 230.08c-7.39 11.34-21.11 14.1-21.11 29.91 0 10.63 3.48 20.39 11.48 27.32-5.89 4-10.16-4.57-12.59-8.89 0.41 4 2.68 7.8 0.92 11.12-2.81-3.67-11.69-15.81-8.89-20.94 2.53-4.62 4.91 3.94 5.74 5.74-0.75-12.67 1.44-24.18 7.99-35.1 2.4-3.99 13.54-16.53 16.46-9.16"/>
 <path d="m314.06 239.9c-0.36 6.19-11.07 41.3-16.49 28.15-3.35-8.13 12.66-36.15 16.49-28.15"/>
 <path d="m209.96 241.75c13.79-2.37 13.83 32.66-0.74 35.37-21.98 4.09-11.26-31.22-1.49-38.34-0.42-0.64 2.81 4.27 2.23 2.97"/>
 <path d="m52.138 247.49c-0.973-0.25-2.456 0.39-3.889-1.67 1.883 0.06 2.977 1.11 3.889 1.67" fill="#4ddf62"/>
 <path d="m211.44 258.97c-0.48 3.8 0.39 14.77-7.04 12.04-7.08-2.59 2.07-18.01 2.59-22.97 1.77 3.52 4.43 7.5 4.45 10.93" fill="#e6ffff"/>
 <path d="m301.65 278.61c4.43 1.58 9.93-0.46 13.98 1.85 6.29 3.59-0.48 7.82-5 7.32-13.57-1.51-39.12-9.37-36.21-28.62 9.87 4.53 15.94 18.84 27.23 19.45"/>
 <path d="m328.69 270.64c0.7 4.99 3.39 23.44-5.19 15.56-3.46-3.18-4.53-15.2-1.48-18.89 3.52-4.25 5.92-1.28 6.67 3.33"/>
 <path d="m251.26 83.002c-3.1 2.137-5.12-1.315-5-2.778 0.67-7.961 16.7-7.24 22.88-6.113 4.43 0.807 23.09 2.439 25.47 6.113 0.48 0.743-1.84 10.727-2.04 12.595-7.24-6.945-40.6-4.901-41.31-9.817" fill="#a97a64"/>
 <path d="m286.09 83.002c-0.54 4.159-4.83 6.447-7.6 2.778-4.2-5.567 4.97-5.438 7.6-2.778"/>
 <path d="m267.01 79.482c-2.11 5.886-5.63 0.708-3.71-3.889 2.22 0.635 3.12 2.209 3.71 3.889"/>
 <path d="m271.08 85.596c0.03-0.068-3.29 6.156-3.52 4.815 0.65 3.776 3.53 0.365 4.82 1.853 1.13 1.303 6.38-1.021 3.52 3.334-0.9 1.37-5.08 2.364-6.48 2.131-14.76-2.448-3.69-19.614 1.66-12.133"/>
 <path d="m254.97 75.593c-2.4 2.246-9.18 15.139-1.3 13.151 3.68-0.93 5.64-13.006 1.3-13.151"/>
 <path d="m256.26 78c0.6-0.109 1.35-0.894 1.67-1.297 0.01 0 0.22 0.163 0.56 0.187-0.17-0.044-0.29 0.018-0.37 0.185 2.11-4.334-2.12-6.809-5-2.778-2.6 3.632 2.07 4.647 3.14 3.703"/>
</svg>
