<svg width="1581" height="1581" viewBox="0 0 1581 1581" xmlns="http://www.w3.org/2000/svg"><title>Octogon</title><g stroke-width="4" stroke="#0044a3" fill="none" fill-rule="evenodd"><path d="M1116.972 2.727l461.314 461.505-.135 652.802-461.505 461.697-652.532.135L2.801 1117.36l.135-652.802L464.44 2.863z"/><path d="M293.478 175.761L1577.3 564.121M450.794 17.95l154.784 1558.898M497.744 3.844l-253.63 1354.008M550.259 5.03l-405.13 1252.29M574.399 4.206L298.574 1411.8M587.933 5.483L260.984 1374.58M596.85 4.847l821.755 1270.156M631.755 4.151l257.991 1573.505M633.984 3.992l665.288 1389.353M835.192 3.99L4.427 643.772M986.655 3.95L186.187 1299.221M1106.749 3.905L140.895 1254.483M1186.612 74.869L221.39 1334.368M1295.53 182.763l-272.696 1394.818m270.85-1395.583l-109.444 1327.14M1330.733 217.91L179.948 1293.39M1351.611 240.63L405.646 1518.927m985.402-1240.315l89.024 934.178m-41.186-885.138l-667.004 1249.89m803.649-952.999L3.957 516.937m1571.265 147.527l-1428.089 595.85M1577.391 714.07L4.414 1004.203m1570.979-248.747L4.483 714.15m1572.367-1.386L128.8 1241.896m1448.467-308.152L3.904 1060.276m1572.562-61.92L3.604 859.909m1572.542 254.131L365.128 1478.332m995.769-144.97L3.622 828.527M1354.525 1338.3L4.918 619.08m1280.079 787.835L29.415 439.808m1206.701 1017.215L4.266 477.016M820.703 1577.2L3.85 705.229M493.096 1576.8L4.304 578.776m237.806 776.081L3.893 686.846" stroke-linecap="square"/></g></svg>