<?xml version="1.0" standalone="no"?>
<!DOCTYPE svg PUBLIC "-//W3C//DTD SVG 1.1//EN" "http://www.w3.org/Graphics/SVG/1.1/DTD/svg11.dtd" >
<svg xmlns="http://www.w3.org/2000/svg" xmlns:xlink="http://www.w3.org/1999/xlink" version="1.1">
<metadata></metadata>
<defs>
<font id="din_otbold" horiz-adv-x="1112" >
<font-face units-per-em="2048" ascent="1565" descent="-483" />
<missing-glyph horiz-adv-x="475" />
<glyph horiz-adv-x="0" />
<glyph horiz-adv-x="0" />
<glyph horiz-adv-x="682" />
<glyph unicode="&#xd;" horiz-adv-x="475" />
<glyph unicode=" "  horiz-adv-x="475" />
<glyph unicode="&#x09;" horiz-adv-x="475" />
<glyph unicode="&#xa0;" horiz-adv-x="475" />
<glyph unicode="!" horiz-adv-x="710" d="M229 1458h330l-67 -1001h-197zM242 0v303h305v-303h-305z" />
<glyph unicode="&#x22;" horiz-adv-x="950" d="M139 1026v432h250v-432h-250zM561 1026v432h248v-432h-248z" />
<glyph unicode="#" horiz-adv-x="1415" d="M123 389v250h182l33 221h-143v248h182l57 362h281l-58 -362h238l57 362h279l-55 -362h141v-248h-182l-33 -221h141v-250h-182l-62 -389h-280l63 389h-237l-62 -389h-280l61 389h-141zM584 639h237l33 221h-236z" />
<glyph unicode="$" horiz-adv-x="1267" d="M39 180l184 185q116 -116 326 -123v370l-66 9q-184 24 -282 122q-105 105 -105 285q0 179 114 297.5t312 140.5v185h207v-183q125 -8 223 -48.5t181 -119.5l-181 -178q-90 87 -252 99v-357l78 -12q186 -28 279 -115q112 -106 112 -307q0 -182 -121 -296t-319 -138v-229 h-207v221q-153 5 -269.5 49.5t-213.5 142.5zM371 1038q0 -64 43 -104q48 -45 135 -57v342q-86 -12 -132 -61.5t-46 -119.5zM700 246q92 11 141.5 56t49.5 120q0 81 -45 123q-24 23 -56 34t-90 19v-352z" />
<glyph unicode="%" horiz-adv-x="1736" d="M106 987v203q0 132 86 206t214 74q126 0 210 -73.5t84 -206.5v-203q0 -133 -84 -206.5t-210 -73.5q-128 0 -214 74t-86 206zM301 995q0 -116 105 -116q102 0 102 116v187q0 116 -102 116q-105 0 -105 -116v-187zM420 0l690 1458h209l-690 -1458h-209zM1036 268v203 q0 133 84.5 207t212.5 74t212.5 -74t84.5 -207v-203q0 -134 -84.5 -207t-212.5 -73t-212.5 73t-84.5 207zM1229 274q0 -114 104 -114q105 0 105 114v189q0 117 -105 117q-104 0 -104 -117v-189z" />
<glyph unicode="&#x26;" horiz-adv-x="1476" d="M123 430q0 67 22 127t62.5 108t82 84t95.5 72q-30 35 -49 59.5t-44.5 66t-38.5 88t-13 95.5q0 152 104.5 246t284.5 94q169 0 270.5 -96t101.5 -248q0 -80 -38 -140.5t-111 -113.5l-104 -75l245 -291q68 91 74 256h252q-16 -295 -156 -453l262 -309h-338l-106 127 q-39 -31 -65 -48.5t-73.5 -42.5t-107 -36.5t-131.5 -11.5q-237 0 -359 116t-122 326zM381 434q0 -90 63.5 -147.5t157.5 -57.5q118 0 217 86l-291 342q-49 -34 -78.5 -62.5t-49 -69.5t-19.5 -91zM508 1124q0 -25 15.5 -55t31 -49t49.5 -59l62 40q84 59 84 123 q0 52 -32.5 85.5t-88.5 33.5q-58 0 -89.5 -33t-31.5 -86z" />
<glyph unicode="'" horiz-adv-x="530" d="M139 1026v432h252v-432h-252z" />
<glyph unicode="(" horiz-adv-x="688" d="M164 283v893q0 174 53 264q21 38 53 77t56 63.5t71 70.5l181 -181l-19.5 -19.5l-19 -19t-16 -16.5t-16.5 -18t-14 -17.5t-15.5 -21.5t-14.5 -23q-31 -60 -31 -172v-868q0 -112 31 -172q7 -12 14.5 -23t15.5 -21.5t14 -17.5t16.5 -18t16 -16.5l19 -19l19.5 -19.5 l-181 -181q-47 46 -71 70.5t-56 63.5t-53 77q-33 55 -43 117t-10 148z" />
<glyph unicode=")" horiz-adv-x="688" d="M111 -12l17.5 17.5l16.5 16.5t14 14.5t14.5 15.5t12.5 15t13.5 17.5t12.5 17.5t13 21q31 60 31 172v868q0 112 -31 172q-7 12 -14 22.5t-16 22t-13.5 17t-17 19t-15 16l-19 19l-19.5 19.5l180 181q47 -46 71 -70.5t56 -63.5t53 -77q53 -90 53 -264v-893q0 -86 -10 -148 t-43 -117q-21 -38 -53 -77t-56 -63.5t-71 -70.5z" />
<glyph unicode="*" horiz-adv-x="1011" d="M113 942l225 119l-225 119l92 163l217 -137l-10 256h188l-8 -256l215 137l94 -163l-227 -119l227 -119l-94 -162l-215 135l8 -256h-188l10 256l-217 -135z" />
<glyph unicode="+" d="M102 442v250h330v328h250v-328h328v-250h-328v-327h-250v327h-330z" />
<glyph unicode="," horiz-adv-x="571" d="M139 291h293v-404l-293 -225v629z" />
<glyph unicode="-" horiz-adv-x="872" d="M121 461v248h631v-248h-631z" />
<glyph unicode="." horiz-adv-x="583" d="M139 0v303h305v-303h-305z" />
<glyph unicode="/" horiz-adv-x="825" d="M0 -152l584 1762h250l-584 -1762h-250z" />
<glyph unicode="0" d="M113 422v614q0 102 36 185t97 137t141 83t170 29t169.5 -29t140.5 -83t96.5 -137t35.5 -185v-614q0 -102 -35.5 -185t-96.5 -137t-140.5 -83t-169.5 -29t-170 29t-141 83t-97 137t-36 185zM379 424q0 -91 49 -144t129 -53t128 53t48 144v608q0 92 -48 145.5t-128 53.5 t-129 -54t-49 -145v-608z" />
<glyph unicode="1" d="M211 913v287l297 258h266v-1458h-266v1171z" />
<glyph unicode="2" d="M121 0v240l545 632q41 48 58 87.5t17 89.5q0 83 -46.5 132.5t-129.5 49.5q-75 0 -126.5 -44.5t-51.5 -142.5h-266q0 195 126 310.5t318 115.5q196 0 319.5 -114.5t123.5 -308.5q0 -98 -35 -166t-121 -168l-408 -473h564v-240h-887z" />
<glyph unicode="3" d="M86 418h266q3 -93 59.5 -142t139.5 -49q88 0 142.5 53.5t54.5 149.5q0 92 -54 146.5t-151 54.5h-39v231h39q92 0 138 50.5t46 131.5q0 88 -51 137.5t-127 49.5t-126 -47t-54 -129h-267q3 127 63.5 222t160 144t223.5 49q194 0 319 -116.5t125 -300.5q0 -210 -168 -299 q189 -100 189 -332q0 -106 -37 -190t-101 -136.5t-147 -80t-178 -27.5q-73 0 -139.5 15t-126 48.5t-103 83t-69.5 122t-27 161.5z" />
<glyph unicode="4" d="M63 207v252l500 999h291l-500 -999h305v272h256v-272h134v-252h-134v-207h-256v207h-596z" />
<glyph unicode="5" d="M117 408h266q22 -181 178 -181q80 0 127 47q57 57 57 218q0 130 -42 196t-136 66q-75 0 -117.5 -34.5t-58.5 -84.5h-244v823h832v-239h-590v-314q32 31 91 52.5t128 21.5q175 0 273 -98q79 -79 105 -172.5t26 -216.5q0 -133 -27 -222t-102 -164q-118 -118 -322 -118 q-107 0 -190.5 32.5t-134.5 83.5q-62 62 -87 136t-32 168z" />
<glyph unicode="6" d="M98 438q0 90 31 177.5t92 211.5l307 631h291l-303 -602q45 18 109 18q155 0 269 -119t114 -313q0 -210 -128 -332t-327 -122q-200 0 -327.5 119.5t-127.5 330.5zM365 440q0 -99 52 -156t136 -57t136 57t52 156q0 97 -51.5 155t-136.5 58q-84 0 -136 -57t-52 -156z" />
<glyph unicode="7" d="M102 989v469h928v-239l-473 -1219h-289l473 1219h-385v-230h-254z" />
<glyph unicode="8" d="M90 424q0 207 182 328q-68 47 -115.5 122t-47.5 181q0 188 129.5 301.5t318.5 113.5t318 -113.5t129 -301.5q0 -190 -164 -303q184 -122 184 -328q0 -137 -63.5 -237.5t-168 -149.5t-235.5 -49t-235.5 49t-168 149.5t-63.5 237.5zM356 428q0 -85 58 -143t143 -58t143 58 t58 143t-58 144t-143 59t-143 -59t-58 -144zM375 1047q0 -79 52 -132t130 -53t129 52.5t51 132.5q0 78 -51 131t-129 53t-130 -53t-52 -131z" />
<glyph unicode="9" d="M104 1016q0 210 128 332t327 122q200 0 327.5 -119.5t127.5 -330.5q0 -90 -30.5 -179t-90.5 -210l-309 -631h-289l303 602q-45 -18 -109 -18q-74 0 -143 30t-123 84t-86.5 137t-32.5 181zM371 1018q0 -97 51.5 -155t136.5 -58q84 0 136.5 57t52.5 156t-52.5 156 t-136.5 57t-136 -57t-52 -156z" />
<glyph unicode=":" horiz-adv-x="632" d="M190 0v303h304v-303h-304zM190 555v303h304v-303h-304z" />
<glyph unicode=";" horiz-adv-x="632" d="M190 555v303h304v-303h-304zM197 291h290v-404l-290 -225v629z" />
<glyph unicode="&#x3c;" d="M141 469v231l832 383v-280l-494 -219l494 -217v-281z" />
<glyph unicode="=" d="M102 238v249h908v-249h-908zM102 682v250h908v-250h-908z" />
<glyph unicode="&#x3e;" d="M141 86v281l494 217l-494 219v280l832 -383v-231z" />
<glyph unicode="?" horiz-adv-x="1071" d="M135 1061q0 124 58 218t155 142.5t217 48.5q117 0 214 -47t157.5 -141.5t60.5 -220.5q0 -123 -100 -256l-152 -201q-36 -49 -36 -104v-43h-267v61q0 63 18 110.5t60 102.5l152 195q59 77 59 137q0 73 -45.5 120.5t-120.5 47.5q-79 0 -121.5 -48t-42.5 -122h-266zM434 0 v272h283v-272h-283z" />
<glyph unicode="@" horiz-adv-x="1552" d="M117 342v612q0 130 29.5 224.5t97.5 162.5t161.5 96.5t223.5 28.5h295q128 0 222 -28t163 -97q68 -68 96.5 -161.5t28.5 -225.5v-954h-248v94q-51 -56 -107.5 -81t-138.5 -25q-164 0 -258 102q-59 63 -77.5 147t-18.5 236q0 149 18 232.5t76 146.5q93 104 258 104 q152 0 242 -100v92q0 137 -72 209t-205 72h-254q-133 0 -205 -72q-42 -42 -56.5 -90t-14.5 -119v-592q0 -75 19 -116t71 -86l-184 -185q-91 80 -126.5 159.5t-35.5 213.5zM842 473q0 -130 37.5 -197t130.5 -67t131.5 67t38.5 197t-38 196t-132 66q-93 0 -130.5 -66 t-37.5 -196z" />
<glyph unicode="A" horiz-adv-x="1306" d="M10 0l531 1458h223l532 -1458h-297l-86 258h-518l-88 -258h-297zM475 498h363l-179 530z" />
<glyph unicode="B" horiz-adv-x="1347" d="M170 0v1458h586q212 0 331 -110t119 -299q0 -110 -56 -189.5t-124 -111.5q37 -17 69 -42t63.5 -63.5t50 -96t18.5 -126.5q0 -199 -123.5 -309.5t-323.5 -110.5h-610zM455 254h297q92 0 141 51t49 129t-48.5 128t-141.5 50h-297v-358zM455 868h278q89 0 139 46t50 122 t-50 122t-139 46h-278v-336z" />
<glyph unicode="C" horiz-adv-x="1269" d="M121 729q0 87 1 132t5 110.5t13 104t25 85t41.5 83.5t61.5 73q156 153 391 153q210 0 353 -118.5t182 -341.5h-291q-23 96 -83 151.5t-161 55.5q-116 0 -182 -76q-41 -47 -56 -128t-15 -284t15 -284t56 -128q65 -75 182 -75q101 0 162 56t84 151h289q-39 -223 -183 -342 t-352 -119q-235 0 -391 153q-36 36 -61.5 73t-41.5 83.5t-25 85t-13 104t-5 110.5t-1 132z" />
<glyph unicode="D" horiz-adv-x="1349" d="M170 0v1458h526q149 0 256 -52t185 -161q62 -86 77 -193.5t15 -322.5t-15 -322.5t-77 -193.5q-78 -109 -185 -161t-256 -52h-526zM455 254h217q141 0 213 90q38 45 48.5 123t10.5 262t-10.5 262t-48.5 123q-72 90 -213 90h-217v-950z" />
<glyph unicode="E" horiz-adv-x="1239" d="M170 0v1458h960v-254h-675v-342h575v-254h-575v-354h675v-254h-960z" />
<glyph unicode="F" horiz-adv-x="1208" d="M170 0v1458h960v-254h-675v-358h575v-254h-575v-592h-285z" />
<glyph unicode="G" horiz-adv-x="1329" d="M121 729q0 87 1 132t5 110.5t13 104t25 85t41.5 83.5t61.5 73q156 153 389 153q99 0 183.5 -25t145.5 -68t107.5 -103t73.5 -127t39 -143h-286q-51 213 -263 213q-111 0 -182 -78q-41 -47 -55 -126.5t-14 -283.5t14 -284.5t55 -127.5q69 -75 182 -75q131 0 203 82 q66 74 66 194v53h-269v240h551v-213q0 -162 -30.5 -262t-108.5 -182q-86 -91 -186.5 -128.5t-225.5 -37.5q-233 0 -389 153q-36 36 -61.5 73t-41.5 83.5t-25 85t-13 104t-5 110.5t-1 132z" />
<glyph unicode="H" horiz-adv-x="1402" d="M170 0v1458h285v-596h493v596h285v-1458h-285v610h-493v-610h-285z" />
<glyph unicode="I" horiz-adv-x="624" d="M170 0v1458h285v-1458h-285z" />
<glyph unicode="J" horiz-adv-x="1046" d="M6 137l189 187q41 -41 81.5 -61.5t104.5 -20.5q107 0 168 63.5t61 186.5v966h285v-979q0 -117 -42 -212t-114 -155t-163.5 -92t-194.5 -32q-120 0 -207 34t-168 115z" />
<glyph unicode="K" horiz-adv-x="1361" d="M170 0v1458h285v-635l514 635h346l-484 -579l519 -879h-332l-375 664l-188 -226v-438h-285z" />
<glyph unicode="L" horiz-adv-x="1177" d="M170 0v1458h285v-1204h661v-254h-946z" />
<glyph unicode="M" horiz-adv-x="1660" d="M170 0v1458h281l380 -788l379 788h281v-1458h-285v850l-278 -553h-193l-280 553v-850h-285z" />
<glyph unicode="N" horiz-adv-x="1456" d="M170 0v1458h254l577 -893v893h285v-1458h-254l-577 895v-895h-285z" />
<glyph unicode="O" horiz-adv-x="1318" d="M121 729q0 87 1 132t5 110.5t13 104t25 85t41.5 83.5t61.5 73q153 153 391 153q237 0 390 -153q43 -43 71.5 -92.5t44 -94.5t23 -117.5t9 -127t1.5 -156.5t-1 -156.5t-9 -127t-23.5 -117.5t-44 -94.5t-71.5 -92.5q-153 -153 -390 -153q-238 0 -391 153q-36 36 -61.5 73 t-41.5 83.5t-25 85t-13 104t-5 110.5t-1 132zM406 729q0 -204 14 -282t55 -125q73 -80 184 -80q113 0 183 80q41 48 56 126.5t15 280.5t-15 282t-56 128q-68 78 -183 78q-113 0 -184 -78q-41 -47 -55 -126.5t-14 -283.5z" />
<glyph unicode="P" horiz-adv-x="1286" d="M170 0v1458h565q220 0 351 -130.5t131 -323.5t-131 -324t-351 -131h-280v-549h-285zM455 805h266q96 0 153.5 54.5t57.5 144.5t-57.5 145t-153.5 55h-266v-399z" />
<glyph unicode="Q" horiz-adv-x="1316" d="M121 729q0 87 1 132t5 110.5t13 104t25 85t41.5 83.5t61.5 73q156 153 391 153q237 0 390 -153q43 -43 71.5 -92.5t44 -94.5t23 -117.5t9 -127t1.5 -156.5q0 -211 -15 -319.5t-75 -196.5l125 -125l-150 -149l-131 127q-124 -78 -293 -78q-235 0 -391 153q-36 36 -61.5 73 t-41.5 83.5t-25 85t-13 104t-5 110.5t-1 132zM406 729q0 -204 14 -282t55 -125q73 -80 184 -80q53 0 95 26l-127 125l149 152l111 -111q26 82 26 295q0 202 -15 282t-56 128q-68 78 -183 78q-113 0 -184 -78q-41 -47 -55 -126.5t-14 -283.5z" />
<glyph unicode="R" horiz-adv-x="1339" d="M170 0v1458h571q144 0 253 -61t164.5 -161.5t55.5 -223.5q0 -145 -75.5 -243t-190.5 -140l326 -629h-330l-285 582h-204v-582h-285zM455 819h268q93 0 150 54t57 139t-57 138.5t-150 53.5h-268v-385z" />
<glyph unicode="S" horiz-adv-x="1210" d="M39 180l184 185q123 -123 350 -123q127 0 194 47t67 135q0 75 -46 121q-22 21 -49.5 31.5t-81.5 17.5l-174 27q-183 26 -282 120q-105 102 -105 287q0 198 137.5 320t370.5 122q153 0 265.5 -40t205.5 -130l-180 -178q-103 101 -299 101q-109 0 -166 -52.5t-57 -132.5 q0 -66 41 -104q47 -44 133 -55l174 -27q185 -25 278 -115q113 -104 113 -307q0 -138 -71.5 -239.5t-193 -152t-276.5 -50.5q-173 0 -301 43.5t-231 148.5z" />
<glyph unicode="T" horiz-adv-x="1169" d="M61 1204v254h1047v-254h-381v-1204h-285v1204h-381z" />
<glyph unicode="U" horiz-adv-x="1368" d="M147 500v958h285v-948q0 -125 68 -196.5t184 -71.5t185 71.5t69 196.5v948h283v-958q0 -151 -72 -269t-194 -180.5t-271 -62.5t-271 62.5t-194 180.5t-72 269z" />
<glyph unicode="V" horiz-adv-x="1189" d="M6 1458h295l293 -950l293 950h297l-484 -1458h-213z" />
<glyph unicode="W" horiz-adv-x="1816" d="M12 1458h297l226 -919l266 919h213l266 -919l227 919h297l-391 -1458h-237l-269 885l-268 -885h-238z" />
<glyph unicode="X" horiz-adv-x="1234" d="M10 0l453 748l-424 710h323l254 -471l256 471h322l-424 -710l455 -748h-326l-283 508l-280 -508h-326z" />
<glyph unicode="Y" horiz-adv-x="1171" d="M6 1458h309l273 -588l268 588h309l-438 -860v-598h-283v598z" />
<glyph unicode="Z" horiz-adv-x="1122" d="M82 0v229l623 975h-596v254h931v-225l-624 -979h624v-254h-958z" />
<glyph unicode="[" horiz-adv-x="774" d="M164 -152v1762h526v-240h-260v-1282h260v-240h-526z" />
<glyph unicode="\" horiz-adv-x="825" d="M0 1583h250l575 -1735h-250z" />
<glyph unicode="]" horiz-adv-x="774" d="M86 86h260v1286h-260v238h526v-1762h-526v238z" />
<glyph unicode="^" horiz-adv-x="1232" d="M129 797l365 676h245l365 -676h-279l-209 385l-208 -385h-279z" />
<glyph unicode="_" horiz-adv-x="1232" d="M0 -186h1233v-179h-1233v179z" />
<glyph unicode="`" horiz-adv-x="1024" d="M213 1585h281l131 -348h-179z" />
<glyph unicode="a" horiz-adv-x="1093" d="M74 324q0 135 94 222t274 87h248v53q0 88 -46.5 128t-151.5 40q-71 0 -116 -21t-89 -71l-168 166q77 85 162.5 118t220.5 33q454 0 454 -377v-702h-260v92q-55 -55 -113.5 -78.5t-148.5 -23.5q-178 0 -272 94q-88 91 -88 240zM330 328q0 -57 40.5 -89t121.5 -32 q54 0 89.5 10.5t67.5 40.5q41 36 41 135v58h-203q-157 0 -157 -123z" />
<glyph unicode="b" horiz-adv-x="1146" d="M150 0v1458h266v-485q92 106 258 106q165 0 258 -96q69 -70 89.5 -176.5t20.5 -271.5q0 -166 -20.5 -273.5t-89.5 -177.5q-44 -46 -112 -71t-146 -25q-87 0 -149 25.5t-117 86.5v-100h-258zM416 535q0 -58 3.5 -99t14 -83t30 -68t52.5 -42t80 -16t80 16t52.5 42t30 68 t14 83t3.5 99t-3.5 98.5t-14 82.5t-30 67t-52.5 41t-80 16t-80 -16t-52.5 -41t-30 -67t-14 -82.5t-3.5 -98.5z" />
<glyph unicode="c" horiz-adv-x="983" d="M96 535q0 125 29.5 222t76.5 156.5t111.5 98t127.5 53t132 14.5q216 0 353 -143l-181 -180q-42 45 -81 64.5t-91 19.5q-93 0 -151 -70q-60 -75 -60 -235q0 -163 60 -238q58 -70 151 -70q52 0 91 19.5t81 64.5l181 -178q-139 -145 -353 -145q-68 0 -131.5 15t-128 54 t-111.5 98.5t-76.5 157t-29.5 222.5z" />
<glyph unicode="d" horiz-adv-x="1148" d="M104 535q0 163 21 270t90 178q93 96 258 96q84 0 146.5 -24.5t113.5 -81.5v485h266v-1458h-260v100q-55 -61 -116.5 -86.5t-147.5 -25.5q-167 0 -260 96q-69 71 -90 178.5t-21 272.5zM371 535q0 -58 3.5 -99t14 -83t30 -68t52.5 -42t80 -16t80.5 16t53 42t30.5 68 t14.5 83.5t3.5 98.5t-3.5 98.5t-14.5 82.5t-30.5 66.5t-53 41.5t-80.5 16t-80 -16t-52.5 -41t-30 -67t-14 -82.5t-3.5 -98.5z" />
<glyph unicode="e" horiz-adv-x="1122" d="M96 535q0 257 127 400.5t338 143.5q219 0 342 -142t123 -374v-112h-668q0 -107 61.5 -172.5t172.5 -65.5q83 0 135 23.5t107 76.5l161 -157q-87 -88 -177 -128t-228 -40q-80 0 -148.5 15t-134 53.5t-111 99t-73 157.5t-27.5 222zM358 633h406q-3 67 -25 115 q-51 110 -178 110t-178 -110q-22 -48 -25 -115z" />
<glyph unicode="f" horiz-adv-x="700" d="M72 834v202h110v133q0 59 18.5 112.5t55.5 97.5t98.5 70t139.5 26h151v-226h-104q-92 0 -92 -96v-117h196v-202h-196v-834h-267v834h-110z" />
<glyph unicode="g" horiz-adv-x="1136" d="M104 563q0 163 20 258t89 164q94 94 256 94q85 0 145 -25.5t115 -86.5v100h258v-1028q0 -195 -128 -318.5t-341 -123.5q-127 0 -216.5 31t-170.5 108l166 168q45 -43 93.5 -62.5t115.5 -19.5q111 0 163 64t52 157v109q-96 -107 -254 -107q-160 0 -254 94q-69 69 -89 165 t-20 259zM371 563q0 -49 3 -84t13 -74t28.5 -63.5t51 -40.5t78.5 -16t79 16t51.5 40.5t29 63.5t13.5 74.5t3 83.5t-3 83.5t-13.5 74t-29 63t-51.5 40.5t-79 16t-78.5 -16t-51 -40t-28.5 -63t-13 -74t-3 -84z" />
<glyph unicode="h" horiz-adv-x="1173" d="M150 0v1458h266v-489q101 110 260 110q158 0 252 -94q61 -61 84.5 -134t23.5 -169v-682h-266v645q0 100 -52 147.5t-124 47.5q-73 0 -125.5 -47.5t-52.5 -147.5v-645h-266z" />
<glyph unicode="i" horiz-adv-x="563" d="M145 1249v217h273v-217h-273zM150 0v1036h266v-1036h-266z" />
<glyph unicode="j" horiz-adv-x="563" d="M-47 -174h102q50 0 72.5 24t22.5 72v1114h266v-1130q0 -59 -18.5 -112t-55 -97t-98 -70t-140.5 -26h-151v225zM145 1249v217h273v-217h-273z" />
<glyph unicode="k" horiz-adv-x="1144" d="M150 0v1458h266v-827l354 436h322l-381 -430l409 -637h-329l-263 444l-112 -127v-317h-266z" />
<glyph unicode="l" horiz-adv-x="665" d="M139 305v1153h267v-1136q0 -49 22 -73t72 -24h102v-225h-151q-79 0 -140.5 26t-98 70t-55 97t-18.5 112z" />
<glyph unicode="m" horiz-adv-x="1794" d="M150 0v1067h260v-98q52 53 121.5 81.5t144.5 28.5q182 0 282 -135q68 71 144 103t176 32q79 0 148.5 -25t113.5 -69q117 -117 117 -303v-682h-266v645q0 100 -52.5 147.5t-124.5 47.5q-71 0 -124.5 -46.5t-53.5 -142.5v-651h-266v645q0 100 -52 147.5t-124 47.5 q-73 0 -125.5 -47.5t-52.5 -147.5v-645h-266z" />
<glyph unicode="n" horiz-adv-x="1173" d="M150 0v1067h260v-98q104 110 266 110q158 0 252 -94q61 -61 84.5 -134t23.5 -169v-682h-266v645q0 100 -52 147.5t-124 47.5q-73 0 -125.5 -47.5t-52.5 -147.5v-645h-266z" />
<glyph unicode="o" d="M104 535q0 152 26 245.5t95 167.5q127 131 330 131q208 0 332 -131q69 -74 95 -167.5t26 -245.5q0 -154 -25.5 -249t-95.5 -167q-127 -131 -332 -131q-203 0 -330 131q-69 74 -95 169t-26 247zM371 535q0 -99 11.5 -162t49.5 -99q47 -47 123 -47q78 0 125 47 q38 36 49.5 99t11.5 162q0 98 -11.5 160t-49.5 98q-47 47 -125 47q-76 0 -123 -47q-38 -36 -49.5 -98t-11.5 -160z" />
<glyph unicode="p" horiz-adv-x="1146" d="M150 -391v1458h258v-100q55 61 117 86.5t149 25.5q78 0 146 -25t112 -71q69 -70 89.5 -176.5t20.5 -271.5t-20.5 -273t-89.5 -178q-44 -46 -112 -71t-146 -25q-166 0 -258 106v-485h-266zM416 535q0 -58 3.5 -99t14 -83t30 -68t52.5 -42t80 -16t80 16t52.5 42t30 68 t14 83t3.5 99t-3.5 98.5t-14 82.5t-30 67t-52.5 41t-80 16t-80 -16t-52.5 -41t-30 -67t-14 -82.5t-3.5 -98.5z" />
<glyph unicode="q" horiz-adv-x="1148" d="M104 535q0 163 21 270t90 178q93 96 260 96q86 0 147.5 -25.5t116.5 -86.5v100h260v-1458h-266v485q-51 -57 -113.5 -81.5t-146.5 -24.5q-165 0 -258 96q-69 70 -90 178.5t-21 272.5zM371 535q0 -58 3.5 -99t14 -83t30 -68t52.5 -42t80 -16q58 0 95.5 22.5t55.5 68 t24.5 95t6.5 122.5q0 57 -3.5 98.5t-14.5 82.5t-30.5 66.5t-53 41.5t-80.5 16t-80 -16t-52.5 -41t-30 -67t-14 -82.5t-3.5 -98.5z" />
<glyph unicode="r" horiz-adv-x="931" d="M150 0v1067h260v-102q41 49 113.5 81.5t154.5 32.5q80 0 139 -23t113 -77l-201 -203q-34 34 -64.5 49t-76.5 15q-68 0 -120 -51t-52 -146v-643h-266z" />
<glyph unicode="s" horiz-adv-x="1026" d="M45 141l174 174q98 -100 285 -100q78 0 133 27.5t55 83.5q0 43 -25.5 67.5t-86.5 30.5l-172 16q-308 29 -308 299q0 107 58.5 186t150.5 116.5t203 37.5q272 0 408 -125l-164 -166q-80 72 -248 72q-75 0 -113.5 -29.5t-38.5 -72.5q0 -41 26 -63.5t85 -28.5l168 -17 q157 -15 237 -95t80 -218q0 -86 -35 -153.5t-97 -109.5t-143 -63.5t-177 -21.5q-148 0 -254.5 30t-200.5 123z" />
<glyph unicode="t" horiz-adv-x="720" d="M61 834v202h113v316h266v-316h189v-202h-189v-512q0 -97 92 -97h97v-225h-146q-78 0 -139 26t-97 70t-54.5 97t-18.5 112v529h-113z" />
<glyph unicode="u" horiz-adv-x="1173" d="M137 385v682h266v-645q0 -100 52.5 -147.5t124.5 -47.5q73 0 125.5 47.5t52.5 147.5v645h266v-1067h-260v98q-104 -110 -266 -110q-158 0 -252 94q-61 61 -85 134.5t-24 168.5z" />
<glyph unicode="v" horiz-adv-x="1009" d="M8 1067h281l217 -659l215 659h280l-391 -1067h-209z" />
<glyph unicode="w" horiz-adv-x="1554" d="M8 1067h283l172 -659l217 659h194l220 -659l172 659h280l-325 -1067h-220l-223 670l-223 -670h-219z" />
<glyph unicode="x" horiz-adv-x="1079" d="M25 0l368 545l-354 522h319l181 -305l182 305h319l-354 -522l369 -545h-320l-196 319l-195 -319h-319z" />
<glyph unicode="y" horiz-adv-x="1011" d="M8 1067h281l221 -659l213 659h281l-457 -1239q-36 -93 -80 -137q-82 -82 -229 -82h-105v239h62q58 0 85.5 19.5t47.5 77.5l45 131z" />
<glyph unicode="z" horiz-adv-x="978" d="M76 0v203l473 624h-447v240h787v-203l-479 -624h479v-240h-813z" />
<glyph unicode="{" horiz-adv-x="935" d="M88 610v238h94q68 0 107 39q35 35 35 123v297q0 141 86 227q76 76 229 76h209v-240h-109q-87 0 -116 -29q-33 -36 -33 -131v-276q0 -52 -13.5 -90.5t-38.5 -61t-43.5 -33t-45.5 -20.5q27 -10 45.5 -20.5t43.5 -33t38.5 -61t13.5 -90.5v-276q0 -95 33 -131q29 -29 116 -29 h109v-240h-209q-153 0 -229 76q-86 86 -86 228v297q0 87 -35 122q-39 39 -107 39h-94z" />
<glyph unicode="|" horiz-adv-x="716" d="M225 -152v1762h267v-1762h-267z" />
<glyph unicode="}" horiz-adv-x="935" d="M88 88h109q87 0 116 29q33 36 33 131v276q0 52 13.5 90.5t38.5 61t43.5 33t45.5 20.5q-27 10 -45.5 20.5t-43.5 33t-38.5 61t-13.5 90.5v276q0 95 -33 131q-29 29 -116 29h-109v240h209q153 0 229 -76q86 -86 86 -227v-297q0 -88 35 -123q39 -39 107 -39h94v-238h-94 q-68 0 -107 -39q-35 -35 -35 -122v-297q0 -142 -86 -228q-76 -76 -229 -76h-209v240z" />
<glyph unicode="~" horiz-adv-x="1241" d="M76 600q97 97 170.5 136.5t165.5 39.5q110 0 239 -69q95 -50 166 -50q47 0 86 16.5t92 69.5l170 -168q-97 -97 -171.5 -136.5t-166.5 -39.5q-108 0 -239 70q-93 49 -168 49q-47 0 -85 -16.5t-91 -69.5z" />
<glyph unicode="&#xa1;" horiz-adv-x="710" d="M154 -391l65 1001h199l65 -1001h-329zM178 795v272h281v-272h-281z" />
<glyph unicode="&#xa2;" horiz-adv-x="1021" d="M96 750q0 227 104.5 363.5t274.5 170.5v174h207v-174q159 -28 279 -154l-177 -172q-64 67 -131 84v-585q67 17 131 84l177 -172q-120 -126 -279 -154v-215h-207v215q-170 34 -274.5 171t-104.5 364zM362 750q0 -156 64 -236q30 -41 78 -53v577q-45 -12 -78 -53 q-64 -80 -64 -235z" />
<glyph unicode="&#xa3;" horiz-adv-x="1185" d="M82 608v205h125v166q0 117 42 212t114 155t163.5 92t194.5 32q120 0 206 -34t167 -115l-187 -186q-41 41 -81.5 61.5t-104.5 20.5q-107 0 -169.5 -63.5t-62.5 -186.5v-154h232v-205h-232v-354h605v-254h-887v608h-125z" />
<glyph unicode="&#xa4;" horiz-adv-x="1370" d="M119 197l151 149q-67 114 -67 240q0 125 67 239l-151 150l176 176l151 -150q113 66 238 66q127 0 240 -66l151 150l174 -176l-149 -150q65 -111 65 -239q0 -129 -65 -240l149 -149l-174 -177l-151 150q-113 -66 -240 -66q-125 0 -238 66l-151 -150zM444 586 q0 -100 70 -170t170 -70t171 70t71 170q0 99 -71 169t-171 70t-170 -69.5t-70 -169.5z" />
<glyph unicode="&#xa5;" horiz-adv-x="1169" d="M6 1458h309l271 -590l270 590h307l-278 -553h151v-205h-256l-53 -102v-104h309v-205h-309v-289h-283v289h-311v205h311v104l-53 102h-258v205h154z" />
<glyph unicode="&#xa6;" horiz-adv-x="722" d="M225 -152v717h267v-717h-267zM225 893v717h267v-717h-267z" />
<glyph unicode="&#xa7;" horiz-adv-x="1087" d="M125 543q0 104 57.5 185.5t128.5 119.5q-155 81 -155 268q0 70 24.5 133t71.5 113t124 79t173 29q192 0 291.5 -98t101.5 -254h-250q-6 125 -143 125q-69 0 -106 -33.5t-37 -87.5q0 -90 137 -135l127 -41q153 -49 226 -138.5t73 -246.5q0 -103 -57.5 -184t-127.5 -121 q166 -83 166 -285q0 -91 -34.5 -164t-92 -118t-129 -68.5t-149.5 -23.5q-61 0 -118.5 12.5t-110 41t-91.5 70t-63 103t-25 137.5h256q3 -58 43.5 -93.5t108.5 -35.5q70 0 109.5 36t39.5 95q0 104 -143 152l-127 43q-154 52 -226.5 140t-72.5 245zM381 551q0 -88 49 -137 q43 -43 117 -43q72 0 115 43q51 51 51 137q0 88 -51 139q-46 43 -115 43q-74 0 -117 -43q-49 -49 -49 -139z" />
<glyph unicode="&#xa8;" horiz-adv-x="1024" d="M172 1241v256h227v-256h-227zM625 1241v256h227v-256h-227z" />
<glyph unicode="&#xa9;" horiz-adv-x="1728" d="M123 729q0 151 58.5 288.5t157.5 236.5t236.5 157.5t288.5 58.5q202 0 372.5 -99t270 -269.5t99.5 -372.5t-99.5 -372.5t-270 -269.5t-372.5 -99q-151 0 -288.5 58.5t-236.5 157.5t-157.5 236.5t-58.5 288.5zM299 729q0 -162 75 -294t204 -206.5t286 -74.5t286 74.5 t203 206.5t74 294q0 122 -43.5 229t-118.5 183t-179.5 120t-221.5 44t-221.5 -44t-180 -120t-119.5 -183t-44 -229zM512 729q0 190 103.5 297t263.5 107q82 0 144.5 -27t125.5 -82l-115 -115q-42 36 -76 51t-79 15q-95 0 -144 -65.5t-49 -180.5t49 -180.5t144 -65.5 q45 0 79 15t76 51l115 -115q-118 -106 -270 -106q-160 0 -263.5 105.5t-103.5 295.5z" />
<glyph unicode="&#xaa;" horiz-adv-x="929" d="M98 864q0 108 74.5 178t216.5 70h199v41q0 70 -37 101.5t-121 31.5q-59 0 -93.5 -15t-68.5 -54l-137 133q61 67 130.5 92.5t178.5 25.5q179 0 271 -76t92 -225v-561h-211v74q-44 -44 -90 -63t-117 -19q-140 0 -215 78q-72 72 -72 188zM307 870q0 -44 29.5 -69t87.5 -25 q48 0 78 8t55 31q31 27 31 105v47h-166q-56 0 -85.5 -26.5t-29.5 -70.5z" />
<glyph unicode="&#xab;" horiz-adv-x="1286" d="M70 563l510 508v-317l-193 -191l193 -190v-318zM639 563l512 508v-317l-197 -191l197 -190v-318z" />
<glyph unicode="&#xac;" d="M94 489v248h924v-544h-248v296h-676z" />
<glyph unicode="&#xad;" horiz-adv-x="872" d="M121 461v248h631v-248h-631z" />
<glyph unicode="&#xae;" horiz-adv-x="1728" d="M123 729q0 151 58.5 288.5t157.5 236.5t236.5 157.5t288.5 58.5q202 0 372.5 -99t270 -269.5t99.5 -372.5t-99.5 -372.5t-270 -269.5t-372.5 -99q-151 0 -288.5 58.5t-236.5 157.5t-157.5 236.5t-58.5 288.5zM299 729q0 -162 74.5 -294t203.5 -206.5t287 -74.5 q240 0 403 164.5t163 410.5q0 122 -44 229t-119 183t-180 120t-223 44q-158 0 -287 -74.5t-203.5 -207t-74.5 -294.5zM594 336v788h321q117 0 190 -72.5t73 -174.5q0 -76 -41.5 -129.5t-104.5 -79.5l166 -332h-201l-143 305h-84v-305h-176zM770 774h123q48 0 78 30t30 73 t-30 72.5t-78 29.5h-123v-205z" />
<glyph unicode="&#xaf;" horiz-adv-x="1024" d="M186 1276v180h650v-180h-650z" />
<glyph unicode="&#xb0;" horiz-adv-x="978" d="M113 1110q0 157 110 268t266 111q157 0 267 -111t110 -268t-110 -267t-267 -110t-266.5 110t-109.5 267zM328 1110q0 -69 46.5 -116.5t114.5 -47.5t115 47.5t47 116.5t-48 116.5t-116 47.5q-67 0 -113 -47.5t-46 -116.5z" />
<glyph unicode="&#xb1;" d="M102 0v250h908v-250h-908zM102 698v248h330v330h250v-330h328v-248h-328v-329h-250v329h-330z" />
<glyph unicode="&#xb2;" horiz-adv-x="679" d="M70 584v174l319 350q45 48 45 96q0 40 -22.5 64t-63.5 24q-37 0 -61.5 -20.5t-24.5 -69.5h-192q0 123 79 193.5t199 70.5q123 0 201 -70.5t78 -191.5q0 -62 -24.5 -105.5t-82.5 -107.5l-215 -233h322v-174h-557z" />
<glyph unicode="&#xb3;" horiz-adv-x="679" d="M57 846h193q0 -47 27 -72.5t69 -25.5q44 0 70 26.5t26 75.5q0 43 -27.5 70.5t-72.5 27.5h-27v166h27q44 0 67 26t23 62q0 42 -25 66t-61 24q-37 0 -61.5 -23t-24.5 -63h-192q0 118 79.5 189t198.5 71q121 0 200 -72.5t79 -185.5q0 -115 -93 -172q103 -67 103 -192 q0 -130 -83 -199.5t-206 -69.5q-56 0 -106.5 15.5t-92 47t-66 85t-24.5 123.5z" />
<glyph unicode="&#xb4;" horiz-adv-x="1024" d="M399 1237l131 348h281l-233 -348h-179z" />
<glyph unicode="&#xb5;" horiz-adv-x="1179" d="M143 -391v1458h267v-645q0 -100 52 -147.5t124 -47.5q73 0 125.5 47.5t52.5 147.5v645h266v-1067h-260v98q-104 -110 -266 -110q-55 0 -94 28v-407h-267z" />
<glyph unicode="&#xb6;" horiz-adv-x="1368" d="M72 1042q0 198 128.5 307t344.5 109h653v-1849h-266v1595h-205v-1595h-266v1022q-155 0 -272 121.5t-117 289.5z" />
<glyph unicode="&#xb7;" horiz-adv-x="583" d="M139 434v303h305v-303h-305z" />
<glyph unicode="&#xb8;" horiz-adv-x="1024" d="M328 -422l141 299h197l-91 -299h-247z" />
<glyph unicode="&#xb9;" horiz-adv-x="679" d="M111 1081v217l184 160h194v-874h-194v657z" />
<glyph unicode="&#xba;" horiz-adv-x="946" d="M113 1032q0 121 21 197t77 135q100 104 262 104t262 -104q56 -59 77.5 -135t21.5 -197q0 -122 -21 -196t-78 -134q-100 -104 -262 -104t-262 104q-56 59 -77 133.5t-21 196.5zM328 1032q0 -78 9 -127t38 -78q36 -36 98 -36t98 36q29 29 38 78t9 127t-9 128t-38 79 q-37 37 -98 37t-98 -37q-29 -29 -38 -79t-9 -128z" />
<glyph unicode="&#xbb;" horiz-adv-x="1286" d="M137 55v318l195 190l-195 191v317l510 -508zM707 55v318l192 190l-192 191v317l512 -508z" />
<glyph unicode="&#xbc;" horiz-adv-x="1785" d="M111 1081v217l184 160h194v-874h-194v657zM444 0l691 1458h206l-690 -1458h-207zM1143 117v182l293 575h211l-295 -575h151v127h185v-127h67v-182h-67v-117h-185v117h-360z" />
<glyph unicode="&#xbd;" horiz-adv-x="1785" d="M111 1081v217l184 160h194v-874h-194v657zM444 0l691 1458h206l-690 -1458h-207zM1176 0v174l319 350q45 48 45 97q0 40 -22.5 64t-63.5 24q-36 0 -61 -21t-25 -70h-192q0 123 79 194t199 71q123 0 201 -70.5t78 -191.5q0 -62 -24.5 -105.5t-82.5 -107.5l-215 -234h322 v-174h-557z" />
<glyph unicode="&#xbe;" horiz-adv-x="1785" d="M57 846h193q0 -47 27 -72.5t69 -25.5q44 0 70 26.5t26 75.5q0 43 -27.5 70.5t-72.5 27.5h-27v166h27q44 0 67 26t23 62q0 42 -25 66t-61 24q-37 0 -61.5 -23t-24.5 -63h-192q0 118 79.5 189t198.5 71q121 0 200 -72.5t79 -185.5q0 -115 -93 -172q103 -67 103 -192 q0 -130 -83 -199.5t-206 -69.5q-56 0 -106.5 15.5t-92 47t-66 85t-24.5 123.5zM444 0l691 1458h206l-690 -1458h-207zM1143 117v182l293 575h211l-295 -575h151v127h185v-127h67v-182h-67v-117h-185v117h-360z" />
<glyph unicode="&#xbf;" horiz-adv-x="1071" d="M74 6q0 123 100 256l152 203q36 49 36 104v41h267v-61q0 -63 -18 -110.5t-60 -102.5l-152 -195q-59 -77 -59 -137q0 -74 44.5 -121t119.5 -47q79 0 122.5 49t43.5 123h266q0 -124 -58.5 -218.5t-156 -143.5t-217.5 -49q-117 0 -213.5 47t-156.5 141.5t-60 220.5zM354 795 v272h283v-272h-283z" />
<glyph unicode="&#xc0;" horiz-adv-x="1306" d="M10 0l531 1458h223l532 -1458h-297l-86 258h-518l-88 -258h-297zM350 1948h281l131 -349h-178zM475 498h363l-179 530z" />
<glyph unicode="&#xc1;" horiz-adv-x="1306" d="M10 0l531 1458h223l532 -1458h-297l-86 258h-518l-88 -258h-297zM475 498h363l-179 530zM537 1599l131 349h280l-233 -349h-178z" />
<glyph unicode="&#xc2;" horiz-adv-x="1306" d="M10 0l531 1458h223l532 -1458h-297l-86 258h-518l-88 -258h-297zM272 1599l271 347h213l270 -347h-207l-170 187l-170 -187h-207zM475 498h363l-179 530z" />
<glyph unicode="&#xc3;" horiz-adv-x="1306" d="M10 0l531 1458h223l532 -1458h-297l-86 258h-518l-88 -258h-297zM279 1759q66 67 117.5 94t111.5 27q81 0 158 -47q61 -37 112 -37q32 0 58 11t63 48l119 -116q-67 -67 -120 -94t-112 -27q-82 0 -159 47q-63 37 -115 37q-30 0 -56 -11.5t-63 -48.5zM475 498h363l-179 530 z" />
<glyph unicode="&#xc4;" horiz-adv-x="1306" d="M10 0l531 1458h223l532 -1458h-297l-86 258h-518l-88 -258h-297zM313 1604v256h228v-256h-228zM475 498h363l-179 530zM766 1604v256h227v-256h-227z" />
<glyph unicode="&#xc5;" horiz-adv-x="1306" d="M10 0l531 1458h223l532 -1458h-297l-86 258h-518l-88 -258h-297zM381 1810q0 110 79 189.5t189 79.5q111 0 190 -78.5t79 -190.5q0 -110 -79.5 -189t-189.5 -79t-189 79t-79 189zM475 498h363l-179 530zM530 1810q0 -50 35 -85t84 -35t84 35t35 85t-35 84.5t-84 34.5 t-84 -34.5t-35 -84.5z" />
<glyph unicode="&#xc6;" horiz-adv-x="2004" d="M6 0l762 1458h1128v-254h-675v-344h577v-254h-577v-352h675v-254h-958v319h-461l-166 -319h-305zM600 559h338v645z" />
<glyph unicode="&#xc7;" horiz-adv-x="1269" d="M121 729q0 87 1 132t5 110.5t13 104t25 85t41.5 83.5t61.5 73q156 153 391 153q210 0 353 -118.5t182 -341.5h-291q-23 96 -83 151.5t-161 55.5q-116 0 -182 -76q-41 -47 -56 -128t-15 -284t15 -284t56 -128q65 -75 182 -75q101 0 162 56t84 151h289q-39 -223 -183 -342 t-352 -119q-235 0 -391 153q-36 36 -61.5 73t-41.5 83.5t-25 85t-13 104t-5 110.5t-1 132zM438 -422l142 299h196l-90 -299h-248z" />
<glyph unicode="&#xc8;" horiz-adv-x="1239" d="M170 0v1458h960v-254h-675v-342h575v-254h-575v-354h675v-254h-960zM336 1948h280l132 -349h-179z" />
<glyph unicode="&#xc9;" horiz-adv-x="1239" d="M170 0v1458h960v-254h-675v-342h575v-254h-575v-354h675v-254h-960zM520 1599l131 349h281l-234 -349h-178z" />
<glyph unicode="&#xca;" horiz-adv-x="1239" d="M170 0v1458h960v-254h-675v-342h575v-254h-575v-354h675v-254h-960zM258 1599l270 347h213l271 -347h-207l-170 187l-170 -187h-207z" />
<glyph unicode="&#xcb;" horiz-adv-x="1239" d="M170 0v1458h960v-254h-675v-342h575v-254h-575v-354h675v-254h-960zM295 1604v256h227v-256h-227zM748 1604v256h227v-256h-227z" />
<glyph unicode="&#xcc;" horiz-adv-x="624" d="M43 1948h281l131 -349h-179zM170 0v1458h285v-1458h-285z" />
<glyph unicode="&#xcd;" horiz-adv-x="624" d="M170 0v1458h285v-1458h-285zM170 1599l131 349h281l-234 -349h-178z" />
<glyph unicode="&#xce;" horiz-adv-x="624" d="M-66 1599l271 347h213l270 -347h-207l-170 187l-170 -187h-207zM170 0v1458h285v-1458h-285z" />
<glyph unicode="&#xcf;" horiz-adv-x="624" d="M-27 1604v256h228v-256h-228zM170 0v1458h285v-1458h-285zM426 1604v256h227v-256h-227z" />
<glyph unicode="&#xd0;" horiz-adv-x="1396" d="M76 627v217h141v614h526q149 0 256 -52t185 -161q62 -86 77 -193.5t15 -322.5t-15 -322.5t-77 -193.5q-78 -109 -185 -161t-256 -52h-526v627h-141zM502 254h217q141 0 213 90q38 45 48.5 123t10.5 262t-10.5 262t-48.5 123q-72 90 -213 90h-217v-360h237v-217h-237v-373 z" />
<glyph unicode="&#xd1;" horiz-adv-x="1456" d="M170 0v1458h254l577 -893v893h285v-1458h-254l-577 895v-895h-285zM358 1759q65 67 117 94t113 27q80 0 157 -47q61 -37 113 -37q32 0 58 11t63 48l119 -116q-67 -67 -120 -94t-112 -27q-82 0 -159 47q-63 37 -115 37q-30 0 -56 -11.5t-63 -48.5z" />
<glyph unicode="&#xd2;" horiz-adv-x="1318" d="M121 729q0 87 1 132t5 110.5t13 104t25 85t41.5 83.5t61.5 73q153 153 391 153q237 0 390 -153q43 -43 71.5 -92.5t44 -94.5t23 -117.5t9 -127t1.5 -156.5t-1.5 -156.5t-9 -127t-23 -117.5t-44 -94.5t-71.5 -92.5q-153 -153 -390 -153q-238 0 -391 153q-36 36 -61.5 73 t-41.5 83.5t-25 85t-13 104t-5 110.5t-1 132zM360 1948h281l131 -349h-178zM406 729q0 -204 14 -282t55 -125q73 -80 184 -80q113 0 183 80q41 48 56 126.5t15 280.5t-15 282t-56 128q-68 78 -183 78q-113 0 -184 -78q-41 -47 -55 -126.5t-14 -283.5z" />
<glyph unicode="&#xd3;" horiz-adv-x="1318" d="M121 729q0 87 1 132t5 110.5t13 104t25 85t41.5 83.5t61.5 73q153 153 391 153q237 0 390 -153q43 -43 71.5 -92.5t44 -94.5t23 -117.5t9 -127t1.5 -156.5t-1.5 -156.5t-9 -127t-23 -117.5t-44 -94.5t-71.5 -92.5q-153 -153 -390 -153q-238 0 -391 153q-36 36 -61.5 73 t-41.5 83.5t-25 85t-13 104t-5 110.5t-1 132zM406 729q0 -204 14 -282t55 -125q73 -80 184 -80q113 0 183 80q41 48 56 126.5t15 280.5t-15 282t-56 128q-68 78 -183 78q-113 0 -184 -78q-41 -47 -55 -126.5t-14 -283.5zM547 1599l131 349h280l-233 -349h-178z" />
<glyph unicode="&#xd4;" horiz-adv-x="1318" d="M121 729q0 87 1 132t5 110.5t13 104t25 85t41.5 83.5t61.5 73q153 153 391 153q237 0 390 -153q43 -43 71.5 -92.5t44 -94.5t23 -117.5t9 -127t1.5 -156.5t-1.5 -156.5t-9 -127t-23 -117.5t-44 -94.5t-71.5 -92.5q-153 -153 -390 -153q-238 0 -391 153q-36 36 -61.5 73 t-41.5 83.5t-25 85t-13 104t-5 110.5t-1 132zM283 1599l270 347h213l270 -347h-207l-170 187l-170 -187h-206zM406 729q0 -204 14 -282t55 -125q73 -80 184 -80q113 0 183 80q41 48 56 126.5t15 280.5t-15 282t-56 128q-68 78 -183 78q-113 0 -184 -78q-41 -47 -55 -126.5 t-14 -283.5z" />
<glyph unicode="&#xd5;" horiz-adv-x="1318" d="M121 729q0 87 1 132t5 110.5t13 104t25 85t41.5 83.5t61.5 73q153 153 391 153q237 0 390 -153q43 -43 71.5 -92.5t44 -94.5t23 -117.5t9 -127t1.5 -156.5t-1.5 -156.5t-9 -127t-23 -117.5t-44 -94.5t-71.5 -92.5q-153 -153 -390 -153q-238 0 -391 153q-36 36 -61.5 73 t-41.5 83.5t-25 85t-13 104t-5 110.5t-1 132zM289 1759q66 67 117.5 94t111.5 27q81 0 158 -47q61 -37 112 -37q32 0 58 11t63 48l119 -116q-67 -67 -119.5 -94t-111.5 -27q-83 0 -160 47q-63 37 -115 37q-30 0 -56 -11.5t-63 -48.5zM406 729q0 -204 14 -282t55 -125 q73 -80 184 -80q113 0 183 80q41 48 56 126.5t15 280.5t-15 282t-56 128q-68 78 -183 78q-113 0 -184 -78q-41 -47 -55 -126.5t-14 -283.5z" />
<glyph unicode="&#xd6;" horiz-adv-x="1318" d="M121 729q0 87 1 132t5 110.5t13 104t25 85t41.5 83.5t61.5 73q153 153 391 153q237 0 390 -153q43 -43 71.5 -92.5t44 -94.5t23 -117.5t9 -127t1.5 -156.5t-1.5 -156.5t-9 -127t-23 -117.5t-44 -94.5t-71.5 -92.5q-153 -153 -390 -153q-238 0 -391 153q-36 36 -61.5 73 t-41.5 83.5t-25 85t-13 104t-5 110.5t-1 132zM319 1604v256h228v-256h-228zM406 729q0 -204 14 -282t55 -125q73 -80 184 -80q113 0 183 80q41 48 56 126.5t15 280.5t-15 282t-56 128q-68 78 -183 78q-113 0 -184 -78q-41 -47 -55 -126.5t-14 -283.5zM772 1604v256h227v-256 h-227z" />
<glyph unicode="&#xd7;" d="M100 297l289 289l-289 288l168 168l287 -288l289 288l168 -168l-289 -288l289 -289l-168 -168l-289 289l-287 -289z" />
<glyph unicode="&#xd8;" horiz-adv-x="1318" d="M121 729q0 87 1 132t5 110.5t13 104t25 85t41.5 83.5t61.5 73q153 153 391 153q126 0 232 -45l59 123h201l-109 -225l7 -6q43 -43 71.5 -92.5t44 -94.5t23 -117.5t9 -127t1.5 -156.5t-1.5 -156.5t-9 -127t-23 -117.5t-44 -94.5t-71.5 -92.5q-153 -153 -390 -153 q-133 0 -231 43l-59 -121h-203l108 225l-6 6q-36 36 -61.5 73t-41.5 83.5t-25 85t-13 104t-5 110.5t-1 132zM406 729q0 -231 18 -307l364 760q-56 35 -129 35q-113 0 -184 -78q-41 -47 -55 -126.5t-14 -283.5zM528 276q55 -34 131 -34q113 0 183 80q41 48 56 126.5t15 280.5 q0 223 -20 307z" />
<glyph unicode="&#xd9;" horiz-adv-x="1368" d="M147 500v958h285v-948q0 -125 68 -196.5t184 -71.5t185 71.5t69 196.5v948h283v-958q0 -151 -72 -269t-194 -180.5t-271 -62.5t-271 62.5t-194 180.5t-72 269zM385 1948h281l131 -349h-179z" />
<glyph unicode="&#xda;" horiz-adv-x="1368" d="M147 500v958h285v-948q0 -125 68 -196.5t184 -71.5t185 71.5t69 196.5v948h283v-958q0 -151 -72 -269t-194 -180.5t-271 -62.5t-271 62.5t-194 180.5t-72 269zM571 1599l131 349h281l-233 -349h-179z" />
<glyph unicode="&#xdb;" horiz-adv-x="1368" d="M147 500v958h285v-948q0 -125 68 -196.5t184 -71.5t185 71.5t69 196.5v948h283v-958q0 -151 -72 -269t-194 -180.5t-271 -62.5t-271 62.5t-194 180.5t-72 269zM307 1599l271 347h213l270 -347h-207l-170 187l-170 -187h-207z" />
<glyph unicode="&#xdc;" horiz-adv-x="1368" d="M147 500v958h285v-948q0 -125 68 -196.5t184 -71.5t185 71.5t69 196.5v948h283v-958q0 -151 -72 -269t-194 -180.5t-271 -62.5t-271 62.5t-194 180.5t-72 269zM344 1604v256h227v-256h-227zM797 1604v256h227v-256h-227z" />
<glyph unicode="&#xdd;" horiz-adv-x="1171" d="M6 1458h309l273 -588l268 588h309l-438 -860v-598h-283v598zM471 1599l131 349h281l-234 -349h-178z" />
<glyph unicode="&#xde;" horiz-adv-x="1296" d="M170 0v1458h285v-268h280q219 0 350.5 -130.5t131.5 -322.5t-131.5 -323t-350.5 -131h-280v-283h-285zM455 537h266q96 0 153.5 55t57.5 145t-57.5 144.5t-153.5 54.5h-266v-399z" />
<glyph unicode="&#xdf;" horiz-adv-x="1175" d="M150 0v1067q0 204 125 303.5t335 99.5q203 0 324 -89.5t121 -268.5q0 -154 -125 -231q62 -30 94.5 -81.5t32.5 -142.5v-327q0 -157 -84 -244q-83 -86 -258 -86h-107v225h54q54 0 90 31q36 29 36 96v295q0 62 -30 92q-29 33 -92 33h-58v209h58q53 0 87.5 31t34.5 92 q0 59 -38 94q-47 41 -144 41q-103 0 -146.5 -48.5t-43.5 -143.5v-1047h-266z" />
<glyph unicode="&#xe0;" horiz-adv-x="1093" d="M74 324q0 135 94 222t274 87h248v53q0 88 -46.5 128t-151.5 40q-71 0 -116 -21t-89 -71l-168 166q77 85 162.5 118t220.5 33q454 0 454 -377v-702h-260v92q-55 -55 -113.5 -78.5t-148.5 -23.5q-178 0 -272 94q-88 91 -88 240zM236 1585h280l131 -348h-178zM330 328 q0 -57 40.5 -89t121.5 -32q54 0 89.5 10.5t67.5 40.5q41 36 41 135v58h-203q-157 0 -157 -123z" />
<glyph unicode="&#xe1;" horiz-adv-x="1093" d="M74 324q0 135 94 222t274 87h248v53q0 88 -46.5 128t-151.5 40q-71 0 -116 -21t-89 -71l-168 166q77 85 162.5 118t220.5 33q454 0 454 -377v-702h-260v92q-55 -55 -113.5 -78.5t-148.5 -23.5q-178 0 -272 94q-88 91 -88 240zM330 328q0 -57 40.5 -89t121.5 -32 q54 0 89.5 10.5t67.5 40.5q41 36 41 135v58h-203q-157 0 -157 -123zM422 1237l131 348h281l-234 -348h-178z" />
<glyph unicode="&#xe2;" horiz-adv-x="1093" d="M74 324q0 135 94 222t274 87h248v53q0 88 -46.5 128t-151.5 40q-71 0 -116 -21t-89 -71l-168 166q77 85 162.5 118t220.5 33q454 0 454 -377v-702h-260v92q-55 -55 -113.5 -78.5t-148.5 -23.5q-178 0 -272 94q-88 91 -88 240zM158 1237l270 346h213l270 -346h-206 l-170 186l-170 -186h-207zM330 328q0 -57 40.5 -89t121.5 -32q54 0 89.5 10.5t67.5 40.5q41 36 41 135v58h-203q-157 0 -157 -123z" />
<glyph unicode="&#xe3;" horiz-adv-x="1093" d="M74 324q0 135 94 222t274 87h248v53q0 88 -46.5 128t-151.5 40q-71 0 -116 -21t-89 -71l-168 166q77 85 162.5 118t220.5 33q454 0 454 -377v-702h-260v92q-55 -55 -113.5 -78.5t-148.5 -23.5q-178 0 -272 94q-88 91 -88 240zM154 1397q66 66 117.5 92.5t111.5 26.5 q46 0 81 -10t79 -36q59 -38 112 -38q31 0 57 11.5t62 47.5l119 -117q-67 -67 -118.5 -93t-112.5 -26q-80 0 -158 45q-63 37 -115 37q-32 0 -57.5 -10.5t-61.5 -46.5zM330 328q0 -57 40.5 -89t121.5 -32q54 0 89.5 10.5t67.5 40.5q41 36 41 135v58h-203q-157 0 -157 -123z " />
<glyph unicode="&#xe4;" horiz-adv-x="1093" d="M74 324q0 135 94 222t274 87h248v53q0 88 -46.5 128t-151.5 40q-71 0 -116 -21t-89 -71l-168 166q77 85 162.5 118t220.5 33q454 0 454 -377v-702h-260v92q-55 -55 -113.5 -78.5t-148.5 -23.5q-178 0 -272 94q-88 91 -88 240zM197 1241v256h227v-256h-227zM330 328 q0 -57 40.5 -89t121.5 -32q54 0 89.5 10.5t67.5 40.5q41 36 41 135v58h-203q-157 0 -157 -123zM649 1241v256h228v-256h-228z" />
<glyph unicode="&#xe5;" horiz-adv-x="1093" d="M74 324q0 135 94 222t274 87h248v53q0 88 -46.5 128t-151.5 40q-71 0 -116 -21t-89 -71l-168 166q77 85 162.5 118t220.5 33q454 0 454 -377v-702h-260v92q-55 -55 -113.5 -78.5t-148.5 -23.5q-178 0 -272 94q-88 91 -88 240zM266 1464q0 110 79.5 189.5t189.5 79.5 q111 0 189.5 -78.5t78.5 -190.5q0 -110 -79 -189t-189 -79t-189.5 79t-79.5 189zM330 328q0 -57 40.5 -89t121.5 -32q54 0 89.5 10.5t67.5 40.5q41 36 41 135v58h-203q-157 0 -157 -123zM416 1464q0 -50 35 -85.5t84 -35.5t83.5 35.5t34.5 85.5t-34.5 84.5t-83.5 34.5 t-84 -34.5t-35 -84.5z" />
<glyph unicode="&#xe6;" horiz-adv-x="1716" d="M74 324q0 135 94 222t274 87h248v53q0 88 -46.5 128t-151.5 40q-71 0 -116 -21t-89 -71l-168 166q77 85 162.5 118t220.5 33q243 0 350 -116q110 116 303 116q219 0 342 -142t123 -374v-112h-668q0 -107 61.5 -172.5t172.5 -65.5q83 0 134.5 23t106.5 77l162 -157 q-87 -88 -177 -128t-228 -40q-247 0 -375 149q-79 -85 -160 -117t-215 -32q-176 0 -272 96q-88 91 -88 240zM330 328q0 -57 40.5 -89t121.5 -32q54 0 89.5 10.5t67.5 40.5q41 36 41 135v58h-203q-157 0 -157 -123zM952 633h406q-3 67 -25 115q-21 50 -67 80t-111 30 t-111 -30t-67 -80q-22 -48 -25 -115z" />
<glyph unicode="&#xe7;" horiz-adv-x="983" d="M96 535q0 125 29.5 222t76.5 156.5t111.5 98t127.5 53t132 14.5q216 0 353 -143l-181 -180q-42 45 -81 64.5t-91 19.5q-93 0 -151 -70q-60 -75 -60 -235q0 -163 60 -238q58 -70 151 -70q52 0 91 19.5t81 64.5l181 -178q-139 -145 -353 -145q-68 0 -131.5 15t-128 54 t-111.5 98.5t-76.5 157t-29.5 222.5zM328 -422l141 299h197l-91 -299h-247z" />
<glyph unicode="&#xe8;" horiz-adv-x="1122" d="M96 535q0 257 127 400.5t338 143.5q219 0 342 -142t123 -374v-112h-668q0 -107 61.5 -172.5t172.5 -65.5q83 0 135 23.5t107 76.5l161 -157q-87 -88 -177 -128t-228 -40q-80 0 -148.5 15t-134 53.5t-111 99t-73 157.5t-27.5 222zM268 1585h281l131 -348h-178zM358 633 h406q-3 67 -25 115q-51 110 -178 110t-178 -110q-22 -48 -25 -115z" />
<glyph unicode="&#xe9;" horiz-adv-x="1122" d="M96 535q0 257 127 400.5t338 143.5q219 0 342 -142t123 -374v-112h-668q0 -107 61.5 -172.5t172.5 -65.5q83 0 135 23.5t107 76.5l161 -157q-87 -88 -177 -128t-228 -40q-80 0 -148.5 15t-134 53.5t-111 99t-73 157.5t-27.5 222zM358 633h406q-3 67 -25 115 q-51 110 -178 110t-178 -110q-22 -48 -25 -115zM455 1237l131 348h280l-233 -348h-178z" />
<glyph unicode="&#xea;" horiz-adv-x="1122" d="M96 535q0 257 127 400.5t338 143.5q219 0 342 -142t123 -374v-112h-668q0 -107 61.5 -172.5t172.5 -65.5q83 0 135 23.5t107 76.5l161 -157q-87 -88 -177 -128t-228 -40q-80 0 -148.5 15t-134 53.5t-111 99t-73 157.5t-27.5 222zM190 1237l271 346h213l270 -346h-207 l-170 186l-170 -186h-207zM358 633h406q-3 67 -25 115q-51 110 -178 110t-178 -110q-22 -48 -25 -115z" />
<glyph unicode="&#xeb;" horiz-adv-x="1122" d="M96 535q0 257 127 400.5t338 143.5q219 0 342 -142t123 -374v-112h-668q0 -107 61.5 -172.5t172.5 -65.5q83 0 135 23.5t107 76.5l161 -157q-87 -88 -177 -128t-228 -40q-80 0 -148.5 15t-134 53.5t-111 99t-73 157.5t-27.5 222zM227 1241v256h228v-256h-228zM358 633 h406q-3 67 -25 115q-51 110 -178 110t-178 -110q-22 -48 -25 -115zM680 1241v256h227v-256h-227z" />
<glyph unicode="&#xec;" horiz-adv-x="563" d="M2 1585h281l131 -348h-178zM150 0v1036h266v-1036h-266z" />
<glyph unicode="&#xed;" horiz-adv-x="563" d="M147 1237l132 348h280l-233 -348h-179zM150 0v1036h266v-1036h-266z" />
<glyph unicode="&#xee;" horiz-adv-x="563" d="M-96 1237l270 346h213l270 -346h-206l-170 186l-170 -186h-207zM150 0v1036h266v-1036h-266z" />
<glyph unicode="&#xef;" horiz-adv-x="563" d="M-57 1241v256h227v-256h-227zM150 0v1036h266v-1036h-266zM395 1241v256h228v-256h-228z" />
<glyph unicode="&#xf0;" d="M115 520q0 147 25 240.5t93 163.5q66 69 183 100q59 16 119 16q24 0 36 -2l-69 127h-234v187h140l-64 123h285l63 -123h189v-187h-95l82 -157q76 -149 101.5 -244.5t25.5 -243.5q0 -149 -25 -241.5t-93 -163.5q-123 -127 -322 -127t-322 127q-68 71 -93 163.5t-25 241.5z M381 520q0 -93 11 -152.5t46 -95.5q45 -45 117 -45q74 0 119 45q35 36 45 94.5t10 153.5t-10 152.5t-45 93.5q-45 45 -119 45q-72 0 -117 -45q-35 -36 -46 -95t-11 -151z" />
<glyph unicode="&#xf1;" horiz-adv-x="1173" d="M150 0v1067h260v-98q104 110 266 110q158 0 252 -94q61 -61 84.5 -134t23.5 -169v-682h-266v645q0 100 -52 147.5t-124 47.5q-73 0 -125.5 -47.5t-52.5 -147.5v-645h-266zM213 1397q66 66 117.5 92.5t111.5 26.5q46 0 81 -10t79 -36q59 -38 113 -38q31 0 57 11.5t62 47.5 l118 -117q-67 -67 -118.5 -93t-112.5 -26q-80 0 -158 45q-63 37 -114 37q-32 0 -57.5 -10.5t-61.5 -46.5z" />
<glyph unicode="&#xf2;" d="M104 535q0 152 26 245.5t95 167.5q127 131 330 131q208 0 332 -131q69 -74 95 -167.5t26 -245.5q0 -154 -25.5 -249t-95.5 -167q-127 -131 -332 -131q-203 0 -330 131q-69 74 -95 169t-26 247zM250 1585h280l132 -348h-179zM371 535q0 -99 11.5 -162t49.5 -99 q47 -47 123 -47q78 0 125 47q38 36 49.5 99t11.5 162q0 98 -11.5 160t-49.5 98q-47 47 -125 47q-76 0 -123 -47q-38 -36 -49.5 -98t-11.5 -160z" />
<glyph unicode="&#xf3;" d="M104 535q0 152 26 245.5t95 167.5q127 131 330 131q208 0 332 -131q69 -74 95 -167.5t26 -245.5q0 -154 -25.5 -249t-95.5 -167q-127 -131 -332 -131q-203 0 -330 131q-69 74 -95 169t-26 247zM371 535q0 -99 11.5 -162t49.5 -99q47 -47 123 -47q78 0 125 47 q38 36 49.5 99t11.5 162q0 98 -11.5 160t-49.5 98q-47 47 -125 47q-76 0 -123 -47q-38 -36 -49.5 -98t-11.5 -160zM444 1237l131 348h281l-233 -348h-179z" />
<glyph unicode="&#xf4;" d="M104 535q0 152 26 245.5t95 167.5q127 131 330 131q208 0 332 -131q69 -74 95 -167.5t26 -245.5q0 -154 -25.5 -249t-95.5 -167q-127 -131 -332 -131q-203 0 -330 131q-69 74 -95 169t-26 247zM180 1237l271 346h213l270 -346h-207l-170 186l-170 -186h-207zM371 535 q0 -99 11.5 -162t49.5 -99q47 -47 123 -47q78 0 125 47q38 36 49.5 99t11.5 162q0 98 -11.5 160t-49.5 98q-47 47 -125 47q-76 0 -123 -47q-38 -36 -49.5 -98t-11.5 -160z" />
<glyph unicode="&#xf5;" d="M104 535q0 152 26 245.5t95 167.5q127 131 330 131q208 0 332 -131q69 -74 95 -167.5t26 -245.5q0 -154 -25.5 -249t-95.5 -167q-127 -131 -332 -131q-203 0 -330 131q-69 74 -95 169t-26 247zM176 1397q66 66 118 92.5t112 26.5q46 0 80.5 -10t78.5 -36q59 -38 113 -38 q31 0 57 11.5t62 47.5l118 -117q-67 -67 -118.5 -93t-112.5 -26q-80 0 -158 45q-63 37 -114 37q-32 0 -57.5 -10.5t-61.5 -46.5zM371 535q0 -99 11.5 -162t49.5 -99q47 -47 123 -47q78 0 125 47q38 36 49.5 99t11.5 162q0 98 -11.5 160t-49.5 98q-47 47 -125 47 q-76 0 -123 -47q-38 -36 -49.5 -98t-11.5 -160z" />
<glyph unicode="&#xf6;" d="M104 535q0 152 26 245.5t95 167.5q127 131 330 131q208 0 332 -131q69 -74 95 -167.5t26 -245.5q0 -154 -25.5 -249t-95.5 -167q-127 -131 -332 -131q-203 0 -330 131q-69 74 -95 169t-26 247zM217 1241v256h227v-256h-227zM371 535q0 -99 11.5 -162t49.5 -99 q47 -47 123 -47q78 0 125 47q38 36 49.5 99t11.5 162q0 98 -11.5 160t-49.5 98q-47 47 -125 47q-76 0 -123 -47q-38 -36 -49.5 -98t-11.5 -160zM670 1241v256h227v-256h-227z" />
<glyph unicode="&#xf7;" d="M94 461v248h924v-248h-924zM424 37v266h266v-266h-266zM424 866v267h266v-267h-266z" />
<glyph unicode="&#xf8;" d="M104 535q0 152 26 246.5t95 166.5q124 131 330 131q127 0 215 -45l72 123h164l-121 -205q73 -81 98 -172.5t25 -244.5q0 -154 -26 -249t-95 -167q-124 -131 -332 -131q-121 0 -213 47l-74 -125h-162l121 207q-72 75 -97.5 169t-25.5 249zM371 535q0 -120 14 -177l270 455 q-46 27 -100 27q-76 0 -123 -47q-38 -38 -49.5 -99t-11.5 -159zM457 254q46 -27 98 -27q78 0 125 47q38 38 49.5 100t11.5 161q0 109 -16 174z" />
<glyph unicode="&#xf9;" horiz-adv-x="1173" d="M137 385v682h266v-645q0 -100 52.5 -147.5t124.5 -47.5q73 0 125.5 47.5t52.5 147.5v645h266v-1067h-260v98q-104 -110 -266 -110q-158 0 -252 94q-61 61 -85 134.5t-24 168.5zM281 1585h280l131 -348h-178z" />
<glyph unicode="&#xfa;" horiz-adv-x="1173" d="M137 385v682h266v-645q0 -100 52.5 -147.5t124.5 -47.5q73 0 125.5 47.5t52.5 147.5v645h266v-1067h-260v98q-104 -110 -266 -110q-158 0 -252 94q-61 61 -85 134.5t-24 168.5zM467 1237l131 348h281l-234 -348h-178z" />
<glyph unicode="&#xfb;" horiz-adv-x="1173" d="M137 385v682h266v-645q0 -100 52.5 -147.5t124.5 -47.5q73 0 125.5 47.5t52.5 147.5v645h266v-1067h-260v98q-104 -110 -266 -110q-158 0 -252 94q-61 61 -85 134.5t-24 168.5zM203 1237l270 346h213l270 -346h-206l-170 186l-170 -186h-207z" />
<glyph unicode="&#xfc;" horiz-adv-x="1173" d="M137 385v682h266v-645q0 -100 52.5 -147.5t124.5 -47.5q73 0 125.5 47.5t52.5 147.5v645h266v-1067h-260v98q-104 -110 -266 -110q-158 0 -252 94q-61 61 -85 134.5t-24 168.5zM242 1241v256h227v-256h-227zM694 1241v256h228v-256h-228z" />
<glyph unicode="&#xfd;" horiz-adv-x="1011" d="M8 1067h281l221 -659l213 659h281l-457 -1239q-36 -93 -80 -137q-82 -82 -229 -82h-105v239h62q58 0 85.5 19.5t47.5 77.5l45 131zM387 1237l131 348h281l-234 -348h-178z" />
<glyph unicode="&#xfe;" horiz-adv-x="1150" d="M150 -391v1849h266v-485q92 106 258 106q165 0 258 -96q69 -71 89.5 -176.5t20.5 -271.5t-20.5 -273.5t-89.5 -177.5q-93 -96 -258 -96q-166 0 -258 106v-485h-266zM416 535q0 -58 3.5 -99t14 -83t30 -68t52.5 -42t80 -16t80 16t52.5 42t30 68t14 83t3.5 99t-3.5 98.5 t-14 82.5t-30 67t-52.5 41t-80 16t-80 -16t-52.5 -41t-30 -67t-14 -82.5t-3.5 -98.5z" />
<glyph unicode="&#xff;" horiz-adv-x="1011" d="M8 1067h281l221 -659l213 659h281l-457 -1239q-36 -93 -80 -137q-82 -82 -229 -82h-105v239h62q58 0 85.5 19.5t47.5 77.5l45 131zM170 1241v256h227v-256h-227zM623 1241v256h227v-256h-227z" />
<glyph unicode="&#x152;" horiz-adv-x="1978" d="M121 729q0 87 1 132t5 110.5t13 104t25 85t41.5 83.5t61.5 73q156 153 391 153q72 0 141 -27.5t113 -74.5v90h953v-254h-668v-342h569v-254h-569v-354h670v-254h-955v90q-38 -44 -111 -73t-143 -29q-235 0 -391 153q-36 36 -61.5 73t-41.5 83.5t-25 85t-13 104t-5 110.5 t-1 132zM406 729q0 -204 14 -282t55 -125q73 -80 184 -80q113 0 183 80q42 47 56.5 125t14.5 282q0 205 -14.5 284t-56.5 126q-68 78 -183 78q-113 0 -184 -78q-41 -47 -55 -126.5t-14 -283.5z" />
<glyph unicode="&#x153;" horiz-adv-x="1767" d="M104 535q0 152 26 245.5t95 167.5q127 131 330 131q215 0 330 -139q117 139 321 139q145 0 251.5 -66.5t160 -181t53.5 -262.5v-118h-667q0 -107 61 -172.5t172 -65.5q83 0 135 23.5t105 76.5l163 -157q-87 -88 -177 -128t-228 -40q-233 0 -354 137q-114 -137 -326 -137 q-203 0 -330 131q-69 74 -95 168.5t-26 247.5zM371 535q0 -99 11.5 -162t49.5 -99q47 -47 123 -47q78 0 125 47q38 36 49.5 99t11.5 162q0 98 -11.5 160t-49.5 98q-47 47 -125 47q-76 0 -123 -47q-38 -36 -49.5 -98t-11.5 -160zM1004 633h405q-3 67 -25 115 q-51 110 -178 110t-178 -110q-21 -46 -24 -115z" />
<glyph unicode="&#x178;" horiz-adv-x="1171" d="M6 1458h309l273 -588l268 588h309l-438 -860v-598h-283v598zM246 1604v256h227v-256h-227zM698 1604v256h228v-256h-228z" />
<glyph unicode="&#x2c6;" horiz-adv-x="1024" d="M135 1237l271 346h212l271 -346h-207l-170 186l-170 -186h-207z" />
<glyph unicode="&#x2dc;" horiz-adv-x="1024" d="M176 1397q66 66 118 92.5t112 26.5q46 0 80.5 -10t78.5 -36q59 -38 113 -38q31 0 57 11.5t62 47.5l118 -117q-67 -67 -118.5 -93t-112.5 -26q-80 0 -158 45q-63 37 -114 37q-32 0 -57.5 -10.5t-61.5 -46.5z" />
<glyph unicode="&#x2000;" horiz-adv-x="1039" />
<glyph unicode="&#x2001;" horiz-adv-x="2079" />
<glyph unicode="&#x2002;" horiz-adv-x="1039" />
<glyph unicode="&#x2003;" horiz-adv-x="2079" />
<glyph unicode="&#x2004;" horiz-adv-x="693" />
<glyph unicode="&#x2005;" horiz-adv-x="519" />
<glyph unicode="&#x2006;" horiz-adv-x="346" />
<glyph unicode="&#x2007;" horiz-adv-x="346" />
<glyph unicode="&#x2008;" horiz-adv-x="259" />
<glyph unicode="&#x2009;" horiz-adv-x="415" />
<glyph unicode="&#x200a;" horiz-adv-x="115" />
<glyph unicode="&#x2010;" horiz-adv-x="872" d="M121 461v248h631v-248h-631z" />
<glyph unicode="&#x2011;" horiz-adv-x="872" d="M121 461v248h631v-248h-631z" />
<glyph unicode="&#x2012;" horiz-adv-x="872" d="M121 461v248h631v-248h-631z" />
<glyph unicode="&#x2013;" d="M102 461v248h908v-248h-908z" />
<glyph unicode="&#x2014;" horiz-adv-x="2103" d="M121 463v256h1861v-256h-1861z" />
<glyph unicode="&#x2018;" horiz-adv-x="559" d="M139 1206v252l279 215v-467h-279z" />
<glyph unicode="&#x2019;" horiz-adv-x="559" d="M139 993v465h279v-254z" />
<glyph unicode="&#x201a;" horiz-adv-x="555" d="M139 -213v467h279v-254z" />
<glyph unicode="&#x201c;" horiz-adv-x="987" d="M139 1206v252l277 215v-467h-277zM569 1206v252l279 215v-467h-279z" />
<glyph unicode="&#x201d;" horiz-adv-x="987" d="M139 993v465h277v-254zM569 993v465h279v-254z" />
<glyph unicode="&#x201e;" horiz-adv-x="993" d="M139 -213v467h277v-254zM569 -213v467h279v-254z" />
<glyph unicode="&#x2022;" horiz-adv-x="1009" d="M170 684q0 138 98 236t236 98t236 -98t98 -236t-98 -236t-236 -98t-236 98t-98 236z" />
<glyph unicode="&#x2026;" horiz-adv-x="1732" d="M139 0v289h291v-289h-291zM721 0v289h289v-289h-289zM1305 0v289h288v-289h-288z" />
<glyph unicode="&#x202f;" horiz-adv-x="415" />
<glyph unicode="&#x2039;" horiz-adv-x="716" d="M70 563l510 508v-317l-193 -191l193 -190v-318z" />
<glyph unicode="&#x203a;" horiz-adv-x="716" d="M137 55v318l195 190l-195 191v317l510 -508z" />
<glyph unicode="&#x205f;" horiz-adv-x="519" />
<glyph unicode="&#x20ac;" horiz-adv-x="1400" d="M80 485v170h141v154h-141v170h149q9 110 41 189.5t99 146.5q155 155 391 155q210 0 353.5 -118.5t180.5 -341.5h-288q-23 96 -83.5 151.5t-162.5 55.5q-114 0 -180 -76q-50 -55 -60 -162h303v-170h-317v-154h317v-170h-305q8 -65 21.5 -102t40.5 -66q65 -75 180 -75 q102 0 163.5 56t84.5 151h286q-37 -223 -181 -342t-353 -119q-236 0 -391 155q-68 68 -99.5 148t-40.5 194h-149z" />
<glyph unicode="&#x2122;" horiz-adv-x="1892" d="M92 1284v174h645v-174h-225v-700h-195v700h-225zM872 584v874h195l250 -467l250 467h194v-874h-194v516l-164 -322h-172l-164 322v-516h-195z" />
<glyph unicode="&#x25fc;" horiz-adv-x="1064" d="M0 0v1065h1065v-1065h-1065z" />
<glyph unicode="&#xfb01;" horiz-adv-x="1241" d="M72 834v202h110v133q0 59 18.5 112.5t55.5 97.5t98.5 70t139.5 26h151v-226h-104q-92 0 -92 -96v-117h196v-202h-196v-834h-267v834h-110zM823 1249v217h273v-217h-273zM827 0v1036h267v-1036h-267z" />
<glyph unicode="&#xfb02;" horiz-adv-x="1349" d="M72 834v202h110v133q0 59 18.5 112.5t55.5 97.5t98.5 70t139.5 26h151v-226h-104q-92 0 -92 -96v-117h196v-202h-196v-834h-267v834h-110zM823 305v1153h267v-1136q0 -49 22 -73t72 -24h102v-225h-151q-79 0 -140.5 26t-98 70t-55 97t-18.5 112z" />
</font>
</defs>
</svg>
