<svg id="Layer_1" data-name="Layer 1" xmlns="http://www.w3.org/2000/svg" viewBox="0 0 233.98 272.03">
    <defs>
        <style>
        .cls-1 {
            fill: #978d85;
        }
        
        .cls-2 {
            fill: #286dc0;
        }
        
        .cls-3 {
            fill: #00356b;
        }
        
        .cls-4 {
            fill: #fefefe;
            fill-rule: evenodd;
        }
        
        .cls-5 {
            fill: #fff;
        }
        
        .cls-6 {
            fill: #dcf0f5;
        }
        
        .cls-7 {
            font-size: 0.9px;
            fill: #231f20;
            font-family: Helvetica-Oblique, Helvetica;
        }
        </style>
    </defs>
    <title>Untitled-1</title>
    <path class="cls-1" d="M228.38,432.17c-5.57-3.17-10.69-6-15.71-9-36.1-21.52-64.82-49.87-81.63-89a187.65,187.65,0,0,1-14.95-70.75c-.07-3.34.84-4.29,4.18-4.28q51.61.1,103.22-.1c3,0,4.48.36,4.49,4q.17,83,.61,165.95C228.6,429.79,228.49,430.59,228.38,432.17Zm-45.24-53.37.83-1.18,1.25-1.12c5.7-.56,9-4.12,8.39-9.44-.88-7.52,3.95-12.36,7.68-17.91,2.39-3.55,5.6-2.12,8.48-2.83,3.63-.9,7.29-1.85,8-6.38.13-.86.07-2.4-1.43-.79l-.74.79-1.12.6c-3.89,0-8.75,2.61-10.49-3.51-2.42-8.52-6.88-16-11.6-23.35a17.49,17.49,0,0,1-3.15-7.86c-.66-7.18,1.91-14.15,1.29-21.34a3.52,3.52,0,0,1,1.85-3.36c2.82-1.53,2.22-3.73,1.17-6-2.79-6.13-8.92-7.88-16.42-4.69-2.17,1.09-1.65,5.48-5.91,4.33-1.68-.45-5.2-.78-5.62,1.59-.5,2.79,2.59,4,4.9,5a11.09,11.09,0,0,0,2.39.82c3.59.71,5,2.41,2.93,5.94a5,5,0,0,0-.55,2.43c0,1.87.36,4.11-1.56,5-2.13,1-3.09-1.44-4.48-2.52a9.68,9.68,0,0,0-1.32-.75c-2.91-4.82-6.3-8.32-12.38-4.58l-.8.92-.82.83-1.15.09.1,0c-.26-.37-.52-.76-1-.25s-2.21,0-1.8,1.07c.58,1.48,1.93-.39,2.93.1l1.88,0C159,290,161.17,291.9,162,296a12.23,12.23,0,0,0,2.25,5.49c2.11,2.45.88,3-1.23,4.13-2.44,1.29-6,.62-7.27,4-2.3.46-4.91-.66-6.92,1.32-1.71.76-4.56-1.61-5.25,1.93,1.11,1.6,2.91,1.69,4.5,1.66q9.09-.21,18.17-.82c1.43-.1,2.36-.49,3.1,1.31,2.22,5.39,6.89,8.58,11.31,12,1.77,1.36,3.95,2.37,4.94,4.86-3.24,1.33-6.27,2.38-9.12,3.78A17.13,17.13,0,0,0,167,347.26c-4.16.27-8.32,1.41-12.46-.26-1.2-.49-2.57-1-3.74.23-1.91,0-3,.59-2.8,2.83.19,1.9,1.06,2.5,2.82,2.13,5.84.53,11.76-.23,17.54,1.09,2,.45,2.55-1.07,3.54-2.15,3.2-3.5,6.91-5.77,12-5.1,1.68.23,2.54.59,1.81,2.45-1.93,4.92-1.21,9.9-.26,14.87,1,3.13-1.28,6.12-.41,9.24l-2,4.22c-2.51,0-5-.2-7.53-.1-1.79.07-2.6,1.12-2.43,3s.93,2.74,2.81,2.73a8.77,8.77,0,0,0,6.56-2.86ZM217.4,329l-.58-1.1c-2.67-3.42-5.92-4.36-10.14-2.23,5.85.86,9.35,3.65,9.2,9.82,0,.26,1,.55,1.57.83a1.71,1.71,0,0,0,.41.28c.1,0,.33,0,.33-.1C218.54,334,219.45,331.33,217.4,329Z" transform="translate(-111 -165)" />
    <path class="cls-1" d="M151,290.22a126,126,0,0,1,14.81,22.24c2.65,5,9.08,2.91,10.88-1.42,2.94-7.06-.82-14.82-6.74-19-6.85-4.81-16.16-6.44-24-8.86-2.82-.87-6.84,1-7.32,4.16-1.7,10.92-2.67,23.88,6.61,31.82l7.21-9.35q-.6,2.82,1.27,2.48a6.36,6.36,0,0,1,2.06.21l-4.16-4.16a58.46,58.46,0,0,0,6.09,15.41c2.48,4.38,9.66,3.56,10.88-1.42,3.23-13.14-.89-26,.08-39.15.21-2.84.4-3.23,3.26-3.19,2.59,0,5.1.63,7.7.47,4.93-.29,9.76-2.31,12-7,1.63-3.42.39-7.66-3.56-8.75-10-2.74-18.49,4.55-21.25,13.8-2.28,7.65-3.86,19.88,5.53,23.09,3.31,1.13,6.16-1.33,7.32-4.16a42.25,42.25,0,0,1,9.79-14.27c.75-.72,2.47-1.63,2.93-2.55q2.13-.67-.41-1.1-1.77-1.48-1.36.22c-.56,1,.28,2.81-.42,3.92-.8,1.28-2.2,1.64-3.5,2.15-4.5,1.77-8.63,3.24-11.24,7.64a10.79,10.79,0,0,0,1.19,13.23c2.49,2.83,7.62,2,9.35-1.21a59.73,59.73,0,0,0,7.19-27.81l-11.69,1.58a63.05,63.05,0,0,1,0,33.11l8.75-3.56c-9.84-7.24-26.94-.34-26.57,12.7.2,7,7.26,11.88,13.76,8.6a13.09,13.09,0,0,0,6.17-7.08c1.1-3,.51-6.48,2-9.29l-10.88-4.59a46.11,46.11,0,0,0,.51,27.36l1.53-5.79a50.09,50.09,0,0,1-30.91,11.17c-5.8.11-8.23,8.12-3,11.09,6,3.39,17.46,10.17,24.36,6.41,3.71-2,4.5-6.47,5.44-10.18,1.27-5,2.42-10,3.48-15.07l-11.69-1.58a148.75,148.75,0,0,0,1.27,29.76,140.69,140.69,0,0,0,2.9,14.78c1.15,4.51,2.73,8,7.59,9.28,8.08,2.15,14.93-4.38,16.54-11.84,1.78-8.3,1.82-18.6-1.3-26.55-2.51-6.37-10.92-5.21-11.69,1.58a120.37,120.37,0,0,0-.5,21.77l11.69-1.58-7.22-32.11L176.39,345c7.7,2.5,16.68-.25,21.17-7.15,4.64-7.14,3.14-15.94-2-22.28-2.79-3.44-9.07-1.5-9.95,2.63a100.63,100.63,0,0,0-2.14,27.55c.4,6.28,10.45,8.58,11.69,1.58,2-11.45,3.6-23.81-3.19-34.05-2.49-3.75-10.11-4.07-10.88,1.42-2.12,15.18,2.64,30.22,14,40.72,3.18,2.93,8.84,1.89,10-2.63a67.62,67.62,0,0,0,1.17-26c-.8-5.76-10.52-5.61-11.48,0A172.3,172.3,0,0,0,192.25,360l11.09-3-5.29-7.6c-2.73-3.92-7.52-3.69-10.28,0-3.81,5.1-1.58,11.44,3.17,14.86,2.82,2,6.37.23,8.15-2.14,8.25-11,16.18-37.11,16.18-37.11H203.83a44.55,44.55,0,0,1,3.46,16.14c.16,7.15,9.17,7.45,11.65,1.58a28.3,28.3,0,0,0,1.28-17.61c-1.61-7.12-10.83-4.5-11.65,1.58A158.8,158.8,0,0,1,202.28,354h11.06l-4.11-11.82c-1.83-5.25-9.78-5.91-11.33,0l-3.81,14.53-1.43,5.45-1,3.63q-1.4,2.94,3.39.34c.23-.61-3.22-5.15-3.65-5.89q-1.3-2.25-2.49-4.56a105.43,105.43,0,0,1-5.56-12.91l-11.33,3.12a91.26,91.26,0,0,0,20.68,31.94c2.45,2.45,7.63,2.33,9.23-1.19,3.53-7.79-.28-15.2-1.52-23.38L197.66,341c-4-14.35-3.85-29.65-18-37.47-4.43-2.44-10.59-5.81-15.81-4.57-6.21,1.47-7.46,7.45-8.14,13a58.75,58.75,0,0,0,8.3,37.7c2.13,3.5,8.19,4.14,10.15,0,5.49-11.63,6.36-24.72,1.45-36.73-2.07-5.06-9.63-6.06-11.33,0a68.8,68.8,0,0,0-1.2,32.13c1.44,7.42,12.77,4.28,11.33-3.12a55.42,55.42,0,0,1,1.2-25.88H164.07c3.59,8.78,3.84,18.32-.25,27H174s-7.33-16-7.26-25.1a42.92,42.92,0,0,1,.52-6.72,26.94,26.94,0,0,1,.61-2.89q-2.25,2,.31,2.2c1.18,1.13,3.91,1.71,5.38,2.52a19.57,19.57,0,0,1,4.18,2.89c2.91,2.78,3.64,6.66,4.52,10.43,1.16,5,2.27,10,3.4,15l3.4,15,1.7,7.52c.37,1.65,1.9,5.21,1.14,6.88l9.35-1.2a78.31,78.31,0,0,1-17.88-27.1c-2.73-7-14.09-4.13-11.48,3.17a127,127,0,0,0,8.49,19c2.66,4.78,5.86,12,11.89,13,6.92,1.18,10-5,11.48-10.57,2-7.34,5.79-22.16,5.79-22.16H198.27l4,11.62a5.83,5.83,0,0,0,11.14,0A171.42,171.42,0,0,0,220,326.93l-11.35,1.54a17.09,17.09,0,0,1-1.25,11L218.75,341a52.21,52.21,0,0,0-3.79-18.8c-1.88-4.62-10-6.29-11.14,0a77.77,77.77,0,0,1-14.54,33.46l7.9-2.07a14.18,14.18,0,0,0,1.07,1.39H187.92l5.21,7.49c3.14,4.51,11.08,3.25,10.93-3A153.54,153.54,0,0,1,206.11,330H194.76s.41,13.22-1.17,19.65l9.95-2.63c-8-7.37-12.5-18.21-11-29.14l-10.88,1.42c4.93,7.44,3.46,16.56,2,24.88l11.69,1.58a88.76,88.76,0,0,1,1.71-24.39l-10,2.63c4.51,5.56-1.79,11.41-7.58,9.53-4.53-1.47-8.27,3.12-7.32,7.32L179.46,373c1.45,6.47,12.15,5.17,11.69-1.58a120.37,120.37,0,0,1,.5-21.77L180,351.19c2.08,5.28,2,10.65,1.68,16.23a27.57,27.57,0,0,1-.38,4c-.21,1-1.07,2.21-1.21,3.13l-.88.38q2,1.93,1.16,0c.22-.87-.94-3.81-1.12-4.57a135.39,135.39,0,0,1-2.87-37.71c.39-6.65-10.3-8.17-11.69-1.58-.67,3.15-1.36,6.3-2.1,9.44-.18.76-2.82,9-2.35,9.38l2.79-1.29-1.63-.44a36.57,36.57,0,0,0-4-1.3,56.11,56.11,0,0,1-8.49-4.06l-3,11.09a63.25,63.25,0,0,0,39.33-14.65,5.8,5.8,0,0,0,1.53-5.79,34.63,34.63,0,0,1-.51-21c1.82-6.37-7.73-10.68-10.88-4.59a20.51,20.51,0,0,0-2.15,6.91c-.33,2.37-2.37,7.62,2.76,5.55,1.26-.51,1.92-2,3.63-2.38a5.37,5.37,0,0,1,4.71,1.27c3.14,2.31,7.83-.15,8.75-3.56a75.61,75.61,0,0,0,0-39.44c-1.75-6.52-11.62-5.13-11.69,1.58a46.55,46.55,0,0,1-5.57,21.8l9.35-1.2c1.45,1.65-.06,1.37,2.06,0a25.09,25.09,0,0,1,4.13-1.52c3.25-1.27,6.3-2.89,8.36-5.82,3.82-5.45,4.71-16.07-.83-20.72-12.29-10.33-27.1,15.6-30.58,24l7.32-4.16q1.94,2.54,1.55.57,0-1.36.17-2.72a32.53,32.53,0,0,1,.87-5.52c.81-3.1,2.92-7.31,6.8-6.25l-3.56-8.75c-1.23,2.58-10.08.45-12.74.79a12.63,12.63,0,0,0-11.23,9.91c-3.2,13.49,3.08,27.45-.25,41L168,317.75a46.92,46.92,0,0,1-4.89-12.57A5.83,5.83,0,0,0,159,301c-5.92-1.11-12.86-.83-16.23,5.05-2.77,4.84-1.39,11.45,3.72,14,5.69,2.87,12.64-4.71,7.21-9.35-5.75-4.92-4.61-13.48-3.55-20.24l-7.32,4.16c5.19,1.6,10.49,3,15.61,4.86,3.7,1.32,8.78,3.68,6.84,8.34l10.88-1.42a140.38,140.38,0,0,0-16.68-24.65C154.53,275.92,146.15,284.39,151,290.22Z" transform="translate(-111 -165)" />
    <path class="cls-2" d="M174,255c-17.55,0-35.09-.11-52.64.09-4,0-5.52-.84-5.51-5.23q.07-37.19-.51-74.37c-.07-4.5,1.18-5.6,5.62-5.59q89.08.13,178.16-.12c12,0,23.95-.13,35.91-.57,4.36-.16,5.31,1.38,5.28,5.46-.15,24.63-.19,49.26.09,73.89.05,4.82-1.51,5.79-6,5.78-32.9-.13-65.8,0-98.69,0q-30.86,0-61.72,0Q174,254.7,174,255Zm-27.42-37.23-3.71,1.08-.94.53c-1.31,1.35-3.57,1.38-4.48,3.29l-6,.1c-.73,0-1.69-.64-2,.67-.17.83-.23,1.92.72,2.09,2.4.42,4.74,2.91,7.29.35a7.11,7.11,0,0,1,.76-.09c.63,1.68,1.58,0,2.34.22,1.24,1.68,2.7.56,4.11.35,9.39-1.43,18.52-4.9,28.25-3.5,1.57.43,3.64.22,4.4,1.9,1,2.23-2.69,2-2.59,4.24h5.52c.5,6.28,4.36,3.77,7.6,2.92a9.19,9.19,0,0,0,2.19,1.17c1.24.28.69,3.39,2.54,1.92,1.65-1.32.11-2.56-1.05-3.64-2.47-2.28-.91-3.56,1.36-4.23,3-.87,6-.41,9,.06,7.47,1.17,14.88,2,22.55,1.13,3.32-.37,6.87-3.24,10.36-.34v-.12c-2.94,1.72-6.86.44-9.49,3.1-1.16,2.29,1.6,2.5,2.08,3.93.73,1.15,1.48.15,2.23,0l1.91.84a5.71,5.71,0,0,0-.9,1.63.61.61,0,0,0,1,.58c2.4-1.77,4.93,0,7.26-.33,5.07-.73,11.42.74,14-5.62,1.26-3.09,3.22-3.73,6.05-4.21a232.63,232.63,0,0,1,39.54-3.39c11.64,0,22.23-4,28.72-14.89,5.12-8.58,3.48-19-4.42-24.33-10-6.8-21-8-32.54-3.94l-1.37,1.18c-2.43.63-3,2.85-4.33,4.79a46.31,46.31,0,0,1,26,4.52c3.62,1.74,6.5,4.19,6.38,8.74-3.79,5.69-13.54,8.69-19.38,5.77a18.55,18.55,0,0,0-8.71-1.83,7.75,7.75,0,0,1-5.15-1.45c-2.82-2.22-6-2.67-9.47-2.31-2.9-1.24-5.38-3.43-8.81-3.44-7.42,0-14.49-4.44-22.16-1.78a4.05,4.05,0,0,1-2.42-.51c-6.21-2.52-12.88-.82-19-.71s-13.36-1-19.55,2.28c-.77.41-2-.2-3,0-8.43,1.84-17.25,0-25.56,2.71a18.16,18.16,0,0,1-10.84.43l-9-1.13c-.55-.86-1.29-.84-2.17-.54-5.67,1.9-11.5,1.8-17.36,1.42-1.47-.1-3.05-.43-4.09,1.13-2.56-.68-4.58-.6-4.2,2.93,1.31,4.63,5.93,3.75,8.8,4.19,5.21.8,10.65.3,15.85,1.78,2,.71,4.3,1.17,2.87,4.33l-3.6,2c-1.48-.12-2.26.5-2.33,1.87Z" transform="translate(-111 -165)" />
    <path class="cls-2" d="M122.75,205.35l13.17,9.45c3.07,2.21,8-.05,8.79-3.56,1.91-8.52-4.37-17.09-13.48-16.63a6,6,0,0,0-5.77,7.54c2,6.94,9.21,11.76,16.47,9.67s10.87-10.18,8.57-17c-1.87-5.53-9.77-5.78-11.54,0-1.89,6.16-4.48,19,3.55,22,6.61,2.45,15.61-2.55,19.67-7.56,5.12-6.31,1.61-15.21-7.08-13.83a14.58,14.58,0,0,0-12,15.66c.61,5.4,8,8.68,11.15,3,2.53-4.63,5.9-11.5,3.93-16.87-1.85-5.06-7.79-7-11.94-3.25s-5.79,9.55-7.43,14.7c-1.32,4.14-3.26,10.75-8.69,10.41-4.27-.27-6.31,4-5.77,7.54.72,4.73,6.63,6.9,10.62,4.51,4.86-2.91,3.51-9.44,3.19-14.07l-7.57,5.74c8,2.92,17.83,8.54,26.58,6.67,7.1-1.52,12.47-8.67,10-15.87a6.1,6.1,0,0,0-8.79-3.56A29.54,29.54,0,0,0,144.6,224c-3.27,6.88,7,12.93,10.33,6l7.17-14.85-10.94-4.59c-2.3,12.84,15.77,16.42,25.31,15.31,5.38-.63,8.79-8,3-11.09a228.27,228.27,0,0,1-22.15-13.4l-1.43,10.88a96.28,96.28,0,0,1,22-4.18c6.52-.45,8.39-9.84,1.59-11.69-8.57-2.34-30.19-.12-24.5,13.88,6,14.84,24.06,2.47,29.38-6a5.9,5.9,0,0,0,0-6,7.94,7.94,0,0,0-12.12-2.13c-3.59,3-4,8.85-4.3,13.2s-.35,11,3.14,14.22c3.72,3.47,10.17,2.41,14.83,2.46l-3-11.09a17.71,17.71,0,0,1-11.93,4c-4.83-.14-7.06,5.09-5.17,9,3.48,7.13,11.79,7.55,18.76,8,5.84.37,18.88.82,15.91-9.22-2.4-8.12-14.5-5.53-17.5.62-3.7,7.6,5.58,16.61,11.85,9.38,4.8-5.54,4.91-17.18,1.34-23.31a14.54,14.54,0,0,0-8.78-6.86,20.38,20.38,0,0,0-6.63-.13,16.54,16.54,0,0,1-3.07.2q-4.61,7.07-.08,6.14c1.89.49,5.22-.46,7.19-.64,2.31-.21,4.69-.28,7-.69,3.59-.65,7.21-2.52,8.11-6.4,2.33-10-11.37-12.08-18.21-12.74-7.69-.73-7.57,11.11,0,11.91a151.64,151.64,0,0,0,25.26.74c6-.37,12.31-2.16,14-8.69,1-3.94-1.87-7.28-5.77-7.54a26.76,26.76,0,0,0-17.45,5c-4.51,3.27-10,9.09-8.92,15.13,1.07,6.21,7.69,7.78,13,6.54,7-1.62,13.32-5.61,18.59-10.33,3.47-3.1,1.46-8.71-2.64-9.95-10.2-3.09-17.16,5.17-20.48,13.69-1.44,3.69-2,7.84.92,11,3.36,3.56,9.36,2.73,13.82,2.69,6.5-.06,8.45-10.53,1.59-11.69-6.14-1-14.31-1.7-19.52,2.44-4.46,3.54-4.85,10.65.17,13.95,2.53,1.66,6.2,1.5,9.08,1.59q5.73.17,11.46-.15a149.67,149.67,0,0,0,22.4-3c5.67-1.19,5.75-10.33,0-11.48a48.83,48.83,0,0,0-36.6,6.75c-3.53,2.3-3.63,6.24-1.21,9.35,5.74,7.37,18.13,5.69,26.34,5.49a254.78,254.78,0,0,0,32.81-3c5-.78,5.83-8.73,1.43-10.88a26.44,26.44,0,0,0-18.59-1.7c-5.32,1.3-12.5,3.68-16.33,7.75-4.32,4.59-2.33,11.49,3,14.29,5.72,3,12.52.47,18.12-1.48,5.14-1.79,13.2-3.68,16.51-8.41,3.46-5,.79-10.6-4.18-13.2-6.51-3.41-14.52-5-21.48-7.36s-14.59-4.16-20.83-8.31l-1.43,10.88a175.13,175.13,0,0,0,26.14-9.37c3.51-1.57,3.78-6.93,1.21-9.35-6.71-6.33-15.56-6.87-24.36-6.35-3.07.18-6.2,2.58-6,6,.71,11.31,15.34,9.44,23.28,8.69a109.62,109.62,0,0,0,33-8.57c5.37-2.3,2.63-9.18-1.43-10.88-8-3.35-16.29,3.23-22.59,7.44-5.53,3.69-16.4,9-17.13,16.37-1.8,18.23,34,1.82,40.29-1.71,4.36-2.43,3.62-9.75-1.43-10.88a25,25,0,0,0-26.35,10.19c-2.91,4.06,1.13,8.53,5.17,9a54.65,54.65,0,0,0,21.75-2c5.7-1.75,13.92-4.43,14.92-11.22.49-3.35-.8-6.16-4.18-7.32-12-4.11-23.65,6.91-31.11,14.88-3,3.16-1.9,8.87,2.64,10a30.52,30.52,0,0,0,23.71-3.73c4.08-2.56,3.85-9.8-1.43-10.88s-10.43.38-13.73,4.77c-3,4-3.59,9.76.14,13.48,7.65,7.64,22.21,1.63,28.47-4.78,2.57-2.63,2.28-7.55-1.21-9.35a20,20,0,0,0-23.71,3.46A6,6,0,0,0,265,221.94c6.27,0,10.79-3.53,15-7.73,1.67-1.65,3.36-3.82,5.48-4.91,1-.5,5.35-1.41.41-3.52-.66-.28-4.41,1.19-5,1.33-4.52,1.06-9,2.09-13.58,3.14-4.11,1-9.44,1.27-12.95,3.76-7.27,5.17-.43,12.94,5,16.09,7.59,4.4,15.54.18,23-2.46l13.56-4.82c3.83-1.36,8.79-2.29,12.21-4.52,6.85-4.48,2.44-12.27-4.1-13.65-7.53-1.6-15.35,1.38-20.64,6.72-3.51,3.55-1.06,10.38,4.23,10.16a6.44,6.44,0,0,1,5.41,1.89l2.64-10-9.18,1.94c-6.53,1.38-5.17,12.15,1.59,11.69a80.75,80.75,0,0,0,27.51-6.81L308.35,211a50.92,50.92,0,0,1-6.68,6.84c-5.26,4.46,1.49,12.67,7.25,9.35q5.78-3.33,11.56-6.65c3-1.75,6.21-3.51,8-6.65,1.93-3.39,1.75-7.63,1.95-11.38l.75-13.74L321,192.93l.32-.09,10.94-4.59c-5.58-9.5-16.09-13.58-26.76-13.88-8.19-.23-24.92-.32-27.07,10.14-.6,2.92.83,6.73,4.18,7.32l32.25,5.71c2.87.51,6.85-.75,7.36-4.16a14.12,14.12,0,0,0-.19-6.45c-1.72-6.39-12-5.23-11.75,1.58l.25,7.66q.06,1.91.13,3.83-.56,4.14,2.22-.29c-1.75-1.78-7.75,1.88-8.95,2.91-2.95,2.53-1.93,7.54,1.21,9.35a22.58,22.58,0,0,0,11.9,3.13c7.89-.1,7.47-11,0-11.91a80.45,80.45,0,0,0-38.85,5.34c-11.33,4.43-22.46,10.63-34.91,10.93-7.69.19-7.72,12.09,0,11.91,12.54-.3,23.59-5.39,35-10.09,12.6-5.22,25.14-7.76,38.8-6.18V203.2a10.41,10.41,0,0,1-5.86-1.5l1.21,9.35c-1.22,1.05-1.17.44.48.58a9.92,9.92,0,0,0,3.1-.36,8.81,8.81,0,0,0,5.49-3.89c2.92-4.91.95-13.45.77-18.86l-11.75,1.58.19.12,7.36-4.16-32.25-5.71,4.18,7.32c-.14.69.48-.05,1.5-.21,1.65-.25,3.3-.5,5-.68a59.76,59.76,0,0,1,10.87-.43c5.83.41,11.58,2.73,14.62,7.9,3.31,5.64,13.36,1.91,10.94-4.59a10.78,10.78,0,0,0-3.4-5.16c-4.06-3.16-9.92-1.29-10.22,4.21l-.53,9.81c-.12,2.22.56,7.32-.58,9.31-1,1.75-4.43,2.81-6.13,3.79l-9.08,5.23,7.25,9.35a50.9,50.9,0,0,0,6.68-6.84c4.34-5.36-.92-12.13-7.25-9.35a63.89,63.89,0,0,1-21.47,5.19l1.59,11.69,9.18-1.94c4.42-.93,5.76-7,2.64-10a18.41,18.41,0,0,0-13.87-5.37l4.23,10.16a11.25,11.25,0,0,1,5.54-3.32,10.37,10.37,0,0,1,2.82-.3,4.18,4.18,0,0,1,1.41.14q2.58.68-1.76-2.23l1.54-5.79c-.55.7-3.15,1.1-4.15,1.45l-5.42,1.93L281,215.53c-5.31,1.89-14.67,8-18.69,1.49l.6,4.59.27-.85-2.75,3.56c1.52-1.09,4.38-1.24,6.21-1.67l7.76-1.79c4.85-1.12,10-1.88,14.71-3.54,7-2.47,12.47-11.21,6.2-17.5-4.88-4.9-12.56-3.25-17.59.43-3.62,2.65-7.9,9.81-12.7,9.79l4.23,10.16a7.66,7.66,0,0,1,9.21-1.6l-1.21-9.35a14.28,14.28,0,0,1-7.19,4.23c-.66.15-4.07.13-4.16.27l.76,2.23a1,1,0,0,1,1-.3l-1.43-10.88a18.29,18.29,0,0,1-14.49,2.53l2.64,9.95c4.1-4.39,12.6-14.18,19.46-11.82l-4.18-7.32c-.32,2.17-9.89,3.85-11.71,4.19a46.36,46.36,0,0,1-13.41.31l5.17,9a12.45,12.45,0,0,1,12.84-4.72L261.11,196a71.51,71.51,0,0,1-12.92,5.73q-3.33,1.07-6.74,1.83c-.66.15-5,1.36-5.27,1.17l2.75,3.56c.65,1.72.23,1.38,2,.09q1.49-1.12,3-2.22,3.41-2.46,6.92-4.78c3.06-2,8.84-7.29,12.59-5.72L262,184.77a94.6,94.6,0,0,1-21.28,6.2,86.23,86.23,0,0,1-11.13,1.11c-1.52.06-3,.08-4.57.06-4.73,0-1.5-.94-1.27,2.79l-6,6c5.24-.31,11.77-1,15.9,2.86l1.21-9.35a155.88,155.88,0,0,1-23.28,8.17c-5.21,1.4-5.59,8.11-1.43,10.88,6.56,4.36,14.39,6.41,21.8,8.88l11.32,3.78,5.66,1.89,3.77,1.26q2.61-5.79,0-4.22c-1.51.05-3.81,1.7-5.26,2.27q-3.11,1.23-6.29,2.28a41.19,41.19,0,0,1-5,1.52l-1.38.3q-3.34-.56-1,4.25c.62.07,3.66-1.82,4.24-2.06a43.51,43.51,0,0,1,4.88-1.78c3.64-1.07,7.43-1.68,11,.06L255.34,221a229.24,229.24,0,0,1-25.83,2.5q-6.17.25-12.36.17c-3,0-7.27.59-9.33-2.05L206.62,231A36.51,36.51,0,0,1,234,225.41V213.52a126.92,126.92,0,0,1-21.94,2.75c-3.4.12-7.08-.43-10.44,0l-1.9-.1q.38,6.93,5.1,5.3a22.74,22.74,0,0,1,5.75.28L212.14,210c-1.62,0-4-.47-5.59,0q-5.1-.91,1.48,4.07a15.57,15.57,0,0,1,.64-1.86c1.34-2.25,2.37-7.25,6-6.14l-2.62-9.94a32.89,32.89,0,0,1-8.39,5.59c-1.27.58-2.83.78-4,1.44a4.51,4.51,0,0,1-1.45.3q2.11,4.93,3.51,2.45c2.09-1.31,3.3-3.5,5.74-4.61a15.61,15.61,0,0,1,7.79-1.18l-5.73-7.53c.25-1,.56-.16-.69-.2-.86,0-1.79.15-2.65.2-2.79.15-5.58.18-8.37.16-5.28,0-10.54-.39-15.79-.95v11.89s4.26,1.25,6,1.11q4.37,2.22,2.25-5.55l-1.46.13c-3.35-.37-7.36.63-10.72,1-5.14.49-11.37,2.19-10.89,8.73.46,6.27,6.79,9,12.34,8.93,2.81-.06,5.5-1.59,7,1.49,1.15,2.4.42,8-1.11,10.11l3.56-2.74-.89.29,4.59.6-1-.69,2.74,3.56L192,232.89l-2.95-5.14,0,.78,1.74-4.21q2.26-.72-.76-.52l-1.71-.11c-2-.13-4-.24-6-.38s-4.88,0-5.81-1.92l-5.14,9a27.74,27.74,0,0,0,17.88-5.58c4.44-3.38,3.4-11-3-11.09l-4.83-.06-3.22,0q2.86,3.26,2.2.65c.48-1.27-.22-3.87-.12-5.33a17.33,17.33,0,0,1,.32-2.76q1.6-3.84-3.15-.45L173.94,203c.18.3.36.59.06.89v-6a10.39,10.39,0,0,1-3.48,4.63c-1.81,1.42-4.36,1.39-4.38,3.84s1.47,1.08,3.6.83a17.8,17.8,0,0,1,7,.35l1.58-11.69a109.26,109.26,0,0,0-25,4.61c-5.11,1.59-5.62,8-1.42,10.88a226.84,226.84,0,0,0,22,13.4l3-11.09a23.91,23.91,0,0,1-8.69-.6,31.41,31.41,0,0,1-3.37-.9,3.91,3.91,0,0,1-1.48-.6q-1.58-1.16-.15,1.85c1.1-6.13-7.74-11.12-10.88-4.59l-7.13,14.85,10.28,6a19.36,19.36,0,0,1,9.51-9.67l-8.75-3.56c.85,2.55-7,0-7.92-.34-4.64-1.64-9.25-3.4-13.87-5.11-3.5-1.29-7.79,2.08-7.54,5.74.09,1.27.66,5.78.59,5.93l3.56-2.74-.89.23,4.59.6-.81-.41,2.74,3.56-.12-.77-5.74,7.54c6.86.43,12.52-3.81,16.07-9.39a41.23,41.23,0,0,0,4.05-9.75c.79-2.48,1.85-7.53,3.52-8.82l-4.59.6.92.13-3.56-2.74c.74,1-2.24,6.22-2.7,7.07l11.09,3c-.17-1.49.47-1.81.48-3l.55-.53q3-1-2.39-1.93l-.6-4.59c-.39,2-5.46,5.16-7.4,4.34l3.56,2.74c-1.33-2.07,1.23-9.69,1.23-9.69H139c.76,2.25-1.28,3.37-2,1l-5.77,7.54c1,0,2.24.23,1.94,1.56l8.79-3.56-13.17-9.45C122.54,190.58,116.56,200.9,122.75,205.35Z" transform="translate(-111 -165)" />
    <path class="cls-3" d="M325.77,165H345q0,45.74-.06,91.48c-.06,26.84-4.23,52.91-14.63,77.82-15.58,37.33-41.84,65.47-75.35,87.29-8.28,5.39-16.86,10.31-25.3,15.44l-2.19-.37c-1.17-1.56-3.11-2-4.7-2.85a286.61,286.61,0,0,1-38.88-25.26c-42.41-33.43-66.7-77.08-71.16-130.8-3.09-37.11-1-74.42-1.19-111.64l19.06-.26h49.54l18.2,0h29.31c7.89,0,15.77.16,23.66.06,2.23,0,4.71,1,6.71-.94h10.11c1.28,1.61,3.09,1,4.68,1,7.87,0,15.73,0,23.6,0,7.21,0,14.42.13,21.62,0C320.61,165.89,323.4,167,325.77,165ZM174,255q0-.31,0-.61,30.86,0,61.72,0c32.9,0,65.8-.17,98.69,0,4.48,0,6-1,6-5.78-.27-24.63-.24-49.26-.09-73.89,0-4.08-.92-5.62-5.28-5.46-12,.43-23.94.54-35.91.57q-89.08.17-178.16.12c-4.44,0-5.69,1.09-5.62,5.59q.58,37.18.51,74.37c0,4.39,1.47,5.28,5.51,5.23C138.91,254.89,156.45,255,174,255Zm54.38,177.17c.11-1.59.23-2.38.22-3.17q-.34-83-.61-165.95c0-3.65-1.51-4-4.49-4q-51.61.17-103.22.1c-3.34,0-4.25.94-4.18,4.28A187.65,187.65,0,0,0,131,334.18c16.81,39.17,45.53,67.51,81.63,89C217.68,426.2,222.81,429,228.38,432.17Z" transform="translate(-111 -165)" />
    <path class="cls-3" d="M258.06,165c-2,1.91-4.49.91-6.72.94-7.9.1-15.79,0-23.69-.06q0-.44,0-.88Z" transform="translate(-111 -165)" />
    <path class="cls-3" d="M325.9,165c-2.37,2-5.17.89-7.74.95-7.21.15-14.43,0-21.65,0q0-.48,0-1Z" transform="translate(-111 -165)" />
    <path class="cls-3" d="M227.69,165q0,.44,0,.88H198.3q0-.44,0-.87Z" transform="translate(-111 -165)" />
    <path class="cls-3" d="M159.82,165.84H130.47q0-.43,0-.85h29.36C159.84,165.28,159.84,165.56,159.82,165.84Z" transform="translate(-111 -165)" />
    <path class="cls-3" d="M296.54,165q0,.48,0,1c-7.88,0-15.76.07-23.63,0-1.59,0-3.4.61-4.69-1Z" transform="translate(-111 -165)" />
    <path class="cls-3" d="M159.82,165.84c0-.28,0-.56,0-.84H180.1q0,.42,0,.85Z" transform="translate(-111 -165)" />
    <path class="cls-3" d="M130.49,165q0,.43,0,.85l-19.09.26-.13-1.12Z" transform="translate(-111 -165)" />
    <path class="cls-3" d="M180.08,165.85q0-.42,0-.85h18.23q0,.44,0,.87Z" transform="translate(-111 -165)" />
    <path class="cls-4" d="M180,300l-44.48,8.32L180,334.4l44.45-26.12Zm-1.16,10.73c1.83,0,3.31.78,3.31,1.74s-1.48,1.74-3.31,1.74c-1.52,0-2.79-.53-3.19-1.27l-23.85,4.92-2-1.13,25.73-4.53C175.83,311.34,177.21,310.7,178.86,310.7Z" transform="translate(-111 -165)" />
    <path class="cls-4" d="M201.39,323.37l-.51,11.95s-13.71,2.35-20.87,11.41c-7.16-9.06-20.87-11.41-20.87-11.41l-.51-11.95L180,335.83Z" transform="translate(-111 -165)" />
    <polygon class="cls-4" points="41.39 180.28 40.73 152.81 38.87 151.72 35.7 178.99 37.15 181.41 38.25 170.28 37.94 181.66 39.22 181.06 39.51 171.63 39.83 181 41.39 180.28" />
    <path class="cls-4" d="M188,190h74v36H188Zm-4.66-5a1.3,1.3,0,0,0-1.34,1.26v43.48a1.3,1.3,0,0,0,1.34,1.25h83.33a1.3,1.3,0,0,0,1.34-1.25V186.26a1.3,1.3,0,0,0-1.34-1.26Z" transform="translate(-111 -165)" />
    <path class="cls-4" d="M209,232h31.71c.31.27.55.44.29.66v1c.27.21,0,.39-.29.37H208.33c-.31,0-.55-.16-.33-.37v-1c-.22-.22,0-.39,1-.39Zm-30.39-1c-.89,0-1.61.5-1.61,1.11v2.78c0,.61.72,1.11,1.61,1.11h91.78c.88,0,1.61-.5,1.61-1.11v-2.78c0-.61-.73-1.11-1.61-1.11Z" transform="translate(-111 -165)" />
    <path class="cls-5" d="M298.93,343.94c0,.1,0-.11.19-.18v-.1a.47.47,0,0,1,.07-.28c0-.06.22,0,.29-.09s.07-.26.13-.38c.17-.32.51-.57.65-.91,0-.09-.1-.13-.09-.2l.12-.24c.07-.1-.17-.38-.18-.5s.08-.21,0-.38-.13-.21-.14-.34v-.45l.05-.21c0-.09-.11-.15-.07-.26.11-.3.42-.5.54-.82.06-.15,0-.4.06-.54a3,3,0,0,0,.45,0l.32-.25V338c.1,0,.11-.12.16-.16h.12l0,.11c0-.07,0-.27.09-.28s0,0,.12.06l.07-.05.15.09,0-.07-.06,0,0,0,.19-.06,0,.12.06.1s.05.12.08,0,0,0,.08,0l-.05-.12c-.1-.06-.07,0-.05-.19a3.5,3.5,0,0,1,.61-.48l0,.09c.15.28.09-.1,0,.18l0,.1.17-.1h.09c.05-.05-.17-.18-.13-.29l.21-.26.1-.08,0,0c-.12,0,.07-.17.09-.18l0,0c.12.15-.05.21-.06.37V337c.13,0,.33-.57.41-.57l.1.11v.05c.06,0-.05-.18.07-.08v.14l0-.21-.1,0,0-.05-.05.05c-.08,0,0-.31.07-.4l.14,0V336c.12,0,.06.12,0,.18v.07c.16-.3,0-.22,0-.33l.08,0c0-.06-.13-.09-.12-.2s.08,0,0-.11l.09-.1,0-.09v.09c.1,0,0-.18.14,0,0,0,0,.27.11.23s0-.27.1-.3h.16l0-.18,0,.05h.24c.11-.08,0-.19.07-.3l.17-.31c-.06-.11,0-.24-.06-.29l-.13-.13c0-.16.13.05.17.08l.08-.17.18-.1V334l0,0s-.17-.17,0,0l0,0c0-.06,0-.22.06-.16l.09.29c0,.09-.11-.14-.15-.06l.07.14.07-.07.05.14c.19,0,.09.2.09.29s.11,0,.1.14l0,0,.07-.07v0l.11.14a4.92,4.92,0,0,1,.15.84c0,.22.06.45,0,.66a1.24,1.24,0,0,0,0,.48,1.92,1.92,0,0,1,.17.61,1.29,1.29,0,0,1-.32.68l-.07,0c-.11-.14,0,.17-.1-.08l0-.25-.07-.07c0-.13.09-.23-.16-.13s-.06.7-.06.7l.12.11c0,.26-.25.52-.09.67l-.24.06-.22.47c0,.13,0,.21.07.34a7.77,7.77,0,0,1-.46,1.19c-.59,1.28-1,2.43-1.62,3.74-.08.17-.09.37-.17.55s-.21.58-.33.85a4,4,0,0,1-.29.45c-.12.2-.16.5-.3.69l-.44.2a1,1,0,0,0-.42,0c-.31.1-.52.3-.84.32h-.12c0-.11-.07-.08-.14-.15-.23-.22-.41-.14-.52-.24s-.06-.19,0,0l0,0c0-.1-.19-.11-.25-.17l-.12-.33,0-.12c-.05-.11-.18-.18-.2-.3l.06-.69.08-.08h.05c-.09-.12,0,0,0-.12l-.1-.09v-.29l-.17-.21-.08-.64.09-.1-.06,0,.09-.29" transform="translate(-111 -165)" />
    <path class="cls-5" d="M291.53,343.6c-.13.25,0-.36,0-.12l0,.12" transform="translate(-111 -165)" />
    <path class="cls-5" d="M298,322.91c-.19-.14.18-.2.17-.12s-.17,0-.17.13" transform="translate(-111 -165)" />
    <polyline class="cls-5" points="154 156.15 154 156.15 154 156.1 154 156" />
    <polyline class="cls-5" points="150.73 149.28 150.7 149.31 150.73 149.28 150.73 149.28" />
    <polyline class="cls-5" points="151.15 149.64 151.23 149.58 151.15 149.64" />
    <polyline class="cls-5" points="157.07 116.54 157.09 116.52 157.07 116.54" />
    <polyline class="cls-5" points="155.33 157.99 155.33 158 155.34 158 155.33 157.99" />
    <polyline class="cls-5" points="155.24 154.37 155.19 154.39 155.24 154.37" />
    <line class="cls-5" x1="155.43" y1="158.15" x2="155.43" y2="158.15" />
    <line class="cls-5" x1="186.89" y1="157.59" x2="186.87" y2="157.64" />
    <polyline class="cls-5" points="187.7 151.22 187.74 151.2 187.74 151.19 187.7 151.22" />
    <polyline class="cls-5" points="157.06 116.55 157.06 116.55 157.06 116.55 157.06 116.55" />
    <path class="cls-5" d="M308.12,308.87l-.2-.09v.06c0,.1,0,0-.09.06h-.08l.14-.17,0-.13a1,1,0,0,1,0-.37l0-.14c-.06-.09-.08,0-.1-.2s.19-.51.15-.57l-.65-.11c-.13.07-.14.31-.33.42a4.25,4.25,0,0,1-.67.16,1.13,1.13,0,0,1-.56.24c-.17,0-.3-.13-.47-.06a1.89,1.89,0,0,1-.79.26c-.11,0-.19-.12-.3-.08-.33.12-.53.5-.91.58-.11,0-.12-.08-.21-.11h-.27l-.1-.07,0,0-.09-.07c-.11,0-.18.2-.28.25l-.07,0-.07,0-.16.15c-.22.16-.18.08-.41.08s-.24.06-.36.06c-.27,0-.8-.68-.93-.88l0-.16L300,308l0,0c-.09.18-.23.4-.32.58s-.21.32-.21.38l.47.76.12,0c.08.09.12.36.24.49l.21.09c.15,0,.26.3.4.38a9.22,9.22,0,0,0,1.44.48,10.6,10.6,0,0,0,1.61.57c.14,0,.94-.08.91,0s-1.08,1.25-1.29,1.5c-.39.45-.75.92-1.12,1.38-.11.13-.29.47-.44.54s-.86-.1-1.2,0a1.64,1.64,0,0,0-.8.44c-.06.09,0,.19-.13.24s-.47,0-.7.12-.2.2-.27.25a9.77,9.77,0,0,1-.53.89c-.1.13-.25.23-.35.37v.1q0,.43,0,.86c0,.86,0,1.71,0,2.57a2.42,2.42,0,0,0,0,.58c.09.28.52.54.52.85v0l.09-.13c.06-.08.22-.29.2-.4v0l0,0c0-.11.1-.11.09-.26v-.05l0,.11.05,0,.05-.15.12,0,.12-.2c.36-.43.78-1,1.2-1.41a3,3,0,0,1,.55-.48l.12-.17a4,4,0,0,1,.92-.74,5.44,5.44,0,0,0,1.55-1.23,13.35,13.35,0,0,0,1.35-1.72c.1-.19.17-.4.28-.58a6.54,6.54,0,0,0,.71-1.24c0-.11,0-.19,0-.3.05-.52.51-1,.68-1.48,0-.09,0-.12,0-.22s.21-.17.27-.29a7,7,0,0,0,.27-.77c0-.11.14-.13.18-.23v-.17c0-.08.2-.16.18-.27l-.06-.13a3.39,3.39,0,0,1,.07-.49l0-.28V309c.1-.23.56,0,.5-.16" transform="translate(-111 -165)" />
    <path class="cls-5" d="M299.2,307.13,299,307c-.15,0-.24.29-.3.41s-.36.44-.35.7l.06.27v.29h.33c.35,0,.45-.19.75,0l0,0c.09-.18.22-.4.31-.57l-.1-.11,0-.05c-.08.07-.19,0-.32,0s-.21.25-.27.08.1,0,.14-.06l.09-.18.26-.08.12-.15c.1-.07.35-.06.23-.31a5.75,5.75,0,0,0-.3-.54h0c-.47.2-.2.42-.4.4" transform="translate(-111 -165)" />
    <path class="cls-5" d="M294.52,301.71l0,0c-.13,0,0,0-.11.06l-.07-.07c-.09,0,0,.06-.12.11h-.13c-.08.07-.07.1-.19.14l-.07,0c0,.07.06.23-.06.3s-.27,0-.36,0h-.06l0,.23c0,.13-.12.23-.09.37s.11.15.08.25a7.79,7.79,0,0,1-.34,1.11l-.09.09c-.05.22.16.69.15.94l.19-.08.33,0c.05-.05.05-.28.22-.18l.27.39c.06,0,.21-.84.33-.81l.07.1.25,0c.1.07.07.26.25.28s.44-.09.49-.19v-.07c.08-.1.2.21.23.22l.06-.07.1,0,.14-.09.37.13.21,0c.15,0,.23.16.36.22s.24,0,.33.1.27.42.44.58.41.23.56.4.12.29.22.39.29.24.43.38h0l.08,0,.21.16c.2,0-.07-.2.4-.4h0l-.15-.17-.06.13-.15-.07-.06-.2-.21-.17v0c-.3.12-.18-.37-.27-.37s-.2-.22-.34-.29l-.26-.07c-.15-.18-.27-.39-.41-.58a.57.57,0,0,0-.53-.22l0,0,0,0v0l-.05-.06c-.08-.11-.13-.17-.16-.16a.35.35,0,0,1-.34.06l-.17-.28.06-.11-.08-.05-.12-.12,0,0c-.06,0-.06,0-.07.09s.19.38,0,.32h0l-.13-.42-.15,0,0-.23c0-.08-.15-.15-.2-.26s0-.4-.12-.57-.07.07-.05-.09l0,0v-.07a8.73,8.73,0,0,0-.63-1.39h0a2,2,0,0,0-.29.49" transform="translate(-111 -165)" />
    <path class="cls-5" d="M303.67,311.77a10.42,10.42,0,0,1-1.58-.56,9,9,0,0,1-1.41-.47c-.14-.08-.25-.32-.39-.37l-.2-.09c-.12-.13-.15-.39-.24-.48l-.12,0-.46-.75c0-.06.21-.28.21-.37h0v0c-.3-.17-.39,0-.75,0h-.33v-.29l-.06-.27c0-.26.23-.47.35-.7a1.3,1.3,0,0,1,.21-.37h0c-.14-.15-.3-.25-.43-.38s-.13-.28-.22-.39-.4-.25-.56-.4-.24-.45-.44-.58-.23,0-.33-.1-.21-.2-.36-.22l-.21,0-.37-.13-.14.09-.1,0-.06.07s-.14-.32-.23-.22v.07c-.05.1-.39.2-.49.19s-.15-.21-.25-.28l-.25,0-.07-.1c-.12,0-.27.78-.33.81l-.27-.39c-.16-.1-.17.13-.22.18l-.33,0-.19.08c0,.11-.08.22-.08.34,0,.43,0,.25-.17.63a3,3,0,0,0-.07.63c0,.16-.33,0-.44.13s-.22.51-.33.7l-.22.2c-.07.1,0,.22,0,.32a3.38,3.38,0,0,0-.12.62l.05.09c-.09.32-.32,0-.38,0s-.29.27-.3.36.07.22.08.32-.23.54-.24.75.18.74.06,1-.64,0-.91.15c-.09.05,0,.24,0,.32s-.17.11-.19.21.56.2.67.26l.39.32v.16l.15.07,0,.13.29.14,0,.13c.06.09.21.08.27.19.17.33.19.73.35,1l.19.14,0,.14.13-.07.39.12-.06.33a1,1,0,0,0,.19.53c.09.14.69,0,.85,0a7.78,7.78,0,0,1,1.21.8l.1.11c.11,0,.3,0,.4,0l.08,0c.13,0,.21.08.33.11s.19,0,.29,0l.28,0,.08.07c.16-.11.18-.34.29-.47l.91-.46c.2,0,.23.36.54.36h.51l0,0v0c.06-.06.16-.22.26-.25s.46,0,.68-.12.07-.15.13-.23a1.6,1.6,0,0,1,.78-.43c.33-.1,1,.08,1.17,0s.32-.4.43-.53c.37-.45.72-.92,1.1-1.36.21-.24,1.24-1.35,1.27-1.47s-.75,0-.89,0" transform="translate(-111 -165)" />
    <path class="cls-5" d="M298.07,321.46a2.41,2.41,0,0,1,0-.57c0-.84,0-1.68,0-2.52q0-.42,0-.84v-.65c.1-.13.24-.23.34-.36a9.74,9.74,0,0,0,.52-.87l0,0h-.51c-.31,0-.34-.31-.54-.36l-.91.46c-.11.13-.13.36-.29.47l-.08-.07-.28,0c-.1,0-.2,0-.29,0s-.21-.09-.33-.11l-.08,0c-.1,0-.29.09-.4,0l-.1-.11a7.76,7.76,0,0,0-1.21-.8c-.16,0-.76.11-.85,0l-.06-.11h-1.55l-.08.55a1.57,1.57,0,0,0-.39.42h0c.15.11.08.28.1,0h.12c.08.41-.15.38,0,.45l.29.12c.07.16-.13.34,0,.52l.12.07,0,.2.17.09a2.76,2.76,0,0,1,.26,1.27c0,.1-.18.18-.2.29l0,.18-.28.13-.12.32c-.06.11-.2.17-.25.23l-.07.27c0,.08-.19.18-.2.27l.08.25c0,.22-.07.45.12.67v.17c-.19,0-.17.06-.19.08a7.8,7.8,0,0,1,1.48.84l1.68,1a3.47,3.47,0,0,1,.61.37c.11.2-.12.44-.07.48l.12,0,0,.13a10.59,10.59,0,0,0,1.4,1.1l0,0,0-.07.15,0,.05-.05.05-.16.17-.36-.12-.07c.14-.11.12.06.17,0a.76.76,0,0,0,.14-.31l.27-.08v0l-.08-.05c.21,0,.13-.27.15-.29s.11,0,.18-.07l.07-.25.05-.05-.1.05,0-.14,0-.18,0-.05c.06.06.12-.1.23-.14s.47,0,.4-.2,0-.21.08-.14l0,.07,0-.05-.07,0,0-.2,0-.07.08.13,0-.1v0l0-.05,0,.05v0l0,.06.08-.07.21,0a1.14,1.14,0,0,0,.25-.3v0c0-.3-.42-.55-.51-.83" transform="translate(-111 -165)" />
    <polyline class="cls-5" points="176.71 151.76 176.69 151.72 176.71 151.76" />
    <path class="cls-5" d="M290.38,316c-.21.08-.41-.14-.5-.14s-.21.12-.3.14h-.38l-.2.14v.59l-.19-.09s-.05-.24-.15-.23-.14.19-.27.18-.21-.21-.35-.16l-.23.14-.08.18c.23-.16-.1.44-.1.46s.16.12.09.3a.81.81,0,0,0-.12.48h.1c0-.11,0,0,.07,0l0-.09.1.13c.12.07.09-.07.15.07s.12,0,.1.12l-.82.94-.25.11,0,.14-.25.18c-.06.1,0,.28,0,.37s-.23.37-.25.44a4.82,4.82,0,0,0-.05.67,3.31,3.31,0,0,0-.07.87l.24-.07c.1,0,0,.19.14.16s.29-.35.39-.43l.63-.63,2.23,1h.66c0-.44.06-.42.08-.44s0-.06.19-.08v-.17c-.19-.22-.12-.46-.12-.67l-.08-.25c0-.09.16-.19.2-.27l.07-.27c.05-.06.19-.12.25-.23l.12-.32.28-.13,0-.18c0-.11.17-.18.2-.29a2.76,2.76,0,0,0-.26-1.27l-.17-.09,0-.2-.12-.07c-.12-.18.08-.36,0-.52l-.29-.12c-.12-.06,0-.45,0-.45H291c0-.08,0-.25-.1-.36h0a1.71,1.71,0,0,1-.47.5" transform="translate(-111 -165)" />
    <polyline class="cls-5" points="177.21 122.74 177.35 122.65 177.29 122.68 177.16 122.74 177.21 122.74" />
    <line class="cls-5" x1="176.39" y1="122.28" x2="176.42" y2="122.3" />
    <polyline class="cls-5" points="176.68 122.53 176.63 122.5 176.54 122.44 176.68 122.53" />
    <polyline class="cls-5" points="176.49 122.42 176.54 122.44 176.42 122.3 176.49 122.42" />
    <polyline class="cls-5" points="177.16 122.74 177.12 122.75 177.13 122.75 177.16 122.74" />
    <polyline class="cls-5" points="177.52 122.61 177.5 122.62 177.52 122.61" />
    <polyline class="cls-5" points="177.39 122.71 177.37 122.7 177.37 122.7 177.39 122.71" />
    <polyline class="cls-5" points="177.14 123.84 177.13 123.9 177.14 123.84" />
    <path class="cls-5" d="M291.48,294.69l-.5-.51,0-.07-.18-.24c-.28-.53-.6-1-.89-1.54l-.18-.31-.08,0c-.05-.11.07-.2,0-.26l-.09-.15c0-.08-.41-.5-.44-.61h.09l-.14-.19c.08,0,.12.11.1,0s-.28-.24-.35-.32-.2-.36-.37-.4l0-.17c-.05-.1-.16-.14-.22-.25a1,1,0,0,0,0-.36c0-.1-.26-.16-.27-.27l.14-.28-.05-.07h.09v0h0l.14.2V289a1.08,1.08,0,0,0,.21.37c.07.08.21.14.28.23s0,.38.1.46l.33.25c.23.2.34.49.68.57v-.12c.07-.12.16-.12.12-.33l-.06-.15a2.74,2.74,0,0,0,.17-.44c0-.2,0-.59.13-.78v0c-.23-.59-.51-1.26-.78-1.84l-.19.13a1.18,1.18,0,0,1-.5.07c-.1,0-.07.08-.17.11l-.11-.12-.13.08h0l.08,0-.07.05h0c-.06,0-.11.07-.2.08l0,0h0c-.12,0-.22-.12-.32-.19v0l0,.07,0-.07v.1l0,.05c-.06.12-.14-.07-.13.07l-.08,0,0-.14h-.06l0,0,0-.07-.12,0,.09-.12V287h0c-.12,0-.23.15-.39.07a.69.69,0,0,0-.39-.11l0,0c.07.07.09-.05.14.06l0,0c-.09,0-.12,0-.27,0l-.22.06.09,0,.17-.11.1-.05c-.12,0-.28.14-.41.15s0-.05-.14,0l0,.15-.11.09h.06v0l0,0-.13,0-.08-.1c-.07,0-.56.65-.94.54-.15,0-.25-.17-.42-.21s-.41,0-.56,0l-.07-.15-.17.09c-.15,0-.23-.17-.28-.2s-1-.19-1.15-.22-.71.19-.82.08l0-.11h0c-.45.43-.1.4-.05.85,0,.23-.29.53-.26.67s.11.18.13.27,0,.25.06.38.1.18.12.27a11.46,11.46,0,0,1,.06,1.72q.05,1.77.1,3.53,0,.84,0,1.67l0,.59h.68l2.21,0,2.26,0a6.11,6.11,0,0,0,.86,0c.06-.05,0-.23.13-.25s0,.23,0,.24l.75,0h.9c.34.11.18.32.67.25l.14,0c.09-.09,0-.37.11-.46s.4,0,.52-.1l.19-.6.26.08c.11,0,.26-.3.33-.4h0a.66.66,0,0,1-.18-.38l0-.3,0-.17.3,0v0C291.63,294.69,291.55,294.74,291.48,294.69Z" transform="translate(-111 -165)" />
    <path class="cls-5" d="M281.56,298.83V299l-.56,1h-.07c-.05-.93,0-.67,0-.56,0,1,0,2.12.06,3.13,0,.26,0,.52,0,.77v.17h-.08a1.49,1.49,0,0,0-.54,0l-.27,0c-.38.13.05.43-.18.63s-.18.39-.23.46-.27,0-.32.14l-.39.07v-.17c.07,0,.13,0,.13.09s-.53.25-.52.44.25.28.24.46-.51.35-.51.67.42.06.42.06l.28.15-.09.17c0,.11.12.22.13.32v.17l.16-.06-.09.48c.07.35.5.17.48.51l-.11.34c.26.43.69.71.87,1.2.07.18,0,.23-.05.38l0,.29c0,.16-.23.08-.22.29l.09.1.06-.06c0,.12-.17.23-.07.32s.69,0,.79,0l0,.13c0,.09-.25.2-.09.31s.61.06.74.17l.13.21c.1.11.25.07.33.19s-.16.24-.07.36l.17.09c.13.19.27.17.47.29s.38.4.6.53l.13,0s-.13.22-.09.34l.28.23-.09.08,0,0a2,2,0,0,1,.46.19c.63.42.21.38.42.71l.19.25,0,0a2.2,2.2,0,0,1,.35.33v.06l-.4.06.25,0,0,.14c.07.1.2,0,.27.09l.12.07.32-.28c.11,0,.47.23.49.21l.23-.36.34.12,0,.2.1,0c.11.05,0,0,.05.11l.19.14.07.16.35.11,0,.27.2-.07.08.15,0,0,.08-.18.23-.14c.15,0,.23.15.35.16s.18-.17.27-.18.12.2.15.23l.19.09v-.11l.26-.14s.05,0,.08-.49h.16c0,.49.05.49.08.49s.21-.15.3-.14.29.22.5.14a1.71,1.71,0,0,0,.47-.51,1.57,1.57,0,0,1,.39-.42l.08,1.45h1.36a.84.84,0,0,1-.13-.42l.06-.32-.38-.12-.13.07,0-.14-.18-.14c-.17-.31-.19-.71-.35-1-.06-.11-.2-.11-.27-.19l0-.12-.28-.14,0-.12-.15-.07v-.16l-.38-.31c-.12-.06-.7,0-.66-.26s.17-.15.19-.21-.08-.26,0-.31c.27-.15.75.24.9-.15s-.08-.72-.06-1,.24-.61.24-.74-.09-.21-.08-.31.19-.36.3-.35.29.33.38,0l-.05-.09a3.33,3.33,0,0,1,.12-.61c0-.1-.06-.22,0-.31l.22-.2c.11-.18.14-.54.33-.69s.4,0,.43-.13a3,3,0,0,1,.07-.62c.16-.37.16-.19.16-.61,0-.11.08-.22.08-.33s-.2-.71-.15-.92l.09-.09a7.69,7.69,0,0,0,.34-1.09c0-.09-.06-.17-.08-.24s.08-.24.09-.37l0-.23h.06c.1,0,.26.08.36,0s0-.23.06-.3l.07,0c.12,0,.11-.07.19-.14h.13c.09,0,0-.06.12-.11l.07.07c.07-.09,0-.07.11-.05l0,0a2,2,0,0,1,.28-.48h0l0-.06-.05-.05v.05l-.12-.15h-.17l.09-.07h0s-.19.1-.17,0l0-.07c0-.13-.29-.16-.35-.25v-.09c-.11-.11-.23.07-.33-.15l0-.21a5.6,5.6,0,0,1-.25-.6l0-.21c-.06-.21-.18-.46-.11-.66s-.17-.49-.16-.64l0-.12s.13.28.14.13l-.39-.56,0-.21-.06,0,0,0v-.09l0,0,.06-.07c0-.12-.38-.25-.43-.28s-.14-.24-.24-.32l-.23,0-.25-.16,0-.07a2.85,2.85,0,0,0-.17-.24h0c-.08.09-.22.35-.33.39l-.25-.08-.19.59c-.11.1-.4,0-.51.1s0,.36-.11.45l-.14,0c-.48.07-.32-.14-.66-.24h-.89l-.74,0s.14-.27,0-.24-.06.19-.13.24a6.05,6.05,0,0,1-.84,0l-2.21,0-2.17,0h-.78q0,.79,0,1.58v.34" transform="translate(-111 -165)" />
    <polyline class="cls-5" points="158.14 120.65 158.06 120.59 158.1 120.63 158.14 120.65" />
    <polyline class="cls-5" points="169.53 134.84 169.6 134.83 169.6 134.8 169.53 134.84" />
    <path class="cls-5" d="M269.09,285.88l.08.19c-.16.17-.47.17-.65.31l-.1.12-.16,0c-.05.05,0,.22-.16.25s-.23,0-.32.2.11.44.09.64-.61.78-.75.67l-.2.15c0,.11.2.31.25.42a1.82,1.82,0,0,1,.16.86,5.12,5.12,0,0,0-.12.62c0,.13.16.28.15.42,0,.35-.31.31-.2.84l0,.14.08,0,0,.14-.05.22c-.1.12-.51.12-.48.37s.48.61.56.88v.5l.16.09,0,.16c.12.23.29,0,.45,0l.82.29c.2.18.16.65.37.82a12.09,12.09,0,0,0,1.4.33c.24.09.65.61.79.63l.4-.2a12.33,12.33,0,0,1,1.37-.71,17.41,17.41,0,0,1,1.66.83c1.41.72,2.83,1.45,4.23,2.2l1.5.82c.11.06.39.29.52.29l.07-.05h0c0-.11-.06-.37,0-.43h1v-.17c0-.11,0-.23,0-.34q0-.79,0-1.58l0-.59,0-1.67q-.05-1.76-.11-3.53a11,11,0,0,0-.06-1.72c0-.1-.1-.18-.12-.27s0-.25-.06-.38-.12-.18-.14-.27.3-.44.27-.67c0-.46-.41-.42.06-.85h0a1.36,1.36,0,0,0-.14-.33c-.08-.08-.62,0-.76,0s-.22-.14-.41-.17a2.35,2.35,0,0,1-.29,0l-.11,0,0,.07,0-.05-.19-.13c-.07-.11.09-.05.06-.14s-.07,0,0-.12,0,0,0-.05l-.36-.11a5,5,0,0,1-.53-.21c-.15,0-.24.09-.4,0l-.31.17a2.18,2.18,0,0,1-.29,0,1.71,1.71,0,0,0-1,.82.79.79,0,0,0,.08.61l.11.15c.1.53-.7,1.06-1.16,1-.21,0-.5-.4-.67-.51l-.33-.14a3.74,3.74,0,0,0-1-.31,1.87,1.87,0,0,1-1-.23c-.34-.25-.16-.75-.43-1,0,0-.52-.09-.63-.13s-.17-.15-.28-.19a3.62,3.62,0,0,0-.53-.11c-.11,0-.19-.11-.3-.12s-.49.19-.86.07-.39-.23-.61-.28l-.11-.06a1.46,1.46,0,0,0-.09.53" transform="translate(-111 -165)" />
    <path class="cls-5" d="M267,282.35l-.2.06s.12,0,0,.12l-.24.13.15.07-.14.55c0,.15.07.24,0,.39l-.08.18.12.11a1.43,1.43,0,0,0-.19.32c0,.1,0,.21,0,.29s-.3.12-.38.21L266,285c-.11.1-.25,0-.28.33s.13.33.16.48l0,.22.27.11c.2.15.09.43.18.6s.47.27.6.48a10.64,10.64,0,0,1,.21,1.48l.06.43c.13.11.71-.5.72-.67s-.19-.45-.09-.64.17-.17.31-.2.1-.2.15-.25l.15,0,.1-.12c.18-.14.47-.14.63-.31l-.08-.19a1.49,1.49,0,0,1,.09-.53l-.09-.06h0l-.23,0,0-.09.13,0-.16-.09c0-.08.07-.19,0-.26s-.11.13-.27.15,0-.18,0-.24l-.21.06a.63.63,0,0,1-.36-.4c-.08-.37.66-.52.82-.84,0-.09.13-.37.24-.37l-.11-.12,0-.29c0-.08-.42-.16-.46-.5s.17-.3.33-.35l.1-.18.2-.21,0-.22-.25.16-.15,0-.17.16-.11-.09h-.07l.14-.1-.12-.1c-.12-.14.12-.06,0-.17l.12,0-.35-.08,0,0h.09c0,.16-.15.08-.1,0h0l0,0h0v-.08l-.5.09c-.2,0-.31.22-.57.27v.11" transform="translate(-111 -165)" />
    <path class="cls-5" d="M257.88,283.58l-.11.15.12.13-.12.1.08.32c0,.12-.15.27-.14.39s.11.06.09.16-.13.19-.11.31l.12.22c0,.11-.15.11,0,.35l.29.23-.23.18-.07.17h.09l0,.08c-.4.08-1-.25-1.44-.09-.12,0-.05.17-.13.24l-.29.09-.22.07-.26-.05c-.14.12,0,.29,0,.32l-.14.22s.2,0,.18.17v.05l-.4.06c-.14.06-.23.22-.4.25s-.34,0-.48.11-.27.4-.49.53a2.37,2.37,0,0,1-.91.11l-.05,0c-.07,0,0,.25-.15.27s-.38-.12-.54-.07-.15.17-.24.2h-.16a5.14,5.14,0,0,0-.9.59l-.16.06a2.06,2.06,0,0,0-.11.59l-.16.9v0l2.25,1.89a5.73,5.73,0,0,1,.82.69c1.39,1.22,2.81,2.55,4.26,3.7a9.76,9.76,0,0,1,.9.71l0,.39h.14l0,.09c.07.06.21,0,.27.13v.09a.81.81,0,0,0,.22.24c.1.09.24-.08.29,0s.1.2.17.25.67.11.76.27l0,.3,0,.18c0,.13-.24.17-.1.3l.13.11a4.43,4.43,0,0,0,1-.17,8.15,8.15,0,0,0,1.45-.27,2.21,2.21,0,0,0,.38-.33c.42-.36.83-.78,1.27-1.1.61-.44,1.3-.8,1.94-1.19.83-.51,1.65-1.07,2.52-1.52-.2-.17-.16-.64-.36-.82l-.79-.29c-.15,0-.32.18-.44,0l0-.16-.15-.09v-.5c-.07-.27-.51-.62-.54-.88s.36-.25.46-.37l.05-.22,0-.14-.07,0,0-.14c-.1-.53.17-.48.2-.84,0-.13-.13-.28-.14-.42a5.17,5.17,0,0,1,.12-.62,1.89,1.89,0,0,0-.15-.86c0-.1-.25-.31-.24-.42l.19-.15-.06-.43a10.64,10.64,0,0,0-.21-1.48c-.12-.21-.48-.27-.6-.48s0-.45-.18-.6l-.27-.11,0-.22c0-.16-.17-.31-.16-.48s.17-.23.28-.33l.08-.18c.08-.09.33-.1.38-.21s0-.19,0-.29a1.43,1.43,0,0,1,.19-.32l-.12-.11.08-.18c0-.15-.08-.24,0-.39l.14-.55-.15-.07.24-.13c.1-.1,0-.1,0-.12l.2-.06v-.11a.68.68,0,0,1-.34,0c-.11,0-.26.18-.39.05l0-.1-.07,0-.19-.11-.26,0c.07.16,0,.19-.21.19s-.39-.25-.47-.22-.07.13-.13.16-.41,0-.57.13-.12.13-.23.13-.32-.3-.72-.32l-.46,0c-.13,0-.23.13-.36.13s-.13-.07-.23,0-.15-.13-.26-.06-.17.2-.31.21l-.19-.06c-.18,0-.53.09-.74.08l-.11,0a3.58,3.58,0,0,0-1,.38c-.15.06-.15.31-.34.32s-.12-.12-.19-.13-.15.12-.24.17-.24-.08-.36,0a1.85,1.85,0,0,0-.25.29l-.6.27-.26-.06h0c0,.15.31.26.34.4" transform="translate(-111 -165)" />
    <path class="cls-5" d="M250.53,290.54h0l.09-.52a2.06,2.06,0,0,1,.11-.59l.16-.06a5.14,5.14,0,0,1,.9-.59H252c.09,0,.15-.17.24-.2s.37.11.54.07.08-.25.15-.27l.05,0a2.37,2.37,0,0,0,.91-.11c.23-.13.3-.38.49-.53s.33-.08.48-.11.26-.19.4-.25l.4-.06v-.05c0-.14-.18-.17-.18-.17l.14-.22s-.18-.2,0-.32l.26.05.22-.07.29-.09c.07-.07,0-.19.13-.24.45-.16,1,.16,1.44.09l0-.08h-.09l.07-.17.23-.18-.29-.23c-.18-.24,0-.24,0-.35l-.12-.22c0-.12.09-.21.11-.31s-.08-.1-.09-.16.13-.27.14-.39l-.08-.32.12-.1-.12-.13.11-.15c0-.14-.3-.26-.34-.4h0l-.16,0c-.27,0-.29,0-.29,0h0c-.11,0-.08-.23-.06-.32l-.13.15-.25.09-.26-.12c-.11,0-.05.08-.14.08l-.07,0v-.05c-.09,0-.28.09-.39.09-.35,0-.6-.39-.7-.63s.07-.17.07-.2-.32.06-.52.06l-.3.49a6.65,6.65,0,0,1-.85,1.25c-.38.41-1,.35-1.42.59a7.17,7.17,0,0,0-1,.8v.09a2.34,2.34,0,0,1-.09.29c-.08.26-.6.51-.66.78l0,.09a3.14,3.14,0,0,1-.21.66s.16.21.17.3a.92.92,0,0,1-.28.57c-.24.26-.46.52-.72.76s-.47.18-.65.34a2.86,2.86,0,0,1-.47.43,3.52,3.52,0,0,1-.53.19c-.19.05-.7,0-.83.11l-.09.15-.13.06,0,0h0l4,.31" transform="translate(-111 -165)" />
    <path class="cls-5" d="M241.88,296.81a5.3,5.3,0,0,1,.73.05l2.1.14.77.05c.08-.08.07-1.36.11-1.54.1-.54,1.07-.56,1.17-.68a2,2,0,0,0,.1-.6q.13-.77.27-1.54l.11-.6.56,0,1.77.12c.17,0,.64.06.66,0a2.26,2.26,0,0,0,.11-.68l.12-.68v0l.07-.38h0l-4-.31h0c-.08.11-.23.41-.29.5s-.12.34-.24.47-.71.26-.93.54L245,292c-.14.21-.29.42-.41.64s0,.49-.19.68a.85.85,0,0,1-.29.2c-.19.1-.31.36-.48.47a1.34,1.34,0,0,0-.41.35h0c.06-.06.19-.29.2-.19l-.5.75-.06.07c0,.07.1,0,0,.1l-.16.12-.11.34-.08,0-.08.2c-.1.1-.23,0-.38.25a7.07,7.07,0,0,0-.44,1.22v.16h0a1.19,1.19,0,0,1,.2-.56" transform="translate(-111 -165)" />
    <path class="cls-5" d="M242.18,298.47s-.21.19-.12.25l.12-.25" transform="translate(-111 -165)" />
    <line class="cls-5" x1="130.99" y1="133.96" x2="131" y2="133.96" />
    <path class="cls-5" d="M241.44,303.05c.12-.12.13-.37.25-.49s.19,0,.29,0a1,1,0,0,0,.5-.08l.22,0h.06c.14,0,0-.14.19-.13l.1.08h.5a4.09,4.09,0,0,1,.29.46l.09,0v.09l.13-.07,0,.09.18,0c.18.09.07.44.17.58l.14.06,0,.11h.1l.07.33h.06v.07l.27.16,0,.15c.07.11.25.15.34.2l.26-.19,0-.18.13-.37.05-.15.06,0,.14-.14c.1,0,.52.63.52.63s.11-.31.22-.36.46.06.56.1.31-.05.47-.06h.2s0-.31.11-.27l0,.22.73,0,2.05.08a8.35,8.35,0,0,0,.88,0l.06-.24a4.62,4.62,0,0,0,.17-.65c0-.08-.2-.11-1-.19l1-.17v-.61a38.86,38.86,0,0,1-.14-5.59c0-.69,0-1.37.06-2.06l0-.7,1.22.07.35,0a5.73,5.73,0,0,0-.82-.69l-2.25-1.89-.12.68a2.26,2.26,0,0,1-.11.68s-.49,0-.66,0l-1.77-.12-.56,0-.11.6q-.14.77-.27,1.54a2,2,0,0,1-.1.6c-.1.12-1.07.14-1.17.68,0,.18,0,1.47-.11,1.54l-.77,0-2.1-.14a5.3,5.3,0,0,0-.73-.05,1.19,1.19,0,0,0-.2.56h0c.13-.09,0-.3.19-.4l.08.26.09.27,0,.1c.08.13,0-.09.08-.13l0,.1h0l0,.26.1.23-.08.09c0,.11.08,0,0,.15l-.11.12c0,.05.12,0,.06.12l-.28.41h0l.07-.08v.07h-.14s.21.27.24.53a3.43,3.43,0,0,1-.32,2,3.94,3.94,0,0,0-.3.55,4.25,4.25,0,0,0-.11.57h0v.05" transform="translate(-111 -165)" />
    <path class="cls-5" d="M241.72,305.49l0-.2c.13-.1.4.06.52,0l.17-.23.14.15a1,1,0,0,0,.35.13l.16.13a.89.89,0,0,0,.51-.07c.11-.06,0-.21,0-.26s-.29.13-.41.11L243,305c-.09-.11-.2.07-.27,0s-.06-.22-.23-.21l-.39.13,0,.13a6.88,6.88,0,0,1-1,0h0l.07.19c0,.11.3,0,.31,0a4.52,4.52,0,0,0,.51,0l.07-.05c.1,0,.08.06.23.07l-.05.05-.18-.08c-.11,0-.61.08-.64.12v0c0,.19-.1.09-.16.07l0,.09-.14-.15,0-.14-.25.13a1.37,1.37,0,0,0,0,.3h0c.16-.29.7.06.89-.07" transform="translate(-111 -165)" />
    <path class="cls-5" d="M241.26,306c.16,0,.34.08.5.06s.31-.21.47-.26h.32l.81,0a3.78,3.78,0,0,1,.9.09c.1.06-.1.12,0,.18s.08-.13.15-.09l.28.21c.11,0,0-.08.13,0l.07.09.25-.12.12,0,.07-.05c.17.06.22,0,.4,0l.11,0,0-.35a.52.52,0,0,0,0-.4l-.09-.06,0-.26c-.08-.14-.13,0-.2,0s0-.13-.05-.15-.14-.19-.18-.28.16-.12.15-.21l0-.42-.15-.13c-.06-.16.11-.18,0-.4h0l-.17-.12,0-.15-.27-.16v-.07h-.06l-.07-.33h-.1l0-.11-.14-.06c-.1-.13,0-.49-.17-.58l-.18,0,0-.09-.13.07V302l-.09,0a4.09,4.09,0,0,0-.29-.46H243l-.1-.08c-.16,0,0,.12-.19.13h-.06l-.22,0a1,1,0,0,1-.5.08c-.1,0-.18-.14-.29,0s-.13.37-.25.49V302h0a3.77,3.77,0,0,1-.08.4,4,4,0,0,1-.76,1c-.22.16-.35.07-.33.14l.23.11.14.29.11.09a2.12,2.12,0,0,1,.12.45c0,.06,0,0,.12,0l.1-.07h0c.05-.07.11-.17.22-.11l-.22.11h0v0c0,.17-.2-.06-.19.21s.25-.15.29-.17l0,.14,0,.1a.11.11,0,0,0-.18.11c0,.19.06,0,.06.08V305h.07a6.34,6.34,0,0,0,.94,0l0-.12.36-.12c.16,0,.16.11.21.2s.16-.07.25,0l.14.19c.11,0,.27-.19.38-.1s.14.19,0,.24a.83.83,0,0,1-.48.07l-.15-.12a.89.89,0,0,1-.33-.12l-.13-.14-.15.22c-.12.07-.36-.08-.48,0l0,.19c-.18.13-.68-.2-.82.07h0v0l-.08.32h.09s-.2.19-.06.17l.15-.22,0,.12c.19.06.08,0,.12,0l.09.14.06,0h.16l.06-.11v.05l.07.08.06,0,.19,0c0,.06.08-.05.13-.16l0-.07h0l.13,0-.13,0,0,.08,0,.16-.07,0-.22-.08h0v0l-.08,0h-.09a1.43,1.43,0,0,1-.25.07c-.29,0,0-.14-.3,0l-.12.07.09.17h0c.16,0,.3-.11.45-.13" transform="translate(-111 -165)" />
    <polyline class="cls-5" points="131.12 142.59 131.12 142.6 131.12 142.59" />
    <line class="cls-5" x1="131.51" y1="143.6" x2="131.51" y2="143.6" />
    <path class="cls-5" d="M242.62,307.73h.16l.24-.18.27.06.14-.12s.08.15.14,0a.37.37,0,0,0-.12-.48h-.08c-.09-.12.24-.1.24-.1s0-.37,0-.48h-.29l-.81,0h-.32c-.16,0-.28.23-.47.26s-.34-.08-.5-.06-.29.1-.45.13h0a.69.69,0,0,0,.21.19c.11,0,.14-.12.14-.12v.08l.1-.07.15-.07s-.38.25-.29.38.31,0,.45,0l.11.06.05,0,0,.05c-.12,0-.14-.06-.22.14l0,.11.14-.1v0h0l0,0,0,.11c.14.08.29-.33.49-.17s.14-.07.23-.07l.09,0-.09.13.12.1-.13-.12,0-.09c-.1,0-.14.08-.24.06h-.14c0,.13-.16.25,0,.21l0,0,.12-.11,0,0,.09,0c0,.13,0,0,.06.06l0,0-.1.09-.09-.08,0,0-.08,0c0,.1,0,0-.07.05l0,.05h0v.15l.11-.12v.09l-.1.09,0,0,0,.15c.1.13.13-.11.15-.11s-.16.41,0,.26l.2-.25v.05l-.13.24,0,.06h0c.09-.14.28-.56.43-.63" transform="translate(-111 -165)" />
    <path class="cls-5" d="M244.05,312.07c-.05.15.24.09.3.19v.07l.08-.2c0-.12-.27-.07-.37-.06" transform="translate(-111 -165)" />
    <line class="cls-5" x1="132.5" y1="144.91" x2="132.5" y2="144.91" />
    <polyline class="cls-5" points="132.93 145.96 132.93 145.96 132.92 145.94 132.93 145.96" />
    <line class="cls-5" x1="132.58" y1="144.95" x2="132.59" y2="144.92" />
    <polyline class="cls-5" points="133.06 145.97 133.12 145.9 133.06 145.97" />
    <path class="cls-5" d="M244,310.1l.08-.2a.85.85,0,0,0,.43-.46l0-.17c.1-.12.3,0,.35,0s.21-.12.23-.14h.66c.2.1.23.47.33.63l.17.15-.1.24.16,0,0,.18.12.22,0,.05a.74.74,0,0,0-.16.22l-.06.18.22-.09c.13-.11.12-.18.32-.19s.1.13.1.13l.22-.09.07-.07,0,.07,0,.07v-.05l.06,0,0,.07s.13-.06.16,0l0,.11c0,.19.13.37.13.55s-.14.29-.15.42l.07-.05.16,0,.12.22.21-.05c.17,0,.19-.63.36-.48v.09c.05.1.1,0,.15,0l.18.08.14-.36c.08-.26.14-.05.13-.27v-.07l-.08,0c-.2,0-.12-.13-.15-.26v-.05c.05-.15.31,0,.36,0s0-.07.07-.05,0,.06.06.11h.1c.17-.29-.26-.41-.27-.46-.06-.32.24-.22.21-.32l-.16-.13.06-.22c-.08,0-.22.09-.25-.1s.06-.28.06-.4-.11-.05,0-.16.2-.13.21-.25-.29-.16-.32-.33.11-.47,0-.55-.19.16-.31.1l.22-.36.12,0c0-.07-.07,0-.15-.13v-.07l-.07,0-.08-.2h-.13l.06-.36-.09-.06c0-.12,0-.35-.11-.42s-.35-.13-.34,0l.09.11c0,.12-.18.11-.24.14l-.24.19c-.13,0-.4-.29-.53-.22l-.18.1-.11.17c-.13.06-.17-.23-.25-.28s-.19.26-.35.21a.24.24,0,0,1-.08-.44l-.11,0c-.18,0-.23,0-.4,0l-.07.05-.12,0-.25.12-.07-.09c-.1-.07,0,0-.13,0l-.28-.21c-.07,0,0,.15-.15.09s.09-.12,0-.18a2.12,2.12,0,0,0-.61-.08h0c0,.11.1.4,0,.48s-.34,0-.25.1h.08a.37.37,0,0,1,.12.48c-.06.1-.09,0-.14,0l-.14.13-.27-.06-.24.18h-.16c-.15.08-.33.49-.43.64h0l0,.14c.11.12.05-.09.06-.09s.07.1.08-.05l0-.08,0-.05s0,.09.15.06l.07-.07-.14.18c-.05.13.07,0,.08,0s-.14.21,0,.18l0,0v0c0,.18.16-.14.19-.2l0,.17a.61.61,0,0,0-.12.27l.11,0,.08.19v.11l.07,0,.12.06,0,.09.13,0,.09-.14,0,.09c0,.09-.07,0-.05.09l.26.21.1-.11-.08.2h.1l0,0-.06.24v0l.06,0,.05.07,0,0v.12h.08l.11.08v0l0,.15,0,0h.13l-.17.16h0l.29-.07" transform="translate(-111 -165)" />
    <path class="cls-5" d="M245.58,312.54c.1-.1.53-.53.61-.57l.08,0,0-.29c.07-.15.24-.06.3-.18l0-.35c-.1,0-.12.09-.22.18l-.22.09.06-.18a.74.74,0,0,1,.16-.22l0-.05-.12-.22,0-.18-.16,0,.1-.24-.17-.15c-.1-.16-.14-.53-.33-.63h-.66s-.08.16-.23.14-.26-.13-.35,0l0,.16a.85.85,0,0,1-.43.47l-.08.2-.29.07h0l.1.13a.46.46,0,0,0,.2.08H244l-1,0V311l.86-.11.06,0,0,0,0,.05,0,0,.11,0,.05-.07L244,311v0l.13,0-.09,0-.18.11s.11,0,.08.09-.2-.37-.22-.06l.06.07.06.15,0,.05.18-.09v.07l.14.3H244l0,0,0,.06h.1l0,.07.17.08c.11,0,.13-.16.13-.11s-.15.14,0,.15v.11c.09.05.22-.12.28,0l-.25.07c-.18.1.08.14.06.17h-.13l.49.21a2,2,0,0,1,.46.31h0c.09-.11.12-.22.21-.31" transform="translate(-111 -165)" />
    <path class="cls-5" d="M249.1,315.21l.12-.47c0-.05.08,0,.1-.07l-.06-.11.07-.14,0-.09v-.22c0-.11-.29,0-.34-.11l-.12-.37c-.14-.06-.33,0-.45-.08s0-.17-.08-.15-.14.1-.15,0l.24-.27a1.11,1.11,0,0,0-.06-.89v0l-.08,0v-.09c-.17-.15-.2.51-.36.49l-.21.05-.12-.22-.16,0-.07.05c0-.13.15-.27.15-.42s-.12-.37-.13-.55l0-.11c0-.1-.15,0-.16,0l0-.07-.06,0v.05l0-.07,0-.07-.07.07-.22.09s0-.14-.11-.13l-.1,0,0,.35c-.06.12-.23,0-.3.18l0,.29-.08,0c-.08,0-.51.47-.61.57s-.11.2-.21.31h0l.1.11v.15s.35.15.44.23l.14.11-.05,0,0,.07,0,0c0,.09.36.19.41.21l-.08-.07.13.08c0,.09.19.12.25.24a7.47,7.47,0,0,0,.75.87c.22.17.46.26.71.43a1.82,1.82,0,0,0,.27.2c.09,0,.2,0,.29.08l.23.17h.2c-.08-.06,0-.4,0-.53" transform="translate(-111 -165)" />
    <path class="cls-5" d="M261.63,300.09a3.5,3.5,0,0,1-.89.15l-.13-.11c-.15-.12.06-.17.1-.3l0-.18,0-.3c-.09-.16-.62-.17-.76-.27s-.08-.2-.17-.25-.19.13-.29,0a.82.82,0,0,1-.22-.24v-.09c-.06-.1-.2-.07-.27-.13l0-.09h-.14l0-.39a9.72,9.72,0,0,0-.9-.71c-1.44-1.14-2.85-2.46-4.24-3.68l-.35,0-1.22-.07,0,.69c0,.68,0,1.36-.06,2-.06,1.85-.07,3.71-.07,5.56q0,.3,0,.6v.17l.24.19a4.53,4.53,0,0,1-.17.64l-.06.24a8.56,8.56,0,0,1-.88,0l-2-.08-.72,0,0-.22c-.15,0-.09.24-.11.27h-.2c-.16,0-.3.12-.47.06s-.45-.15-.56-.1-.12.29-.21.35-.42-.66-.52-.62l-.14.14-.06,0-.05.15-.13.37,0,.18-.26.19-.18-.07h0c.12.22-.05.24,0,.4l.15.13,0,.42c0,.1-.15.2-.15.21s.16.18.18.28,0,.17,0,.15.11-.19.19,0l0,.26.09.06a.52.52,0,0,1,0,.4l0,.35a.24.24,0,0,0,.08.44c.16,0,.15-.33.35-.21s.12.33.25.28l.11-.17.18-.1c.13-.07.4.2.53.22l.24-.19c.06,0,.25,0,.24-.14l-.09-.11c0-.11.3,0,.33,0s.06.3.11.42l.09.06-.06.36h.13l.08.2.07,0V308c.08.11.12.06.15.13l-.11,0-.22.36c.12.06.16-.18.31-.1s0,.41,0,.54.33.22.32.33l0,.09c.15,0,.15-.19.27-.25l.2-.07.13.24.38.1s-.14-.26.18-.23l.09.06c.14,0-.05-.3.05-.36l.06.07.16.06c.06,0,0-.27.17-.19s0,.18,0,.23l.07.16c0,.07-.18.17.09.2s.14-.32.55-.26c0-.13.12-.3.12-.43l0-.27.15,0,.15-.32-.07-.22,0-.14-.12-.09h0a2.25,2.25,0,0,0,.28-.13l.53-.18c0-.08,0-.07.05-.17l.1,0,0-.13.07-.11-.09-.17c.07-.08.21,0,.26-.07s-.08-.24-.1-.38.1,0,.12-.07l0-.05.15-.12.14-.16c.17,0,0,.08,0,.11l.09,0c.14,0,.35.29.4.23s-.07-.08.07-.12H253V306l1-.22v-.07l0,0c.09,0,.26.19.35.08s-.11-.28.26-.54l.19-.13c.1,0,.35.25.44.12l.06-.37c.13-.16.67-.2.86-.28s.25-.23.39-.27.26.08.37.07l.1-.06c.1,0,.19.12.28.13s.3,0,.44,0l.17.06c.35,0,.36-.24.62-.34a2.11,2.11,0,0,1,.58,0,5.48,5.48,0,0,1,1.58,0V304c0-.11,0-.06.07-.13s.17-.07.25-.12a3.39,3.39,0,0,0,.22-.6c0-.09.12-.09.16-.16s0-.46.05-.63a16,16,0,0,0,.17-2.26" transform="translate(-111 -165)" />
    <path class="cls-5" d="M259.21,307.79c.2-.05.08-.3,0-.36s-.29.2-.51.1-.27-.32-.44-.42l-.13,0,0-.34.12,0,.09,0-.42-.35h-.13l-.22-.4,0-.21c0-.1-.22-.17-.21-.29s.08-.31.1-.49h-.16c-.1,0-.19-.13-.28-.13l-.1.06c-.1,0-.22-.12-.37-.07s-.25.21-.39.28-.73.12-.86.28l-.06.38c-.09.13-.35-.13-.45-.12l-.19.13c-.37.26-.18.43-.26.54s-.26-.06-.35-.08l0,0v-.18l1,.22v.15h-1.13c-.14,0,0,0-.07.12s-.27-.21-.41-.24l-.1,0s.18-.07,0-.11l-.14.16-.15.12,0,.05s-.14,0-.12.07.18.22.1.38-.19,0-.27.07l.09.17-.07.11,0,.13-.1,0c-.08.09,0,.08-.05.17l-.53.18a2.12,2.12,0,0,1-.28.13h0l.12.09,0,.14.07.22-.15.32-.15,0,0,.27c0,.13-.14.3-.12.43s.27.08.37.15.12.32.14.44l.1,0c.11,0,.06.17.17.2l.08,0,0,0,0-.07,0,0,.11.15.28-.27.08,0c.27,0,.17-.15.57-.11h.15l0,.05.09-.07v.09c.11.08,0,.07.11.13l.08,0,.21.36c.17-.06,0-.26,0-.36l.07-.11-.05-.24.06-.23-.09-.07.09-.09-.1-.1a5.89,5.89,0,0,1,.07-1.46h.08l.17.94.82,0,1,0c.1,0,.08.1.14.09l.05-.09h.08l.1-.12,0,.05.07-.11c.14,0,.47.12.61.15l.15,0v.07l.17-.07h.3l0-.09.11.06,0-.11.08,0v-.12l.11,0c.09,0,.08-.13.14-.18s.13,0,.21.06l.15-.05c.24,0,.37,0,.55-.26l.08-.25a1.85,1.85,0,0,1-.29-.46l.08-.05" transform="translate(-111 -165)" />
    <line class="cls-5" x1="142.49" y1="149.97" x2="142.49" y2="149.97" />
    <polyline class="cls-5" points="142.49 149.97 142.49 149.97 142.49 149.97 142.49 149.97" />
    <path class="cls-5" d="M253.85,314.57l-.18,0s0-.25-.08-.39a1.85,1.85,0,0,1-.17-.67l.07-.11,0-.11.14-.27h.07s.11-.54.14-.64l.15-.47.18-.09,0-.11.13-.07-.13-.88-.11,0a1.58,1.58,0,0,0,.09-.41h0l0,0-.21-.36-.08,0c-.07-.06,0,0-.11-.13v-.09l-.09.07,0-.05-.15,0c-.4,0-.3.07-.57.11l-.08,0-.28.26-.11-.15,0,0,0,.07,0,0-.08,0c-.11,0-.06-.15-.17-.2l-.1,0c0-.12,0-.35-.14-.44s-.33.1-.37-.15c-.41-.07-.4.28-.55.26s-.1-.13-.09-.2l-.07-.17s.14-.19,0-.24-.12.19-.17.2l-.16-.06-.06-.07c-.11.06.08.33-.05.36l-.09-.06c-.32,0-.14.19-.18.23l-.38-.1-.13-.24-.2.07c-.12.06-.12.22-.27.25l-.17.16c-.09.11,0,.07,0,.16s-.08.27-.06.4.17.06.25.1l-.06.22.16.13c0,.1-.27,0-.21.32l.27,1.12h-.1s.12-.72-.06-.77,0,.13-.07.05-.3-.18-.36,0v.05c0,.13-.05.23.15.26l.08,0v.07c0,.22,0,0-.13.27l-.14.36-.18-.08-.07,0v0a1.11,1.11,0,0,1,.06.89l-.24.27c0,.12.08,0,.15,0s0,.11.08.15.32,0,.45.08l.12.37c.05.1.3,0,.34.11v.22l0,.09-.07.14.06.11c0,.11-.06,0-.1.07l-.12.47c0,.13,0,.46,0,.53h0a3.14,3.14,0,0,0,.31-.18l.15,0,.15-.14.28-.05a3.79,3.79,0,0,1,.55-.25,1.62,1.62,0,0,1,.32-.1l.14,0,.05-.05c.06,0,.17.06.13,0l.07,0,0-.11.2.06.12,0v.09c.14,0,.34,0,.49-.05l-.07.14h.21l0-.05.33.06,0,0,0,0c.09,0,.08,0,.16.06l.07,0-.06-.11.06.13,0,.09,0-.05a1.4,1.4,0,0,0,.41.13c.05,0,0-.32.17-.27l-.05.18c.13.19.27,0,.33,0l0,0-.08,0,.17,0,0-.54" transform="translate(-111 -165)" />
    <path class="cls-5" d="M258,313h-.1l-.09,1h-.1a6.75,6.75,0,0,1-.36-1l.08-.05.08-.3c0-.11-.25-.15-.14-.31s0-.45.09-.66l.15-.09c0-.13-.28-.37-.33-.52l.05,0c.16,0,0-.16,0-.24l.07-.22,0-.2c-.08-.19-.24,0-.31,0l.07-.09-.08,0,.17-.23h-.1v.07l0,0a1.45,1.45,0,0,1,.05-.41c0-.09.05-.34-.06-.41l-.08,0-.14-.2-.11-.06c-.08-.12.19-.33.12-.46l-.18-.11h-.13l-.07.11,0-.05-.1.12h-.08l-.05.09c-.06,0,0-.09-.14-.09l-1,0-.82,0-.17-.61h-.08a10.71,10.71,0,0,0-.07,1.13l.1.1-.09.09.09.07-.06.23.05.23-.07.11.08.32h0a1.58,1.58,0,0,1-.09.41l.11,0,.13.88-.13.07,0,.11-.18.09-.15.47c0,.1-.14.64-.14.64H254l-.13.25,0,.1-.07.1a1.73,1.73,0,0,0,.16.63c0,.14.05.35.07.37l.17,0,0,.51h-.37s.59.13.74.19l.23.19c.16,0,.35-.22.44-.28s.29,0,.41-.1l.17-.1.19,0c.15-.08.24-.19.4-.28s.28-.06.39-.15a.56.56,0,0,1,.27-.15l.26,0,0-.06v0l0-.11c-.09-.08-.31-.1-.37-.12l.06,0c.09.05.14,0,.23.05l.07.08,0,.11,0,.11h.07c.26,0,.14-.15.3-.28L258,314v-.17" transform="translate(-111 -165)" />
    <polyline class="cls-5" points="130.94 141.28 130.92 141.36 130.96 141.28 130.94 141.28" />
    <path class="cls-5" d="M258.43,313.74a2.82,2.82,0,0,1-.21-.71c0-.22,0,0,.08-.07v-.07c0-.1,0-.2,0-.3a7.62,7.62,0,0,0,0-1.29v-.14a1.16,1.16,0,0,0,0-.46c-.06-.15-.25-.27-.25-.47l0-.05s0-.06-1.11-.09v-.26c1.11,0,1.12-.06,1.11-.09-.09-.19-.45-.23-.54-.42s.12-.52.16-.66,0,0,0,.32h-.15c0-.33,0-.33-.07-.33l-.17.07v-.07l-.15,0c-.11,0-.32-.12-.48-.15l.18.11c.07.13-.2.34-.12.46l.11.06.14.2.08,0c.12.08.1.32.06.41a1.37,1.37,0,0,0,0,.41l-.05,0v.11h.1l-.17.05.08,0-.07.09c.07.06.23-.17.31,0l0,.2-.07.22c0,.08.13.22,0,.24l-.05,0c0,.15.36.39.33.52l-.15.09c-.09.21.12.37-.09.66s.15.2.14.31l-.08.3-.08.05c0,.13.36,0,.36,0h.1l.09,1h.1c0-.12,0-.09.17-.07h0c-.08,0,0-.06.13-.09l.14,0h0l.17-.07" transform="translate(-111 -165)" />
    <path class="cls-5" d="M260.52,309.4s0-.06-.52-.08v-.17c.52,0,.52-.06.52-.08s-.23-.22-.23-.34.13-.19.13-.28-.21-.14-.27-.2-.35-.58-.45-.56-.08.09-.15.12l-.3,0,.07.27-.08.05h0l0,0,0,0-.08.25c-.18.25-.31.22-.55.26l-.15.05c-.08,0-.11-.15-.21-.06s0,.17-.14.18l-.11,0V309l-.08,0,0,.11-.11-.06,0,.09h-.05c0,.14-.23.52-.16.65s.46.23.54.42c0,0,0,.06-.11.09v.26c.11,0,.12.06.11.09l0,.05c0,.19.19.32.25.47a1.16,1.16,0,0,1,0,.46v.14a7.62,7.62,0,0,1,0,1.29c0,.1,0,.2,0,.3v.07c-.07.09-.05-.15-.08.07a2.8,2.8,0,0,0,.21.7l-.17.07h0a6.6,6.6,0,0,1,1.08-.16l0-.26.07-.07-.06-.29.07-.09,0-.41h0l-.06-.23,0-.2-.06-.09a2.79,2.79,0,0,1,.06-.35,5.55,5.55,0,0,1,.07-.88l.32,0c.16-.14,0-.44.19-.59s0-.09.09-.19.39-.06.34-.35c0-.13-.15-.14,0-.29s.18,0,.22-.17-.05-.13-.09-.23" transform="translate(-111 -165)" />
    <path class="cls-5" d="M260.49,308l-.06-.18.05-.07s0-.06-.49-.08v-.08c.49-.08.49-.17,1-.25v-.17c-.44-.12-.23-.17-.16-.29a4.27,4.27,0,0,0,.19-.71h.1l.22-.21c.28-.16.63,0,.81-.06s.12-.17.27-.14l.84.31c.16.14.37.6.48.64s.17-.11.29-.14l.16,0c.29,0,.4-.36.73-.2.11.05.19.22.3.25s.87.41,1.18.3c.11,0,.21-.27.31-.35a1.58,1.58,0,0,1,.9-.25,2.15,2.15,0,0,1,1,.15l.61.22.15-.26a2.53,2.53,0,0,1,.34-.23l.28-.07c.17-.12,0-.14.31-.14h.07l-.13-.79.2-.1c0-.18.06-.06.12-.17l0-.12a4,4,0,0,1,.61-.93c.2-.25.77-.75,1-1.06a.59.59,0,0,0,.12-.33c.06-.78.12-1.54.21-2.31a3.92,3.92,0,0,1,.09-.7c0-.12.26-.32.25-.43s-.36-.35-.41-.46l.07-.17c0-.12-.37-.48-.4-.58v-.17c0-.11,0-.23,0-.35,0-.35-.11-.7-.17-1h0l-.35.2-.39.2c-.13,0-.53-.55-.76-.63a11.35,11.35,0,0,1-1.35-.33c-.86.45-1.68,1-2.52,1.52-.64.39-1.34.74-1.94,1.19-.45.33-.85.74-1.27,1.1a2.21,2.21,0,0,1-.38.33,8.15,8.15,0,0,1-1.45.27l-.08,0a16,16,0,0,1-.17,2.27c-.08.17,0,.47-.05.63s-.12.07-.16.16a3.37,3.37,0,0,1-.22.61c-.09.05-.16,0-.26.12s-.06,0-.08.13v.06a5.51,5.51,0,0,0-1.58,0,2.06,2.06,0,0,0-.58,0c-.26.1-.27.35-.62.34l-.18-.06-.28,0c0,.18-.08.3-.1.49s.18.19.21.29l0,.21.22.4h.13l.42.35-.08,0-.13,0,0,.34.13,0c.16.1.27.34.44.42s.4-.16.51-.1.23.3,0,.36l-.08.05a1.86,1.86,0,0,0,.29.46h0l.08-.05-.07-.27.3,0c.07,0,.06-.1.15-.12s.39.5.45.56.27,0,.27.2l.08-.05" transform="translate(-111 -165)" />
    <polyline class="cls-5" points="154.14 150.45 154.1 150.48 154.14 150.45" />
    <path class="cls-5" d="M265.25,315.34l0-.07a4.33,4.33,0,0,0,.28-.59c0-.14-.07-.35,0-.42a3.37,3.37,0,0,0,.42-.37l.07-.14c.08-.05.17-.12.25.26h.29c.06-.5,0-.7.09-.74l.07,0c.09,0,.16-.17.25-.2s.05,0,.1.07l.26,0,.16-.22.49.42c0,.09,0,.17,0,.26l.28,0,.07-.14c.24-.16,0-.18.14-.32s.22-.12.32-.19l-.14-.19c0-.1.28-.24.32-.33v-.16c0-.09.14-.16.18-.25s0-.32,0-.46.15,0,.17-.12l0-.11.19,0,.25-.17v0c0-.09,0-.2,0-.29l.09-.16-.07-.14c0-.12.33-.13.38-.19s0-.4,0-.51.18-.07.23-.17.06-.35.13-.51a2.4,2.4,0,0,1,.46-.63l.14.05c.1,0,.52-.26.52-.37l-.08-.14c0-.24.22-.33,0-.54l-.07-.11-.33-.05s0-.6-.09-.74a4.14,4.14,0,0,0-.43-.67h-.07c-.28,0-.15,0-.32.14l-.29.07a2.74,2.74,0,0,0-.35.22l-.16.26-.63-.21a2.32,2.32,0,0,0-1.06-.15,1.68,1.68,0,0,0-.93.25c-.1.08-.2.3-.32.35-.32.12-1-.23-1.22-.29s-.21-.2-.32-.25c-.35-.16-.46.16-.76.2l-.17,0c-.12,0-.12.2-.3.14s-.33-.5-.5-.64l-.87-.31c-.15,0-.18.09-.28.14s-.54-.1-.84.06l-.23.21H261a4.15,4.15,0,0,1-.2.71c-.08.12-.3.17.16.29v.12c-.51.08-.51.17-.51.25l-.49.08v.08l.44.07.06.18-.08.05c0,.09-.13.19-.13.28s.2.24.23.34,0,.06.48.08v.17c-.48,0-.49.06-.48.08s.12.1.09.23-.15.08-.22.18,0,.16,0,.29c0,.3-.28.29-.34.35s.1,0-.09.19,0,.45-.19.59l-.32,0a5.54,5.54,0,0,0-.07.88,2.79,2.79,0,0,0-.06.35l.06.09,0,.2.06.7h0l0-.05-.07.09.06.29-.07.07,0,.26h.52l.15,0,0-.18c.08-.12.06,0,.12,0s.21-.13.34-.11l-.08,0a2.77,2.77,0,0,1-.36.17c.3.11.79-.12,1.12.14a3,3,0,0,1,.38.36l.1.13,0,.11,0,0,0,0h0l.08-.07.08,0-.17.1,0,0,.08.23c.1,0,.1-.12.15-.16l0,.11c.09.05.14-.1.2,0s-.38-.06-.32.09.24.1.35,0l.08-.06h0l-.08.06v0c0,.19-.18,0-.21.1l0,.23h.08l0,.05-.08,0s0,.13.1.27v.07l.08.09a3.55,3.55,0,0,0,.28.36l.1.05.08.05,0-.14s0,.23.08.15l.24-.12v-.12l-.14.13.07-.05-.09.14h.06l.22,0h.06l0-.18c.07,0,0,.29.15.18s0,0,0-.14l0-.14,0,.42h.15l-.46-.62v-.05c.44,0,.34.45.56.5s-.06-.34-.06-.34l.13,0c0,.08-.06.13,0,.23v-.05l.12,0,0-.11-.12-.2.27.27.17-.07.05-.14,0,.18h.26a1.83,1.83,0,0,0,.51,0c.12-.08,0-.2,0-.32l-.08-.14.2.21,0-.07,0,.11.05,0-.06,0v.05h0l0,0,0-.08v0h0l0-.06" transform="translate(-111 -165)" />
    <path class="cls-5" d="M271.64,307l.17.05,0,.07.05,0,.13.25v.3l.15.07.06.32-.05.11.06.16c0,.11-.12.25-.12.37s.06.21.06.32l0,.09a1.1,1.1,0,0,0,.33.6s.31.19.23.28-.29,0-.38,0-.31.07-.45.07-.43-.19-.6-.07l-.07.18-.15.19c.07.32,1.06.93,1.23,1.21.07.12.21.73.3.53h.08l-.07.51.27.07c.15,0,.41-.17.55-.22s.13-.27.24-.22.07.32.25.34a7,7,0,0,1,.91-.46l.17,0,.17-.07c.12,0,.52.06.59-.05l.05-.16.13-.05a2.08,2.08,0,0,0,.29-.38l0,0c0-.1-.36-.12-.2-.27s.66-.07.94-.14l.2-.09c.12,0,.29.1.39,0l.05-.14.17,0c.16-.17.33-.4.49-.6l.11-.13.08,0,.13-.19.18-.11c.12-.11,0-.32,0-.42l.28-.09c.06-.06,0-.08.07-.11l.12,0c.08,0,.17-.18.28-.19l.42.09.1-.32c0-.31-.37-.15-.44-.47l.08-.44-.15.05v-.16c0-.1-.12-.2-.12-.3l.08-.16-.25-.14s-.38.33-.38-.05.45-.43.46-.62-.22-.28-.22-.42.48-.33.48-.4-.05,0-.6-.09v-.25l.42-.07c0-.13.25,0,.31-.14s-.14-.13.23-.46-.2-.5.17-.63l.26,0a1.44,1.44,0,0,1,.53,0H281v-.17q0-.39,0-.77c0-1,0-2.1-.05-3.1l-.07,0c-.12,0-.39-.22-.5-.29l-1.44-.82c-1.35-.75-2.71-1.47-4.07-2.2a16.37,16.37,0,0,0-1.6-.83,5.91,5.91,0,0,0-1,.5h0c.05.34.14.7.17,1,0,.11,0,.23,0,.35v.17c0,.1.42.46.4.58l-.07.17c0,.1.4.38.41.46s-.21.32-.25.43a3.92,3.92,0,0,0-.09.7c-.09.77-.15,1.54-.21,2.33l-.07.25c-.22.31-.85.86-1.06,1.13a4,4,0,0,0-.61.93l0,.12c-.06.12-.09,0-.12.17l-.2.1.13.79a4.18,4.18,0,0,1,.42.67c.71,0,.29,0,.48.34" transform="translate(-111 -165)" />
    <path class="cls-5" d="M286,322.51c0,.15.06.2,0,.35s-.42.18-.24.44.15,0,.19-.05l.27.05,0,.16.47,0c.17-.07.11-.46.14-.48l.2.12c.08,0,.13-.14.24-.14s.35.24.45.05,0-.3,0-.44l0-.28c0-.27-.3-.37-.35-.64v0l-.13,0c-.1.08-.2.38-.39.43s0-.14-.14-.16l-.24.07c-.15.09-.51.33-.49.55" transform="translate(-111 -165)" />
    <path class="cls-5" d="M286.07,323.58a4.86,4.86,0,0,0,0,.82c0,.1.12.19.15.28l0,.32h.3c.36-.08.55-.69.63-.73l.07,0,.05-.25c0-.06.24-.07.22-.18l-.05,0,.07-.05a.26.26,0,0,0,.15-.37l-.08,0-.2-.09-.07.05c-.18,0,0-.27,0-.32l-.08,0,.15-.32h0l-.2-.09c-.1,0-.15.1-.24.14l-.2-.12s0,.41-.14.48l-.47,0,0-.16-.27-.05-.05.16h0c-.1.05.22.29.22.39" transform="translate(-111 -165)" />
    <path class="cls-5" d="M288.32,328.89c.06.07,0,.2.13.25s.22-.08.27,0-.08.14,0,.14a.85.85,0,0,1,.48.11l.06.11.22,0,.18.13h0l0,0,.19.16.1,0c.1,0,.08.12.13.14l.32,0,.18.13c.06,0,0-.27.12-.23l.13.15c.34.4.26.41.35.88,0,.1.1.22.1.32s-.1.2-.09.3.24.33.3.43l0,.14h0c.16,1,.44,1.09.57,1s.14-.25.31-.17c.34.17.11.35.62.35.19,0,.34-.29.53-.18l.06.12.26,0,.09.06c.45,0,.41-.55.72-.54l.41.2c.15-.1.26-.23.43.11h.07l.22-.38H296a6.25,6.25,0,0,0,1.28-.76l0-.15-.07,0-.15-.14c-.18.06.31.26-.13.09l0-.11-.15-.06v.09l-.16-.27-.14.07.13-.19-.1-.15c0-.08.09-.2,0-.34l0,0-.05,0s.11-.1.1-.19c0-.26,0-.14-.15-.17v-.23l-.12,0c-.06-.12.19,0,.19,0l-.2-.25-.06-.21c-.12-.29.17-.31.18-.61v-.19c0-.1-.07,0-.12,0l0,0-.13.07.12-.51,0-.06c0-.11.23-.17.25-.21v-.15c0-.1-.19-.21-.26-.21l-.08-.15c-.12-.28-.29-.19-.37-.35v-.25c0-.07-.11-.09-.08-.19a5.28,5.28,0,0,0,.29-.87l.11-.15,0,0,0,0,.07-.13.07-.17-.21,0v-.08l0,0A11.18,11.18,0,0,1,294.5,324l-.05-.13-.12,0c-.05,0,.19-.3.08-.51a3.76,3.76,0,0,0-.65-.39L292,321.89a8.26,8.26,0,0,0-1.57-.89h-2.83l-.54.06v0c.06.3.35.4.38.7,0,.1-.06.22,0,.31s.14.29,0,.48-.17.08-.28,0h0L287,323l.09,0c0,.05-.23.3,0,.35l.07-.06.22.1.09,0a.28.28,0,0,1-.17.41l-.07.06.05,0c0,.12-.2.13-.24.19l-.06.27-.07,0c-.09,0-.3.7-.69.79h.1c0,.19-.13.33-.09.52a5.17,5.17,0,0,1,.28.85l-.14.21c-.09.23.17.64.31.8s.27.2.38.32.18.52.33.77l.22.49h0c.36.75.53.23.77.52" transform="translate(-111 -165)" />
    <path class="cls-5" d="M272.1,313l-.18.12c-.1.13-.07.36-.17.49l-.1.05c-.09.1-.1.29-.17.41s-.39.19-.39.32.19.06.2.23a2,2,0,0,1,0,.44l-.07.12.15.2c.06.15,0,.39,0,.53s.25.15.32.27l.07.27.07.07-.14,0,.17.32a2.41,2.41,0,0,0,.72.67c.23.13.15.39.18.55l.07.34.15-.25a2,2,0,0,0,.17-.37c0-.21-.06-.48.09-.67s.32,0,.4-.05L274,317l.15-.11.08.07.19,0,.1.11.07-.05c.18.06.09,0,.25.11l.05,0,0-.09h.13l.08-.07.15.18h0a1.61,1.61,0,0,1,0-.31l.05-.25c0-.11-.11-.22-.12-.32s.21,0,.25-.12a1.51,1.51,0,0,1,.63-.74c.21-.1.86.22,1,.41s.08.24.22.33.28-.07.4,0l.19.14.12,0c.08,0,.17.1.27.09l.12-.05c.19,0,.42.14.61.18s.35-.08.35-.25-.09,0,0-.12l.1,0,.18-.33c.07-.07.47.31.56.23l0-.07a1.47,1.47,0,0,1,.71-.25l.25-.23,0,.05.1,0,.14.18.57-.09c.16,0,0-.24.13-.34l.52.11c.07.07.17-.06.29,0s.53.28.71.21.09-.18.23-.18l.37.16h0l0,0-.17-.23c-.19-.3.19-.26-.38-.65a1.81,1.81,0,0,0-.42-.17l0,0,.08-.07-.25-.21c0-.12.09-.31.08-.32l-.12,0c-.2-.13-.34-.37-.54-.49s-.3-.09-.42-.26l-.15-.09c-.08-.11.17-.19.06-.34s-.21-.08-.3-.18l-.12-.19c-.12-.1-.5,0-.67-.16s.07-.2.08-.28l0-.12c-.09,0-.71,0-.72,0s.11-.19.07-.3l0,.05-.08-.09c0-.19.16-.12.2-.26l0-.26c0-.14.11-.19,0-.35-.17-.46-.56-.71-.79-1.11l-.42-.09c-.12,0-.21.15-.28.19l-.12,0c-.1,0,0,0-.07.11l-.28.09c-.09.1.07.31,0,.42l-.18.11-.13.19-.08,0-.11.13c-.16.2-.34.43-.49.6l-.17,0-.05.14c-.1.12-.27,0-.39,0l-.2.09c-.28.07-.71-.07-.94.14s.17.16.2.26l0,0a2.21,2.21,0,0,1-.29.38l-.13.05-.05.16c-.07.11-.47,0-.59.05l-.17.07-.17,0a6.92,6.92,0,0,0-.91.46c-.18,0-.16-.3-.25-.34s-.19.2-.25.22-.4.23-.55.22l-.27-.07v0h0l-.09.18" transform="translate(-111 -165)" />
    <path class="cls-5" d="M267,318h.87l.08.19c.13-.1-.06-.16.29-.16H269a2.93,2.93,0,0,0,.81,0c.13,0,.1.09.17.13l.07.81h.19c.38,0,.79,0,1.15,0l.25.15.07-.06,0,.13.29,0c.1,0,.15.13.2.13l.16-.08.58.25.05.13.05,0c.16-.14-.29-.49.07-.66l-.07-.36c0-.17,0-.46-.2-.6a2.61,2.61,0,0,1-.77-.72l-.19-.35.15,0-.07-.08-.07-.29c-.07-.12-.27-.16-.34-.29s0-.41-.05-.57l-.16-.21.07-.13a2.24,2.24,0,0,0,0-.48c0-.19-.22,0-.22-.25s.35-.22.42-.34.09-.33.18-.44l.11-.06c.1-.14.08-.39.19-.53l.19-.13.1-.2h0l.08.14h-.09a7.83,7.83,0,0,0-.32-1.24c-.18-.3-1.25-1-1.32-1.3l.17-.21.07-.19c.18-.12.47.08.65.08s.32-.08.49-.07.33.12.41,0-.2-.25-.25-.3a1.18,1.18,0,0,1-.35-.65l0-.09c0-.11-.07-.23-.07-.34s.13-.28.13-.4l-.07-.17L272,308l-.06-.34-.16-.08v-.32l-.14-.27-.05,0,0-.08-.18-.06c-.2-.33.25-.36-.51-.36.05.15.06.76.09.8l.34.06.07.11c.24.24,0,.32,0,.59l.09.15c0,.12-.44.4-.54.4l-.14-.06a2.59,2.59,0,0,0-.48.68c-.07.17-.06.39-.13.55s-.24.09-.24.19,0,.45,0,.55-.4.08-.4.21l.07.15-.09.17c0,.1,0,.21,0,.31v0l-.25.19-.2,0,0,.11c0,.12-.15.05-.18.13s0,.35,0,.5-.15.17-.84.27l1,.09v.09s-.69.25-.68.36l.14.21c-.1.08-.24.1-.33.21s.1.17-.15.34l-.07.15-.29,0c-.07-.11,0-.19,0-.29l-.51-.45-.17.24-.27,0c0-.05,0-.12-.1-.08s-.17.19-.26.21l-.07,0-.1.32h.16l-.25.19-.07.14a3.3,3.3,0,0,1-.42.37c-.08.07,0,.29,0,.42a4.3,4.3,0,0,1-.28.59l0,.07c0,.05,0,0,0,.06h0c0,.13-.21.25-.21.25v.05l.26-.27.08.18c.09.1,0,0,.07,0l0,0c.09,0,.05.59.28,0h.08l0,.73.08-.09,0,.36h.13l0-.34.12,0,.05,0,.17-.12-.05.07-.09.39h.15l-.08.05c.17.18-.22-.09-.08.21l0,.11.19,0-.17.09.07.05a.59.59,0,0,1,.25.43s-.15.62-.2.78h0c.1.31.64.2.89.2" transform="translate(-111 -165)" />
    <path class="cls-5" d="M266.29,319.32l.15,0-.07,0v0h0s0,0,.07-.42H268c0,.41,0-.69,0-.82s-.05,0-.08-.19h-.6c-.25.18-.8.3-.89,0h0v0c-.06.12.07.31,0,.43s-.16.18-.2.27l0,.09.08,0-.14,0a3.75,3.75,0,0,1-.24.41c-.08.1.15,0,.19.07l0,.09h0l0,0,0,0" transform="translate(-111 -165)" />
    <path class="cls-5" d="M268.11,323.33c.12-.06.15.15.22.19l.24-.07-.1-.09.12-.28-.25-.12c0-.11.1-.13.1-.16l-.13-.16-.13,0c0-.09.1-.15.1-.25s-.12-.24,0-.29l.11.1.24-.11.05.05.47-.05c.1-.1-.08-.45,0-.48l.05,0,0-.05.14-.05c.25,0,.26.47.37.57l.47.09c.17-.05.26-.36.29-.35l.17.27c0,.05-.14.06-.05.14s.36,0,.37-.14l-.08-.12.07-.05,0-.23c0-.07.12,0,.16-.12l0-.19-.08-.07.12-.25a2.24,2.24,0,0,1-.08-.37c0-.14.12-.3.1-.44s-.27-.13-.34-.18l-.07-.18c-.07,0-.29,0-.27-.12l.1-.21-.06-.14c0-.16.11-.18.17-.29s-.07,0,0-.12h.19l.19.59c0-.1-.11-.22-.15-.28l-.08-.27-.17,0-.27-.05a.71.71,0,0,1-.29.18l-.13,0c-.07,0-.11.12-.2.09l.07-.2-.12-.18c-.05-.23.14-.43.17-.64-.07,0,0-.16-.17-.12a2.93,2.93,0,0,1-.81,0h-.72c-.35,0-.16.06-.29.16s0,1.81,0,.81h-1.49c0,.43-.05.44-.07.43h0v0l-.15-.1,0,0,0,.05c0,.06.11.39,0,.55h-.13s.2-.14.07-.22l-.24.14a1.14,1.14,0,0,0,.39.34c.1,0,.17,0,.25,0l.1,0-.19,0,0,0c-.14,0,0,0,0,.11l-.1-.12-.13,0-.18-.07v.09l0-.09c-.1-.07-.05,0-.05-.11l0-.09c-.11,0,0,.43,0,.52a1.07,1.07,0,0,1-.25.51l0,.09c-.06.06-.07.1,1.29.21v0c-1.41,0-1.45-.15-1.48-.17l-.13.07,0-.12h-.06c0,.12.15.85.15.85h.07s-.12-.54,0-.41.06.13.14.29l.12,0s0,.15.08.09.06,0-.82-.12V322l1,.07.12.16-.16,0v0l-1,0v.05l.86-.16c0-.06-.1,0-.05.07l0,.27.08,0,0-.07,0,.07v0l.13.23-.07-.16-.08,0,0,.09.27.44.07.05h0s0,0,0-.13h0c.06.14,0,0,.12.06l.1.16.07-.05,0,.05.07,0c-.05.11-.3,0-.32-.09h0l-.05,0,0-.17h0c.13.26.47.42.66.62s.3.38.51.58l.1.09.05.16.08.09h0a.93.93,0,0,1,.37-.45" transform="translate(-111 -165)" />
    <path class="cls-5" d="M268.81,325.34l0-.14.1,0,.12-.21.23,0c.06,0,.12-.31.25-.16l.13.18h.12l.05.41.19.11,0,.11.08-.09.2-.09,0-.3.24.07c.1,0,.26-.21.38-.21.3,0,0,.26,0,.27l.09.33a1.64,1.64,0,0,1,.81.41h.16c.09-1.05,0-1.24.14-1.29s.29,0,.36-.13a2.66,2.66,0,0,0,.32-.65l-.05-.27a6.2,6.2,0,0,1,0-1c.11-.16.29-.25.4-.43a2.7,2.7,0,0,1,.28-.55l.11-.12c.28-.2.46-.17.69-.52s0-.59.17-.88l.16-.22c.08-.19-.08-.45-.07-.65s.17-.5.21-.76a4.36,4.36,0,0,1,0-.63,2.33,2.33,0,0,1,.26-.42c.07-.13.09-.4.19-.5l.09-.05a.49.49,0,0,0,0-.37h0l-.15-.18-.09-.4H275l0,.56-.05,0c-.16-.1-.08-.05-.26-.11l-.07.05-.1-.11-.19,0-.09-.07-.16.11-.38.09c-.09,0-.32-.07-.41.05s0,.47-.09.69a2,2,0,0,1-.17.38l-.16.26h0c-.33.16.08.49-.06.62l-.05,0-.05-.13-.55-.23-.16.07c-.05,0-.1-.13-.19-.13l-.28,0,0-.13-.07.05-.24-.14c-.34,0-.73,0-1.08,0h-.53l-.07.19c0,.2-.23.41-.17.64l.12.18-.07.2c.1,0,.13-.08.2-.09l.13,0A.71.71,0,0,0,270,319l.27.05.17,0,.08.27c0,.06.16.19.15.28l-.19.41h-.19c-.1.08,0,.05,0,.12s-.21.13-.17.29l.06.14-.1.21c0,.14.2.09.27.12l.07.18c.06,0,.31,0,.34.18s-.11.3-.1.44a2.24,2.24,0,0,0,.08.37l-.12.25.08.07,0,.19c0,.11-.11,0-.16.12l0,.23-.07.05.08.12c0,.11-.29.22-.37.14s.06-.09.05-.14l-.17-.27s-.11.3-.29.35l-.47-.09c-.11-.09-.12-.53-.37-.57l-.14.05,0,.05-.05,0s.13.38,0,.48l-.47.05-.05-.05-.24.11-.11-.1c-.1.06,0,.22,0,.29s-.12.16-.1.25l.13,0,.13.16s-.15.05-.1.16l.25.12-.12.28.1.09-.24.07c-.07,0-.1-.26-.22-.19a.93.93,0,0,0-.37.44h0a7.52,7.52,0,0,1,.66.63c.11.14,0,0,0,.12l.05.11v0l.22.25h0l.13-.12" transform="translate(-111 -165)" />
    <path class="cls-5" d="M278.93,332c-.12-.5-.13,0,0,0" transform="translate(-111 -165)" />
    <path class="cls-5" d="M281.65,339.73c.13.1.17.25.35.28l.25,0h-.21c.1,0,.15.2.26.19l.26-.13c.33,0,.34.38.83.1l.64-.7c.08-.13.1-.29.24-.41s.79-.3,1-.47,0-.48.19-.63a1.91,1.91,0,0,1,1-.38l.61,0-.07-.09c0-.09.05-.14,0-.24s-.2-.29-.13-.4l.75-.25a18.16,18.16,0,0,0,1.79-.58l.64-.21-.1-.06-.1.1,0-.11-.12-.15-.12,0,.09-.07-.17-.12c0-.08.31-.21.37-.46s-.09-.62.06-.68l.14,0,.38-.28c.08-.11-.23.09-.27-.29,0-.13.19-.46.09-.58s-.17-.1-.08-.23.18-.14.19-.26-.14-.23-.15-.34l0,0c.11,0,.4-.12.45-.3l-.15-.27,0-.15-.26-.19c-.06-.18.17,0,0-.32l-.07-.19c-.11-.11-.15.19-.23,0l0-.27h0l-.19-.13-.23,0-.07-.11a.92.92,0,0,0-.51-.12c-.12,0,0-.12,0-.15s-.23,0-.28,0-.07-.19-.14-.27c-.25-.31-.44.24-.82-.55h0l-.39.06-1.2.19-.39.07.07.21a1.38,1.38,0,0,1-.26.38,2,2,0,0,1-.38.26l0,0,.16.13.19.47-.08.39-.07.08c0,.16.16.35.13.51l-.09.06-.3.92.12.3c.09.13.26.19.36.3l.22.36.19,0,.28.12c.11,0,0-.14,0-.21l.36-.15V334c0,.12,0,1.1,0,1.12h-.07c-.24,0,.08-.26-.15-.25s-.4.28-.6.2c-.05,0-.19-.52-.34-.62s-.07.12-.12,0,0-.34-.2-.49-.28,0-.4-.1l-.14-.13-.2.06c-.16-.08-.11-.26-.19-.38l-.26-.19V333h.11a.43.43,0,0,1-.46.24l-.25-.11c-.14,0-.31,0-.45,0s-.22-.2-.5-.13l0-.07c-.08-.12-.22-.16-.21-.35l.07.44H282s-.41-.57-.56-.49l-.17.49h-.08a1.68,1.68,0,0,0,0-.72c-.05-.11-.18,0-.25-.09s0-.21-.17-.18a2.23,2.23,0,0,1,.08.58,2.37,2.37,0,0,0-.11.83c0,.07.1.09.08.19s-.2.29-.17.44l.13.19-.08,0s-.05,0-.08-.26h-.3c-.38.26-.77.26-1.15,1h-.32c0-.74-.06-.76-.08-.74s0,1.21,0,1.35a1.5,1.5,0,0,1-.71,1.47l1,.35v.09c-.3,0-.31.06-.3.09l.13.35.17.13a5.36,5.36,0,0,0,1.12,1,5.27,5.27,0,0,1,.75-.12,1.52,1.52,0,0,1,.78.11" transform="translate(-111 -165)" />
    <polyline class="cls-5" points="162.46 185.56 162.48 185.53 162.44 185.55 162.46 185.56" />
    <path class="cls-5" d="M271.73,344.89h0l0,.12c0,.22,0,0,0,.15l.07.18c0,.21,0,.35,0,.54s.12.21.15.32v.12c0,.09.14.14.18.23l.07.25,0,.24.09.27,0,.2c0,.11.13.18.15.3s-.07.17,0,.29.18.12.19.27-.08-.08-.07.1.13.19.15.27,0,.23.07.35l.16.23a2.34,2.34,0,0,1,.21.4,4.11,4.11,0,0,0,.63.61l.07,0,0,0h0l.18-.12,0,0s.05-.55.33-.47c.1,0,.07.1.08.17s.19,0,.2.15,0-.12-.07.12l0,0,0,.2h.11a2.88,2.88,0,0,0,.59.21c.16,0,.32-.07.48-.06a2.06,2.06,0,0,1,.38.11c.27,0,0-.14.12-.23l.18,0,.09-.17.4-.1V344h.6l.08-.3s0-.05-.69-.08v-.16a3.73,3.73,0,0,0,.7-2.59,1.91,1.91,0,0,1,.3-.67V340h.46c.43,0,.86-.15,1.29-.22a3.06,3.06,0,0,1,.5-.08l.24.33.06.17c.22-.06.47-.51.76-.54.11,0,0,.15.16.09s.36-.32.63-.24l0,0,0,0-.18-.18a1.56,1.56,0,0,0-.78-.11,5.54,5.54,0,0,0-.75.11h0c-.36.08-.71.17-1.06.23a3.67,3.67,0,0,0-.95.18l-.11-.08c-.15,0-.31.09-.46.08s-.25-.12-.37-.14l-.47,0-.16.05-.08-.07a4.85,4.85,0,0,1-.73,0c-.22-.07-.29-.37-.49-.44h-1.13c-.8,0-1.61,0-2.41,0l-.79.06c-.22-.06-.44-.44-.62-.47a2.72,2.72,0,0,0-.89.3l0-.05-.18,0c-.29-.07-.13-.12-.47,0h0c0,.1,0,.2,0,.31a1.26,1.26,0,0,0,.1.54l.15.17.07.22c.12.17.38.26.45.47a5.49,5.49,0,0,0,.73,1.27,4.7,4.7,0,0,1,.23.68c.08.24.33.42.45.64a3,3,0,0,1,.1.3c.08.18.45.43.56.77l0,.14" transform="translate(-111 -165)" />
    <path class="cls-5" d="M271.51,344.43h0c.19-.08.12.19.14.31s.1.22,0,.24l-.19-.06" transform="translate(-111 -165)" />
    <path class="cls-5" d="M282.21,339.22a2.91,2.91,0,0,1,.42.6v.1l.15.16v.14a1.35,1.35,0,0,0,.2.44l.13,0,0,0,.25.2c.15.13.41.1.53.25s0,.24.05.32.31,0,.38.07-.09.53,0,.63l.16.16.08.24a6.77,6.77,0,0,1,.87.23c.13.07,0,.11,0,.23l.16,0,.1.11c.11,0,.24-.07.35,0a3.74,3.74,0,0,1,.46.22l.21,0a2.81,2.81,0,0,1,.47,0l.19.1.62-.61.37-.38.05-.05.07,0-.11-.21.15-.21c0-.1-.05-.21,0-.31s.09,0,.15,0,.15-.43.28-.49H289v-.14l0-.1-.07-.05,0-.08-.09,0s0-.11,0-.21.16-.29.08-.42-.23,0-.12-.2L289,340l0-.23.17-.17-.08-.12a1.65,1.65,0,0,1,0-.37l.09-.23-.07-.1.08-.16c0-.13-.18-.29-.16-.41l.13-.21H289c-.15,0,0-.06,0-.11l-.43-.17c-.09,0-.21,0-.3,0l-.11-.18-.31-.07-.1-.13c-.1,0-.25,0-.29,0l0-.07h-.47v-.07c0-.1,0-.2,0-.3l-.53,0a1.65,1.65,0,0,0-.83.33c-.16.13,0,.41-.17.55s-.63.23-.86.41-.14.24-.21.35l-.56.61c-.42.24-.43-.1-.72-.09l-.23.11c-.09,0-.14-.13-.22-.16h-.29l-.12,0,0,0,0,0,.11.25" transform="translate(-111 -165)" />
    <path class="cls-5" d="M276.39,346.39c.08.1.08.26.16.36l.11.09,0,.22c0,.13.19.32.17.47s-.2.22-.23.33l0,.42c.1,0,.13-.05.22-.06l.23.07.51,0c.09,0,0-.17.08-.19L278,348l.11-.19c.13-.16.41-.26.5-.45s0-.64.37-.72.44.12.7.28l.14.05v.05l.14-.05.23.16a2.7,2.7,0,0,0,.37.07l.22-.1c.1,0,.21.06.33,0,.38-.14.43-1,.49-1s.4-.06.51-.1.09-.15.15-.21l.29-.17c.12-.15,0-.5.17-.64h0l0,.47c.05,0,.2-.25.33-.29l.06.82h.05l.09-1,.13,0c.13-.07.34-.45.45-.57s.34-.08.5-.14c.4-.15.14-.32.66-.35v0h0l-.11-.12-.17,0c-.09-.13.09-.18,0-.25a7.86,7.86,0,0,0-.94-.25l-.09-.26-.17-.18c-.08-.11,0-.65,0-.68s-.35,0-.41-.07,0-.24-.06-.35-.41-.12-.57-.27l-.27-.21,0-.05-.14-.05a1.48,1.48,0,0,1-.21-.47v-.16l-.16-.18v-.1a3.13,3.13,0,0,0-.46-.65l-.12-.27c-.27-.09-.43.14-.63.24s-.05-.11-.16-.1c-.29,0-.54.5-.76.55l-.06-.17-.24-.33a3,3,0,0,0-.5.08c-.43.07-.86.18-1.29.22H277v.26s.7.46.7.69a21.59,21.59,0,0,0,.3,2.66V344h-1v2.57c.05.13.28.18.36.28" transform="translate(-111 -165)" />
    <path class="cls-5" d="M290.2,336l.09-.1.1.05c.16,0,.35-.11.51-.12l0,0,.12.14,0,.73-.1.12-.1.3c0,.07-.23.17-.18.28l.15.16,0,.16c0,.12.09,0,.14.11s.19.3.27.39l.17.15.1,0c0,.1-.18.24-.08.32s0,0,.07.24h.06c0-.24,0-.22.06-.24v-.46l-.12-.16.12-.09c.08-.12,0-.3.18-.37s.28.07.36,0l.12-.69-.05-.25c0-.18.17-.36.11-.56a7.47,7.47,0,0,0-.77-1.09l-.17-.15c-.14-.06-.25.05-.29-.16,0,0,0-.05-.16-.08v-.08c.16-.1.16-.21,1-.31v-.16c-.87-.18-1-.46-1-.64s.21-.28.26-.42l0-.19h.32l0-.13c-.06-.1-.29-.2-.3-.43s.1-.2.09-.3-.09-.22-.1-.32c-.09-.48,0-.49-.35-.88l-.13-.15c-.16,0-.07.2-.12.23l-.18-.13-.32,0s0-.13-.13-.14l-.1,0-.19-.16,0,0,0,.25c.08.14.11-.13.22,0l.06.18c.19.26,0,.13,0,.3l.24.18,0,.14.14.25c0,.17-.32.24-.42.28l0,0c0,.1.14.22.14.32s-.13.18-.17.25.05.18.08.21-.1.43-.08.55c0,.35.33.17.25.27l-.36.26-.13,0c-.14.05,0,.52-.06.64s-.31.37-.35.44l.16.11-.08.07.11,0,.11.14v.09h0l.06-.07.09.06s.28.46.4.61" transform="translate(-111 -165)" />
    <polyline class="cls-5" points="178.62 170.46 178.64 170.44 178.6 170.44 178.62 170.46" />
    <path class="cls-5" d="M297,331h.28l-.11.89V332h-.1s-1,.43-1.2.49l-.07.51-.21-1h-.07a3.22,3.22,0,0,1-.41.74l-.39-.18c-.29,0-.26.48-.68.5L294,333l-.25,0-.06-.11c-.19-.11-.32.17-.5.17-.48,0-.26-.17-.58-.33-.16-.08-.17.1-.29.16s-.39,0-.54.13h-.08c0-.15,0-.14-.06-.15h-.33l0,.19c-.06.14-.23.27-.26.42s.12.46,0,.64v.16c.16.1.16.21,1,.31v.08c-.84,0-.84.05-.84.08,0,.22.15.11.29.16l.17.15a7.47,7.47,0,0,1,.77,1.09c.06.21-.09.38-.11.56l.05.25-.12.69c-.08.12-.27,0-.36,0s-.1.25-.18.37l-.12.09.12.16v.46l-.06.24h-.06l-.07-.24c-.1-.08.09-.22.08-.32l-.1,0-.17-.15c-.08-.1-.2-.31-.27-.39s-.12,0-.14-.11l0-.16-.15-.16c-.05-.11.14-.21.18-.28l.1-.3.1-.12,0-.73-.12-.14,0,0c-.17,0-.35.12-.51.12l-.1-.05-.09.1c-.12-.14-.37-.61-.4-.61l-.6.2a17.08,17.08,0,0,1-1.68.55l-.71.24c-.07.1.09.3.12.37s0,.15,0,.23l.06.09v.4h.51l0,.07s.21-.08.31,0l.11.14c.09.06.25,0,.34.08l.12.2c.1.07.22,0,.32,0l.46.18c.05.06-.12.08,0,.12s0,0,.07-.27h.07c0,.28.05.26.07.28l-.14.23c0,.13.19.3.17.44l-.09.17.08.11-.09.25a1.78,1.78,0,0,0,0,.4l.09.13-.19.19,0,.25-.23.07c-.12.21.13.2.13.21s-.15.36-.09.46,0,.2.05.23l.1,0,0,.09.08.05,0,.11v.15h-.08c-.14.07-.17.44-.3.54s-.1-.05-.16,0,0,.23,0,.33l-.16.22.11.23-.08,0-.06.06-.4.41-.67.66a5,5,0,0,1,.21.81c0,.1-.06.22,0,.31l.12.14.06.25.1.09,0,.24c0,.11.09.21.11.32s-.06,1.1-.08,1.23l-.1.17.06.14.08.07,0,.26c0,.15.14.46,0,.59a3.12,3.12,0,0,0,.68,0l0-.21c0-.14,0-.3.06-.44l0-.07c-.12-.07,0,.17-.11.15l-.2-.27-.12-.06c0-.09.08,0,.12,0l.1-.14,0,0v.07a.53.53,0,0,1,.33-.46l.18-.13.08,0s0,0,.23-.07.35-.13.53-.2c.55-.19,1.34-.4,1.43-1.12,0-.16-.08,0-.08,0l-.08-.06v.09l0,.05,0-.26,0,0v.05l.11-.41.15-.39a1.69,1.69,0,0,1-.07-.32c0-.19.12-.36.06-.54s-.1.21-.12.27v.07l0-.05c-.08-.09,0-.3,0-.42a1.57,1.57,0,0,0,0-.49c0-.07-.1-.12-.11-.21v-.07l0-.14-.06.14,0-.07,0-.25,0,0v-.07h-.08c0-.06,0-.09-.14-.25l0-.12-.08-.07v0l-.06-.05c0-.06.12-.12.09-.21l0-.05H291v-.28l0-.05-.19-.27.08.06.21.21c.1,0,.77-.69.77-.72l.25-.19,0,0c.1,0,0,0,.13-.07v.05l0,0,.09-.12v.11l.08,0,0,0,0-.21,0,.09.12,0,0,0v-.05c.1-.18.5-.44.49-.52h0c.17,0,0-.32,0-.32l0,0,.14.14.23-.26a2.9,2.9,0,0,1,.72-.41l.2,0,0,0,.35-.15c.18-.16.29,0,.58-.14v-.09l.22-.17.56-.32-.05-.14c0-.09.29-.06.36-.31,0,0-.13.06,0-.05s.59-.52.6-.73-.11,0-.16-.08l.2-.1,0-.12,0,0h.08c.07-.07-.23-.14-.11-.11s.22-.41.19-.41l-.07,0,.07-.05,0-.11-.14.14,0,0,0-.25,0,0,.07,0,0-.05c0-.24-.1.06-.2-.13l.12-.09c.07-.09-.11-.36-.08-.47l.07-.07L297,335l0-.07c.06-.14,0-.18,0-.37l0-.12-.12.05c-.08-.1,0-.16.06-.11l0-.07c0-.12.1,0,.1-.09s0,0-.08-.07.05,0,.05-.05l0-.13-.1,0,.1-.1-.06,0,0-.13.1-.28c0-.14-.1-.26-.1-.38s.07-.16.08-.25l-.13-.11.15-.12.07-.18s-.14,0,0-.14-.11,0,0-.14l.1-.09" transform="translate(-111 -165)" />
    <path class="cls-5" d="M287.13,347.88c-.09.12-.49.81-.35.93l0,0,.06,0,0,.21c.09.17.75.46.9.32s0-.43.05-.52l.12,0c.12-.13,0-.44,0-.59l0-.26-.07-.07c-.3.12-.45-.53-.8-.05" transform="translate(-111 -165)" />
    <path class="cls-5" d="M288.26,348.67l-.12,0c-.1.09,0,.45-.05.52s-.81-.14-.9-.32l0-.21-.05,0,0,0c-.14-.11.27-.81.35-.93.36-.48.51.17.8.05h0l-.06-.14.1-.17c0-.13.1-1.11.08-1.23s-.09-.21-.1-.31l0-.24-.1-.09-.06-.25-.12-.14c0-.09,0-.22,0-.31a5,5,0,0,0-.21-.81l-.2-.11a3.07,3.07,0,0,0-.51,0l-.23,0a4.25,4.25,0,0,0-.5-.24c-.11,0-.24,0-.36,0v0c-.53,0-.26.2-.66.35-.16.06-.36,0-.5.14s-.32.5-.45.57l-.13,0-.09.17H284a2,2,0,0,1-.33.47l0,.53h0c-.14-.4,0-.06-.17.09l-.29.17c-.06.06-.05.17-.15.21s-.42,0-.51.1-.11.91-.49,1c-.11,0-.23,0-.33,0l-.22.1a2.86,2.86,0,0,1-.37-.07l-.23-.16-.14.05v-.05l-.14-.05c-.25-.16-.37-.37-.7-.28s-.27.51-.37.72-.37.29-.5.45l-.11.19-.26.05s0,.15-.08.19l-.51,0-.23-.07c-.09,0-.12.11-.22.06l0-.42c0-.11.22-.2.23-.33s-.13-.33-.17-.47v-.22l-.11-.09c-.07-.1-.08-.27-.16-.36s-.31-.15-.36-.28v3.79l-.4.1-.09.17-.18,0c-.11.1.14.2-.12.24a2.09,2.09,0,0,0-.39-.11c-.16,0-.33.08-.48.07a2.83,2.83,0,0,1-.59-.21h-.11l0-.21,0-.05c0-.25.09.13.07-.12s-.19,0-.2-.15,0-.14-.08-.17c-.28-.08-.28.46-.33.48l0,0-.18.12.11.29a3.88,3.88,0,0,1,.58,1.31,8.12,8.12,0,0,0,.38.78c.18.34.53.63.63,1,.05.2.12.62,0,.8s-.3-.09-.35.16.24.14.24.37l-.15-.1c0,.06.13,0,.2.24s.23.33.29.52c0,0-.26.23-.05.47s0-.14,0-.15.38-.07.38-.07v.29l.06,0,.17-.05v.1l.15,0,.07.12-.06.08.07,0c.09,0,.15.19.23.19l.17,0,.13.07c.06,0,.34-.32.44-.36a2.79,2.79,0,0,1,.56,0v0l0,0c.1-.12.32,0,.42,0l.21-.08.23,0c.11,0,.09-.12.13-.17a2.47,2.47,0,0,1,.53-.22c.17-.06.39.16.44.09l0-.05,0,0,.23.06c.08,0,.1-.11.21-.12.39,0,.75.23,1.12.23,0,0,.06-.22.18-.23s.34.13.52.09-.05-.14.09-.29.51,0,.67,0a4.46,4.46,0,0,0,1.29-.72l.22-.23.21-.1a4,4,0,0,0,.69-.63c.09-.11.22-.32.29-.39s.4-.22.58-.4a5.07,5.07,0,0,0,.72-1,1.58,1.58,0,0,1,.2-.31l.14-.14c-.09,0,0-.12.08-.24A4.78,4.78,0,0,1,288,351a1.18,1.18,0,0,0,.78-.77c.08-.19.07-.39.14-.58s.2-.51.27-.77a3.12,3.12,0,0,1-.68,0m-3.45,2.7c-.08.09,0,.21,0,.26s-.68.2-.87.34v.07l-.1.12-.06.22c-.15.09-.4-.17-.47-.28l-.16-.09,0-.19h-.06l-.19-.36-.08-.14.31-.17c.14-.14.19-.45.38-.56l.23,0,.16-.17.47-.15c.12,0,.26.34.36.42l.23.14C285.48,351.25,285.21,351.41,285.07,351.55Z" transform="translate(-111 -165)" />
    <path class="cls-5" d="M285,350.83c-.1-.08-.24-.39-.36-.42l-.47.14-.16.17-.23,0c-.19.11-.24.42-.38.56l-.31.17.08.14.19.36h.06l0,.19.16.09c.07.12.31.37.47.28l.06-.22.1-.12v-.07c.19-.15.77-.17.87-.34l0-.26c.13-.15.41-.31.19-.58l-.23-.14" transform="translate(-111 -165)" />
    <polyline class="cls-5" points="158.76 161.72 158.84 161.71 158.72 161.72 158.76 161.72" />
    <path class="cls-5" d="M269,326v.41c.18-.11.18-.21,1-.32V326c-.82,0-.8-.06-.82-.08l-.07,0,.23-.18.13-.2c.08-.06.24-.06.29-.16h0l-.1,0-.13-.18c-.13-.15-.19.12-.25.16l-.23,0-.12.21-.1,0,0,.14-.13.12h0l.08,0,0,.05-.07,0,.14.29c.08.22-.06.32.06.5l.15-.07V326" transform="translate(-111 -165)" />
    <path class="cls-5" d="M287.08,319.55l0-.14.25-.11.82-.94c0-.11-.07-.06-.1-.12s0,0-.15-.07l-.1-.12,0,.09-.07-.12h-.78l.11-.35c.07-.17-.08-.16-.08-.29s.32-.61.09-.45l0,0-.08-.15-.2.07,0-.26-.34-.1-.07-.16-.18-.14c0-.07.06-.05,0-.1l-.1,0v-.19l-.33-.12-.23.35s-.37-.22-.48-.21l-.31.28-.12-.07c-.07,0-.2,0-.26-.09l0-.14-.25,0v-.17a2,2,0,0,0-.31-.29l-.36-.15c-.14,0-.14.14-.23.17s-.54-.15-.69-.21-.21.09-.28,0l-.51-.1c-.1.09,0,.29-.13.33l-.56.09-.13-.17-.1,0,0-.05-.24.22a1.41,1.41,0,0,0-.69.24l0,.07-.54-.22-.18.33-.1,0c-.08.09,0,0,0,.12s-.21.26-.34.24-.4-.19-.59-.17l-.12.05c-.1,0-.18-.08-.26-.09l-.11,0-.18-.14c-.12,0-.3.08-.39,0s-.13-.19-.21-.33-.75-.5-1-.4a1.48,1.48,0,0,0-.61.72c0,.08-.26,0-.25.12s.11.2.11.31l0,.24a1.6,1.6,0,0,0,0,.3.47.47,0,0,1,0,.35l-.08.05c-.09.1-.11.36-.18.48a2.3,2.3,0,0,0-.25.4,4.21,4.21,0,0,0,0,.6c0,.24-.18.48-.2.73s.15.44.07.62l-.15.21c-.12.28,0,.59-.16.85s-.39.31-.66.5l-.11.11a2.57,2.57,0,0,0-.27.52c-.1.17-.27.26-.38.41a6,6,0,0,0,0,.93l.05.26a2.57,2.57,0,0,1-.31.62c-.07.11-.25.07-.34.12s0,.23-.13.28h-.16c-.37.2-.24.71-.79.58l-.09-.32s.27-.26,0-.26c-.12,0-.28.17-.37.21l-.23-.07,0,.29-.2.09-.08.09,0-.1-.18-.1,0-.1h0c0,.09-.21.1-.28.16l-.13.19-.23.17.07,0v.24s.18.21,1,.32v.14c-.77,0-.76.06-.77.08l-.32.07,0,.07c.15.17.15.18.31.13l.13,0,0-.1c.1-.09.2,0,.3,0h.12c.24,0,.52,0,.77,0s.22.06.34.07c.36,0,.74,0,1.1,0,.18,0,1-.08,1.06,0l0,.12.11.17c0,.17,0,.29.06.49s.15.19.18.32l0,.22.14.22.08,0a1.68,1.68,0,0,0,.24.49l.11.1,0,.07.37,0,.19.05,0-.08.38,0h0l.6.1H276v-.11l.11.11h.08a3,3,0,0,0,0-.93l.07-.11,0-.05.08.09h.54s.25-.24.4-.17-.13.29,0,.39l.08.79.95-1h.23c.19.09-.05.57,0,.71l.11.29a2.58,2.58,0,0,1,0,1.07l-.07.18c0,.3.52.63.53,1l-.05.12,0,.28-.11.12.07.2v.13c.06.15.25-.17.31-.16l.13.07.15-.05c.08,0,.13.08.23.05s.2-.11.3-.14.3.08.45.07l.13-.18c.16,0,.11.13.17.18s.19,0,.25.09-.24.27,0-.06h.08l.17.29c.15-.07.56.71.56.71h.09l-.07-.65c0,.19.13.24.21.35l0,.07c.27-.07.3.06.5.13s.31,0,.45,0l.25.11a1,1,0,0,0,.46,0h.05v.23l.25.18c.08.11,0,.28.18.35l.18-.05.13.12c.12.09.26,0,.38.09s.08.31.19.46,0-.1.12,0,.27.57.32.58.38-.18.57-.19-.09.21.14.24h.07s0-.94,0-1.05v-.32l-.33.14c0,.06.12.19,0,.19l-.26-.11-.18,0-.21-.34c-.09-.11-.26-.17-.34-.29l-.11-.28.28-.86.08-.05c0-.14-.14-.33-.12-.48l.07-.07.07-.37-.18-.44-.15-.12,0,0a1.85,1.85,0,0,0,.35-.25,1.29,1.29,0,0,0,.24-.35l-.06-.2.37-.06,1.12-.18.37-.06h0l-.22-.49c-.14-.24-.13-.54-.33-.77s-.27-.2-.38-.32-.4-.57-.31-.8l.14-.21a5.2,5.2,0,0,0-.28-.85c0-.2.08-.34.09-.52h0l0-.32c0-.1-.13-.18-.15-.28a4.85,4.85,0,0,1,0-.82c0-.1-.31-.34-.22-.39h0s-.06,0-.13-.1c-.18-.27.21-.38.24-.44s0-.2,0-.35.33-.46.49-.55a3.31,3.31,0,0,1,.07-.87,4.79,4.79,0,0,1,.05-.67c0-.07.21-.33.25-.44s-.06-.28,0-.37l.25-.18" transform="translate(-111 -165)" />
    <path class="cls-5" d="M280.74,331.8l-.13.18c-.14,0-.3-.11-.45-.07s-.2.12-.3.14-.16-.05-.23-.05l-.15.05-.13-.07c-.07,0-.25.31-.33.16V332l-.07-.2c-.13,0-.12-.5,0,0l.11-.12,0-.28.05-.12c0-.41-.53-.74-.53-1l.07-.18a2.58,2.58,0,0,0,0-1.07l-.11-.29c0-.14.23-.61,0-.71h-1.18c0,.21-.06.23-.08.21s.18-.31,0-.39-.4.17-.4.17h-.54l-.08-.09,0,.05-.07.11a3,3,0,0,1,0,.93h-.08l-.11-.11V328h-.41c-.07,1-.6.9-.6.9v.17l-.36,0v.08l-.18,0-.35,0v-.06L274,329a1.58,1.58,0,0,1-.23-.46l-.08,0-.14-.21v-.21c0-.12-.13-.18-.17-.3s0-.3-.06-.46l-.11-.16,0-.11c-.1-.1-.84,0-1,0-.34,0-.7.06-1,0-.11,0-.21-.05-.32-.06s-.5,0-.73,0l-.2,0-.15.13a4.68,4.68,0,0,0-.47.1l0,.07c.09.13.12.31.22.44l.23.25,0,.32a6.87,6.87,0,0,0,.4.84c0,.1.2.58.08.6l-.12,0c-.07.06-.08.24-.18.16h0a.74.74,0,0,0,.15.36l.06.27,0,.08a3.43,3.43,0,0,1,.33.67c0,.1.2.18.21.29l0,.06c0,.08.12.13.12.22a1.31,1.31,0,0,1-.06.32c0,.13,0,.3,0,.44s-.29.58-.29.67l-.35.19c-.17.16,0,.19-.12.29a5.16,5.16,0,0,0-.36.42c0,.08,0,.29,0,.4l-.09,0-.06.16c0,.05,0,.55,0,.67s-.17.23-.15.33l0,0,0,0-.09,0v.25c0,.1-.07.15-.1.22s-.08,0-.15,0l.07.22V337a5,5,0,0,1,0,1h0c.31-.13.16-.08.43,0l.16,0,0,0s.59-.31.8-.28.36.38.56.44l.72-.05c.72,0,1.45,0,2.17,0h.73l.45,1h.08c.2-.06.27.25.49.32a4.85,4.85,0,0,0,.73,0l.08.07.16-.05.47,0c.13,0,.25.13.37.14s.31-.13.46-.09l.11.09a3.59,3.59,0,0,1,.95-.18c.35-.06.7-.16,1.06-.24h0a5.32,5.32,0,0,1-1.12-1l-.17-.13-.13-.35.3-.09v-.43a2.56,2.56,0,0,1-.29-1.47c0-.13,0-1.33,0-1.35s.05,0,.08-.26h.32c.38.26.77.26,1.15,1h.38l.08,0-.13-.19c0-.14.15-.31.17-.44s-.06-.12-.08-.2a2.37,2.37,0,0,1,.11-.83,2.25,2.25,0,0,0-.08-.58" transform="translate(-111 -165)" />
    <path class="cls-6" d="M291.3,335.71c-.09,0,0,0-.05,0-.33-.33.13-.49-.13-.69H291c-.2-.14-.06-.51-.07-.7a1.84,1.84,0,0,1-.13-.28c0-.11,0-.16,0-.27s-.16,0-.13-.22l.19-.41.12-.1a1,1,0,0,0-.07-.46,4.48,4.48,0,0,1,0-.62l0-.25,0,0c-.07-.24-.41-.48-.35-.76l.06-.11,0-.15c.08,0,.47.47.51.57a1.33,1.33,0,0,1,0,.52l.09.25-.09.3c.06.12.1.25.16.34l.12,0,.07.2c.08.23-.12.5-.26.62l0,0,0,.25c0,.1.13.21.12.29l-.08.21.05.18,0,.26c0,.08.08.08.07.2l0,.22.21,0c0,.13.21.69.13.71l-.18-.26-.1,0,0-.11-.06,0c-.07.05,0,.25-.12.27" transform="translate(-111 -165)" />
    <path class="cls-6" d="M292.82,315.57c0-.1.06,0,.08.07v-.06l.13-.09,0,.23,0,.35-.06.18.09.21c0,.07-.06.34,0,.46l.33.45.16,0a.86.86,0,0,1,0,.5c-.1.15-.27-.5-.42-.6H293V317l-.19-.11,0-.24s0,.13,0,0l-.07-.21,0-.32.06-.13a1,1,0,0,1,0-.5" transform="translate(-111 -165)" />
    <path class="cls-6" d="M287.33,319.18l.06.24c.07,0,.34-.39.41-.54l.26-.12a.57.57,0,0,0,.17-.62l-.1,0c0,.18-1,.67-.89,1l.08,0" transform="translate(-111 -165)" />
    <path class="cls-6" d="M291.12,320.29l.06.08.08,0,0,.1.17.11,0,.15,0,0,.06-.15,0,0,.39-.11v.08l.11.14-.4.07,0,.14-.31-.06,0,.11-.1,0c0,.1,0,.26.11.3v0c0,.21-.12.08-.12.18s-.17.11-.2.23l.12.13h0l-.18,0,0,.06,0,0-.07,0,.09.09.08.05c-.07.06-.21-.09-.31-.05l0,0-.05.05,0,0,0,.1h-.17l.11.1h-.08l-.08.09s-.22-.12-.21.09h.06l.12-.06v.08l.11,0c-.06.09-.1,0-.17,0l0,.09-.1-.05,0,.06-.09,0,.4.08c.07,0,.19-.23.23,0s-.49.27-.41.42h0l-.06.6-.14,0c-.12-.06-.09-.22-.28-.1v.43l.1.06-.13-.08-.09.15-.06.08v-.1l0-.06c.06-.08.11,0,.15-.12l-.06-.12v-.08l0,.32h-.16l0-.52-.14.19,0-.07-.18-.08,0-.16h-.07l0,0,0,.11-.13.05.11.11v.05l-.16-.07c-.11.05,0,.23,0,.29l-.13-.13v.06h-.08v.11l0,0v-.13l.09-.05h-.05c-.09,0-.09-.07,0-.12l0,0,0-.12c0-.11-.11,0-.12,0s.12-.29.08-.39h-.1a2.61,2.61,0,0,1,.16-.43l0-.11.06,0a1.52,1.52,0,0,0,0-.51h-.05c0-.09-.1-.17-.09-.21a3.06,3.06,0,0,1,.14-.34l.2-.18-.12-.19.07,0c.15-.06.21,0,.22-.06l.1,0,.07,0v-.07l.07,0,0,0,0,.08.08,0,0,0h0l0,0,0-.1.05,0,0-.08v.05l0,.06h.08l-.07.1c.11,0,.19-.12.23-.11s-.08.14.09.11l0,0,.09-.11h0v0c0-.07,0-.09.09-.14l0,0-.08-.06.21-.06,0,.06,0,.08.05,0,.14.07h-.11l.11.1,0,0a1.06,1.06,0,0,0,.35-.16v.14h0c.09,0,0-.09.07,0l0,0,.07,0,.11-.06-.09.19a.44.44,0,0,0,0,.1l0,0" transform="translate(-111 -165)" />
    <path class="cls-6" d="M287.94,329.65c0,.07.07.18,0,.12l-.12.1-.34-.34-.15.11.05-.08-.1,0v-.12c0-.08.15-.06.12-.17l0-.08c-.09-.14-.23-.2-.31-.32s0-.46-.15-.65-.28-.11-.35-.22-.18-.23-.26-.36l0-.18-.12-.33L286,327v-.18c.15,0,.2-.31.19-.32a2.87,2.87,0,0,1-.27-.57c-.07-.28.24-1,.16-1.09l-.1.31s-.14,0,0-.11,0-.95.13-1,.11.4.15.57l.29.61-.06.48.07,0a.31.31,0,0,1,.15.21l-.08.36c.06.13.21.24.21.4s-.34.14-.24.45.37.18.43.22a3.22,3.22,0,0,1,.41.54h0l-.05.14h0c.12.18,0,.31.08.43s.11.14.16.23a2.41,2.41,0,0,1,.22.58l.14.12,0,.23" transform="translate(-111 -165)" />
    <path class="cls-6" d="M270.13,305.94a.77.77,0,0,0,.26.6v.06c.13.06.15,0,.25,0h0l-.11.17c.1,0,0-.1,0,0l.06,0,0,0,0,.16a.46.46,0,0,0,.17.32l.14-.05,0,.1.06-.21h0c.06-.08.12,0,.22,0s0-.18.09-.18l0-.06h.42l.22.18h0l0-.34c.07-.07.2.11.11-.18l.05-.07-.05-.07,0-.07h-.22l-.33-.15,0,.13-.09-.12-.1-.14h-.36l-.07,0,.1-.16v-.2l.07-.05-.23-.27c-.1,0-.06.13-.09.1l0-.18,0,0-.09,0a1.51,1.51,0,0,1-.28,0c-.05,0-.51.12-.46.3h0l.19.3.09,0" transform="translate(-111 -165)" />
    <text class="cls-7" transform="matrix(1, -0.02, 0.02, 1.05, 177.06, 129.65)"> </text>
</svg>
